<?xml version="1.0" encoding="utf-8"?>
<!-- Generator: Adobe Illustrator 25.2.1, SVG Export Plug-In . SVG Version: 6.00 Build 0)  -->
<svg version="1.1" id="Layer_1" xmlns="http://www.w3.org/2000/svg" xmlns:xlink="http://www.w3.org/1999/xlink" x="0px" y="0px"
	 viewBox="0 0 300 60" style="enable-background:new 0 0 300 60;" xml:space="preserve">
<style type="text/css">
	.st0{fill:#282C33;}
	.st1{fill:#FFFFFF;}
	.st2{fill:url(#Shape_2_);}
</style>
<rect class="st0" width="300" height="60"/>
<g id="Page-1">
	<g id="Retails" transform="translate(-214.000000, -39.000000)">
		<g id="Group-7" transform="translate(214.000000, 37.000000)">
			<g id="_x31_21" transform="translate(0.000000, 2.000000)">
				<path id="Shape" class="st1" d="M49.2,43.4c-0.3,0-0.6-0.1-0.8-0.3c-0.2-0.2-0.3-0.5-0.3-0.8V24.5c0-0.3,0.1-0.6,0.3-0.8
					c0.2-0.2,0.5-0.3,0.8-0.3c0.3,0,0.5,0.1,0.7,0.3c0.2,0.2,0.3,0.5,0.3,0.8v17.8c0,0.3-0.1,0.6-0.3,0.8
					C49.8,43.3,49.5,43.4,49.2,43.4L49.2,43.4z M123.5,43.4c-0.3,0-0.5-0.1-0.7-0.3c-0.2-0.2-0.3-0.5-0.3-0.8V29.3
					c0-0.3,0.1-0.6,0.3-0.8c0.2-0.2,0.5-0.3,0.7-0.3c0.3,0,0.6,0.1,0.8,0.3c0.2,0.2,0.3,0.5,0.3,0.8v12.9c0,0.3-0.1,0.6-0.3,0.8
					C124.1,43.3,123.8,43.4,123.5,43.4L123.5,43.4z M123.5,26.2c-0.4,0-0.8-0.1-1.1-0.4c-0.3-0.3-0.4-0.7-0.4-1.1
					c0-0.4,0.2-0.8,0.5-1c0.3-0.3,0.6-0.4,1-0.4c0.4,0,0.8,0.1,1.1,0.4s0.4,0.7,0.4,1.1c0,0.4-0.2,0.8-0.4,1.1
					C124.3,26,123.9,26.2,123.5,26.2L123.5,26.2z M136.7,31c0.3,0,0.5-0.1,0.7-0.3c0.2-0.2,0.3-0.5,0.3-0.8c0-0.3-0.1-0.6-0.3-0.7
					c-0.2-0.2-0.5-0.3-0.8-0.3H133c-0.9,0-1.8,0.2-2.6,0.7c-0.8,0.5-1.4,1.1-1.8,1.9c-0.4,0.8-0.7,1.8-0.6,2.7v8.2
					c0,0.3,0.1,0.6,0.3,0.8c0.2,0.2,0.5,0.3,0.8,0.3c0.3,0,0.6-0.1,0.8-0.3c0.2-0.2,0.3-0.5,0.3-0.8v-8.2c0-0.8,0.3-1.7,0.8-2.3
					c0.5-0.6,1.2-0.9,2.1-0.9H136.7z M93.7,41.2c0.3,0,0.5,0.1,0.7,0.3c0.2,0.2,0.3,0.5,0.3,0.8c0,0.3-0.1,0.6-0.3,0.7
					c-0.2,0.2-0.5,0.3-0.8,0.3h-6.4c-2.7,0-4.5-1.7-4.5-4.6v-5.3c0-2.7,1.5-4.4,3.9-4.6H91c2.4,0.2,3.9,1.9,3.9,4.6v2.5
					c0,1.3-1.1,2.1-2.3,2.1h-7.9v0.8c0,1.8,1.1,2.5,2.4,2.5H93.7z M90.4,31h-3.2c-1.3,0-2.4,0.7-2.4,2.4v2.5h8.1v-2.5
					C92.8,31.6,91.7,30.9,90.4,31L90.4,31z M141.9,41.2c-0.3,0-0.5,0.1-0.7,0.3c-0.2,0.2-0.3,0.5-0.3,0.8c0,0.3,0.1,0.5,0.3,0.7
					c0.2,0.2,0.5,0.3,0.8,0.3h6.3c4,0,5.2-4.7,1.5-6.6l-6.1-3.2c-1.6-0.7-1.1-2.6,0.7-2.6h6.5c0.3,0,0.5-0.1,0.7-0.3
					c0.2-0.2,0.3-0.5,0.3-0.8c0-0.3-0.1-0.6-0.3-0.7c-0.2-0.2-0.5-0.3-0.8-0.3h-6.3c-4,0-5.4,4.7-1.4,6.6l5.9,3.1
					c1.5,0.8,1.2,2.7-0.6,2.7L141.9,41.2z M60.6,28.8H59c-0.9,0-1.8,0.2-2.6,0.7c-0.8,0.5-1.4,1.1-1.8,1.9c-0.4,0.8-0.7,1.8-0.6,2.7
					v8.2c0,0.3,0.1,0.6,0.3,0.8c0.4,0.4,1.1,0.4,1.5,0c0.2-0.2,0.3-0.5,0.3-0.8v-8.2c0-0.8,0.3-1.7,0.8-2.3c0.5-0.6,1.2-0.9,2.1-0.9
					h2.5c0.9,0,1.6,0.3,2.1,0.9c0.6,0.6,0.8,1.5,0.8,2.3v8.2c0,0.3,0.1,0.6,0.3,0.8c0.4,0.4,1.1,0.4,1.5,0c0.2-0.2,0.3-0.5,0.3-0.8
					v-8.2c0-0.9-0.2-1.9-0.6-2.7c-0.4-0.8-1-1.5-1.8-1.9c-0.8-0.5-1.7-0.7-2.6-0.7H60.6z M107.1,31c0.3,0,0.5-0.1,0.7-0.3
					c0.2-0.2,0.3-0.5,0.3-0.8c0-0.3-0.1-0.6-0.3-0.7c-0.2-0.2-0.5-0.3-0.8-0.3h-3.5c-0.9,0-1.8,0.2-2.6,0.7
					c-0.8,0.5-1.4,1.1-1.8,1.9c-0.4,0.8-0.7,1.8-0.6,2.7v8.2c0,0.3,0.1,0.6,0.3,0.8c0.2,0.2,0.5,0.3,0.7,0.3c0.3,0,0.6-0.1,0.8-0.3
					c0.2-0.2,0.3-0.5,0.3-0.8v-8.2c0-0.8,0.3-1.7,0.8-2.3c0.5-0.6,1.3-0.9,2.1-0.9H107.1z M117.9,25.6c0.3,0,0.5-0.1,0.7-0.3
					c0.2-0.2,0.3-0.5,0.3-0.8c0-0.3-0.1-0.5-0.3-0.7c-0.2-0.2-0.5-0.3-0.8-0.3h-1.6c-0.9,0-1.8,0.2-2.6,0.7
					c-0.8,0.5-1.4,1.1-1.8,1.9c-0.4,0.8-0.7,1.8-0.6,2.7v13.5c0,0.3,0.1,0.6,0.3,0.8c0.2,0.2,0.5,0.3,0.8,0.3c0.3,0,0.5-0.1,0.7-0.3
					c0.2-0.2,0.3-0.5,0.3-0.8V31h4.8c1.3,0,1.3-2,0-2h-4.8v-0.2c0-0.8,0.3-1.7,0.8-2.3c0.5-0.6,1.3-0.9,2.1-0.9H117.9z M163.1,41.2
					c0.3,0,0.5,0.1,0.7,0.3c0.2,0.2,0.3,0.5,0.3,0.8c0,0.3-0.1,0.6-0.3,0.7c-0.2,0.2-0.5,0.3-0.8,0.3h-2.7c-0.9,0-1.8-0.2-2.6-0.7
					c-0.7-0.5-1.3-1.1-1.8-1.9c-0.4-0.8-0.7-1.8-0.6-2.7V24.5c0-0.3,0.1-0.6,0.3-0.8c0.3-0.3,0.8-0.4,1.2-0.2s0.7,0.6,0.7,1v4.3h5.9
					c0.3,0,0.5,0.1,0.7,0.3c0.3,0.4,0.3,0.9,0,1.3c-0.2,0.2-0.4,0.3-0.7,0.3h-5.9V38c0,1,0.3,1.7,0.8,2.3c0.5,0.6,1.3,0.9,2.1,0.9
					H163.1z M78,41.2c0.3,0,0.5,0.1,0.7,0.3c0.2,0.2,0.3,0.5,0.3,0.8c0,0.3-0.1,0.5-0.3,0.7c-0.2,0.2-0.5,0.3-0.8,0.3h-2.7
					c-0.9,0-1.8-0.2-2.6-0.7c-0.7-0.5-1.3-1.1-1.8-1.9c-0.4-0.8-0.7-1.8-0.6-2.7V24.5c0-0.3,0.1-0.6,0.3-0.8
					c0.3-0.3,0.8-0.4,1.2-0.2c0.4,0.2,0.7,0.6,0.7,1v4.3h5.9c0.3,0,0.5,0.1,0.7,0.3c0.3,0.4,0.3,0.9,0,1.3c-0.2,0.2-0.4,0.3-0.7,0.3
					h-5.9V38c0,1,0.3,1.7,0.8,2.3c0.5,0.6,1.3,0.9,2.1,0.9H78z"/>
				
					<linearGradient id="Shape_2_" gradientUnits="userSpaceOnUse" x1="-238.6489" y1="319.282" x2="-237.8788" y2="320.1095" gradientTransform="matrix(25.2266 0 0 -26.7432 6032.5205 8583.0654)">
					<stop  offset="0" style="stop-color:#1994FF"/>
					<stop  offset="1" style="stop-color:#33FFBB"/>
				</linearGradient>
				<path id="Shape_1_" class="st2" d="M10.9,25.4c-0.2,0.1-0.5,0.2-0.8,0.1S9.6,25.3,9.5,25c-0.3-0.5-0.1-1.2,0.3-1.5l11.6-6.8
					c0.3-0.2,0.7-0.2,1.1,0L34,23.5c0.3,0.2,0.5,0.5,0.5,0.9l0,17.8c0,0.6-0.5,1.1-1.1,1.1H19.6c-0.6,0-1.1-0.5-1.1-1.1
					c0-0.6,0.5-1.1,1.1-1.1h12.8V25.1l-10.5-6.2L10.9,25.4z M13.3,32.4l8.1-4.7c0.2-0.1,0.5-0.2,0.8-0.1c0.3,0.1,0.5,0.3,0.6,0.5
					c0.3,0.5,0.1,1.2-0.4,1.5l-8.1,4.7l0,0L11.5,36v6.3c0,0.6-0.5,1.1-1.1,1.1s-1.1-0.5-1.1-1.1v-6.9c0-0.4,0.2-0.8,0.6-1h0
					L13.3,32.4L13.3,32.4L13.3,32.4z"/>
			</g>
		</g>
	</g>
</g>
</svg>
