<?xml version="1.0" encoding="utf-8"?>
<!-- Generator: Adobe Illustrator 25.3.0, SVG Export Plug-In . SVG Version: 6.00 Build 0)  -->
<svg version="1.1" id="Layer_1" xmlns="http://www.w3.org/2000/svg" xmlns:xlink="http://www.w3.org/1999/xlink" x="0px" y="0px"
	 viewBox="0 0 141.7 141.7" style="enable-background:new 0 0 141.7 141.7;" xml:space="preserve">
<style type="text/css">
	.st0{fill:#FFFFFF;}
	.st1{fill-rule:evenodd;clip-rule:evenodd;fill:#00B3F0;}
	.st2{fill-rule:evenodd;clip-rule:evenodd;fill:#0099D9;}
</style>
<rect x="0.1" y="-0.7" width="142.7" height="142.4"/>
<g>
	<g>
		<g>
			<path class="st0" d="M23.6,89.9c-2.2,0-4.2,0.9-5.7,2.4c-1.5,1.5-2.3,3.6-2.3,5.8v7.8c0,0.5,0.5,1,1,1c0.6,0,1-0.4,1-1v-7.8
				c0-1.7,0.6-3.3,1.7-4.5c1.1-1.2,2.6-1.8,4.3-1.8c1.6,0,3.1,0.7,4.2,1.8c1,1.1,1.6,2.8,1.6,4.5v7.8c0,0.5,0.4,1,1,1
				c0.6,0,1-0.4,1-1v-7.8c0-2.2-0.8-4.3-2.2-5.8C27.7,90.8,25.7,89.9,23.6,89.9z"/>
			<path class="st0" d="M50.2,98.5c0-2.3-0.9-4.4-2.5-6.1c-1.6-1.6-3.8-2.5-6.1-2.5c-2.3,0-4.4,0.9-6.1,2.5
				c-1.6,1.6-2.5,3.8-2.5,6.1c0,2.3,0.9,4.5,2.5,6.1c1.6,1.6,3.8,2.5,6.1,2.5c3.1,0,5.1-1.5,6.3-2.8c0.3-0.3,0.3-0.6,0.3-0.7
				c0-0.5-0.4-0.9-0.7-1c-0.3-0.1-0.6,0-0.9,0.2l0,0c-0.5,0.7-1.3,1.2-2.2,1.6c-0.9,0.4-1.8,0.6-2.8,0.6c-1.7,0-3.3-0.6-4.4-1.7
				c-1.1-1.1-1.8-2.4-2-4h14.1C49.8,99.5,50.2,99.1,50.2,98.5z M48.2,97.7H35.1c0.2-1.6,0.9-3,2-4.1c1.2-1.1,2.8-1.8,4.5-1.8
				c1.7,0,3.3,0.6,4.5,1.8C47.3,94.7,48.1,96.2,48.2,97.7z"/>
			<path class="st0" d="M74.9,98.4l6.6-6.6c0.2-0.2,0.3-0.5,0.3-0.8c0-0.2-0.1-0.5-0.3-0.6c-0.2-0.2-0.4-0.3-0.7-0.3
				c-0.3,0-0.5,0.1-0.7,0.3l-6.6,6.6l-6.6-6.6c-0.3-0.3-0.6-0.3-1-0.2c-0.1,0-0.1,0-0.2,0c-0.3,0-0.5,0.1-0.7,0.3l-6.6,6.6l-6.6-6.6
				c-0.4-0.4-1-0.4-1.4,0c-0.2,0.2-0.3,0.4-0.3,0.7c0,0.3,0.1,0.5,0.3,0.7l6.6,6.6l-6.8,6.8c-0.2,0.2-0.3,0.5-0.3,0.8
				c0,0.2,0.1,0.5,0.3,0.6c0.4,0.4,1,0.3,1.4,0l6.8-6.8l6.8,6.9c0.2,0.2,0.4,0.3,0.7,0.3c0,0,0.1,0,0.1,0c0.3,0,0.5-0.1,0.7-0.3
				l6.8-6.8l6.8,6.9c0.2,0.2,0.4,0.3,0.7,0.3c0.3,0,0.5-0.1,0.7-0.3c0.2-0.2,0.3-0.4,0.2-0.7c0-0.3-0.1-0.5-0.3-0.7L74.9,98.4z
				 M59.8,98.4l6.2-6.2l6.2,6.2l-6.2,6.2L59.8,98.4z"/>
			<path class="st0" d="M92.2,89.9c-1.4,0-2.8,0.3-4,1c-1,0.5-1.9,1.3-2.6,2.1v-8.2c0-0.6-0.4-1-1-1c-0.5,0-1,0.4-1,1v13.7
				c0,2.3,0.9,4.5,2.5,6.1c1.6,1.6,3.8,2.5,6.1,2.5c2.3,0,4.4-0.9,6.1-2.5c1.6-1.7,2.5-3.8,2.5-6.1c0-2.3-0.9-4.5-2.5-6.1
				C96.7,90.8,94.6,89.9,92.2,89.9z M92.2,105.2c-1.8,0-3.4-0.7-4.7-2c-1.3-1.3-1.9-2.9-1.9-4.7c0-1.8,0.7-3.5,1.9-4.7
				c1.2-1.2,2.9-1.9,4.7-1.9c1.8,0,3.5,0.7,4.7,1.9c0.6,0.6,1,1.3,1.4,2.1c0.3,0.8,0.5,1.7,0.5,2.6c0,1.8-0.7,3.4-1.9,4.7
				C95.7,104.5,94,105.2,92.2,105.2z"/>
			<path class="st0" d="M103.5,90.2c-0.5,0-1,0.4-1,1v14.8c0,0.5,0.5,1,1,1c0.5,0,1-0.4,1-1V91.2C104.4,90.6,104,90.2,103.5,90.2z"
				/>
			<path class="st0" d="M103.5,85.6c-0.7,0-1.2,0.5-1.2,1.2c0,0.3,0.1,0.6,0.4,0.9c0.2,0.2,0.5,0.4,0.9,0.4c0.7,0,1.3-0.5,1.3-1.2
				C104.7,86.2,104.2,85.6,103.5,85.6z"/>
			<path class="st0" d="M122.1,105h-12l12.4-13.1c0.2-0.2,0.3-0.4,0.3-0.7c0-0.3-0.1-0.5-0.3-0.7c-0.2-0.2-0.4-0.3-0.7-0.3h-13.6
				c-0.6,0-1,0.4-1,1c0,0.5,0.4,1,1,1h11.5l-12.4,13.2c-0.1,0.1-0.2,0.3-0.3,0.6c0,0.2,0,0.4,0.1,0.6c0.2,0.3,0.5,0.5,0.9,0.5h14.1
				c0.6,0,1-0.4,1-1C123.1,105.4,122.7,105,122.1,105z"/>
		</g>
	</g>
</g>
<g>
	<path class="st1" d="M61,82.4c-2.3-0.8-3.5-3.4-2.6-5.7c0.8-2.3,3.4-3.5,5.6-2.7c2.3,0.8,3.5,3.4,2.7,5.7
		C65.9,82,63.4,83.2,61,82.4z"/>
	<path class="st1" d="M50.9,75.1c-2.3-0.8-3.5-3.4-2.7-5.7c0.8-2.3,3.4-3.5,5.7-2.7c2.3,0.8,3.5,3.4,2.6,5.7
		C55.7,74.8,53.2,76,50.9,75.1z"/>
	<path class="st2" d="M68.1,62.9c2.3,0.9,3.5,3.4,2.7,5.7c-0.8,2.3-3.4,3.5-5.7,2.7c-2.3-0.8-3.5-3.4-2.7-5.7
		C63.3,63.2,65.8,62,68.1,62.9z"/>
	<path class="st1" d="M80,60.1c2.3,0.8,3.4,3.4,2.6,5.7c-0.8,2.3-3.4,3.5-5.7,2.7c-2.3-0.8-3.5-3.4-2.6-5.7
		C75.1,60.5,77.7,59.3,80,60.1z"/>
	<path class="st1" d="M60.2,52.9c2.3,0.8,3.4,3.4,2.6,5.7c-0.8,2.3-3.4,3.5-5.7,2.7c-2.3-0.8-3.5-3.4-2.6-5.7
		C55.3,53.2,57.9,52.1,60.2,52.9z"/>
	<path class="st2" d="M73.2,83.2c-2.3-0.8-3.5-3.4-2.7-5.7c0.9-2.3,3.4-3.5,5.8-2.6c2.3,0.8,3.4,3.4,2.6,5.7
		C78,82.9,75.5,84.1,73.2,83.2z"/>
	<path class="st1" d="M84.9,37.8c0.8-2.3,3.4-3.5,5.7-2.6c2.3,0.9,3.5,3.4,2.6,5.7c-0.9,2.3-3.4,3.5-5.7,2.6
		C85.3,42.6,84.1,40.1,84.9,37.8z"/>
	<path class="st1" d="M69.1,60c-2.3-0.8-3.5-3.4-2.6-5.7c0.8-2.3,3.4-3.5,5.7-2.7c2.3,0.8,3.5,3.4,2.7,5.7
		C74,59.7,71.5,60.9,69.1,60z"/>
	<path class="st2" d="M82.1,71.5c0.8-2.3,3.4-3.5,5.7-2.7c2.3,0.8,3.4,3.4,2.6,5.7c-0.8,2.3-3.4,3.5-5.7,2.7
		C82.5,76.4,81.2,73.8,82.1,71.5z"/>
	<path class="st1" d="M51.1,60.3c-0.8,2.3-3.4,3.5-5.7,2.7c-2.3-0.8-3.5-3.4-2.6-5.7c0.8-2.3,3.4-3.5,5.7-2.6
		C50.8,55.4,51.9,58,51.1,60.3z"/>
	<path class="st1" d="M97.4,64.1c-0.8,2.3-3.4,3.5-5.7,2.7c-2.3-0.8-3.5-3.4-2.6-5.7c0.8-2.3,3.4-3.5,5.7-2.7
		C97,59.2,98.2,61.8,97.4,64.1z"/>
	<path class="st2" d="M84.3,48.1c2.1,0.7,3.5,3.3,2.8,5.4c-0.8,2.4-3.2,3.7-5.6,3c-2.4-0.8-3.6-3.3-2.8-5.6
		C79.4,48.6,81.9,47.2,84.3,48.1z"/>
	<path class="st1" d="M98.5,52.2c-0.8,2.3-3.4,3.5-5.7,2.6c-2.3-0.8-3.4-3.4-2.6-5.7c0.8-2.3,3.4-3.5,5.7-2.6
		C98.2,47.4,99.3,49.9,98.5,52.2z"/>
	<path class="st2" d="M50.6,48.6c-0.6,1.6-2.4,2.4-4,1.8c-1.6-0.6-2.4-2.4-1.8-4c0.6-1.6,2.4-2.4,3.9-1.9
		C50.4,45.2,51.2,47,50.6,48.6z"/>
	<path class="st2" d="M60.1,44c0.6-1.6,2.4-2.4,3.9-1.8c1.6,0.6,2.5,2.4,1.9,4c-0.6,1.6-2.4,2.4-4,1.8C60.3,47.4,59.5,45.6,60.1,44z
		"/>
	<path class="st2" d="M53.8,38.5c-1.4-0.5-2.1-2-1.6-3.4c0.5-1.4,2-2.1,3.4-1.6c1.3,0.5,2.1,2,1.6,3.4C56.6,38.3,55.1,39,53.8,38.5z
		"/>
	<path class="st2" d="M72.3,42.4c0.4-1.4,1.9-2.1,3.3-1.7c1.3,0.4,2.1,1.9,1.7,3.2c-0.5,1.4-1.9,2.2-3.4,1.7
		C72.5,45.3,71.8,43.8,72.3,42.4z"/>
	<path class="st2" d="M65.8,33c-1-0.3-1.5-1.5-1.2-2.5c0.4-1.1,1.5-1.6,2.6-1.3c1.1,0.4,1.6,1.5,1.3,2.6C68.1,32.9,67,33.4,65.8,33z
		"/>
	<path class="st1" d="M79.1,30.6c0.8,0.3,1.3,1.3,1,2.1c-0.3,0.9-1.3,1.3-2.2,1c-0.8-0.3-1.3-1.3-1-2.1
		C77.2,30.7,78.2,30.3,79.1,30.6z"/>
</g>
</svg>
