<svg id="Layer_1" data-name="Layer 1" xmlns="http://www.w3.org/2000/svg" xmlns:xlink="http://www.w3.org/1999/xlink" viewBox="0 0 163.09 163.09"><defs><style>.cls-1{fill:#fff;}.cls-2{fill:#151619;}.cls-3{fill:url(#linear-gradient);}.cls-4{fill:url(#linear-gradient-3);}</style><linearGradient id="linear-gradient" x1="-665.7" y1="-407.46" x2="-614.83" y2="-452.09" gradientTransform="translate(721.92 489.06)" gradientUnits="userSpaceOnUse"><stop offset="0" stop-color="#78c6a5"/><stop offset="1" stop-color="#0cf27f"/></linearGradient><linearGradient id="linear-gradient-3" x1="-679.83" y1="-415.35" x2="-601.17" y2="-415.35" xlink:href="#linear-gradient"/></defs><title>Esla_vector</title><rect class="cls-1" width="163.09" height="163.09"/><path class="cls-2" d="M92.86,95.44a32.54,32.54,0,0,1,3.41-2.55A30,30,0,0,0,92.86,95.44ZM75.3,101.83a19.67,19.67,0,0,0-1.59-2.43A22.27,22.27,0,0,1,75.3,101.83Z"/><path class="cls-2" d="M111.53,34.75h-60a16.8,16.8,0,0,0-16.8,16.8v60a16.81,16.81,0,0,0,16.8,16.8h60a16.81,16.81,0,0,0,16.81-16.8v-60A16.79,16.79,0,0,0,111.53,34.75ZM77,116.65H53.23A11.15,11.15,0,0,1,42.09,105.5V79l.68.69c.21.23.46.46.7.69.48.46,1,.9,1.5,1.34s1.08.87,1.65,1.29c.29.21.57.42.87.62l.68.46c.69.45,1.42.89,2.16,1.31A31.64,31.64,0,0,0,53.52,87c.75.34,1.52.64,2.32.94.4.15.81.29,1.23.43a42.76,42.76,0,0,1,8.58,3.9c.67.41,1.31.83,1.91,1.25a28.57,28.57,0,0,1,3.88,3.26,26,26,0,0,1,2.27,2.59h0a19.67,19.67,0,0,1,1.59,2.43h0c.22.39.4.76.58,1.13.24.54.45,1.06.61,1.53.1.32.2.62.27.9h0c.06.27.11.53.15.76s0,.24,0,.34Zm0-27A44.94,44.94,0,0,0,59.9,79.91,26.45,26.45,0,0,1,42.09,61V56.74A11.16,11.16,0,0,1,53.23,45.59H77Zm43.81,15.86A11.19,11.19,0,0,1,113.39,116a10.93,10.93,0,0,1-3.76.66H85.9V106.46c.21-1.95,1.63-5.79,5.56-9.71.44-.44.9-.87,1.4-1.31a30,30,0,0,1,3.41-2.55l1-.62c.68-.41,1.39-.81,2.14-1.2s1.55-.76,2.38-1.13,1.71-.72,2.62-1.06l1.4-.49L107,88c.68-.24,1.34-.51,2-.8.24-.09.46-.19.69-.3.62-.27,1.23-.57,1.81-.87s1.38-.75,2-1.14,1.26-.79,1.85-1.2c.3-.2.58-.41.87-.62q.85-.63,1.65-1.29A35.8,35.8,0,0,0,120.76,79Zm0-44.47A26.49,26.49,0,0,1,103,79.91,45.07,45.07,0,0,0,85.9,89.64v-44h23.73a11.16,11.16,0,0,1,11.13,11.15Z"/><path class="cls-2" d="M96.27,92.89a32.54,32.54,0,0,0-3.41,2.55A30,30,0,0,1,96.27,92.89Z"/><path class="cls-2" d="M75.3,101.83a22.27,22.27,0,0,0-1.59-2.43A19.67,19.67,0,0,1,75.3,101.83Z"/><path class="cls-2" d="M77,45.59V89.64A44.94,44.94,0,0,0,59.9,79.91,26.45,26.45,0,0,1,42.09,61V56.74A11.16,11.16,0,0,1,53.23,45.59Z"/><path class="cls-2" d="M120.76,56.74V61A26.49,26.49,0,0,1,103,79.91,45.07,45.07,0,0,0,85.9,89.64v-44h23.73A11.16,11.16,0,0,1,120.76,56.74Z"/><path class="cls-3" d="M77,45.59V89.64A44.94,44.94,0,0,0,59.9,79.91,26.45,26.45,0,0,1,42.09,61V56.74A11.16,11.16,0,0,1,53.23,45.59Z"/><path class="cls-3" d="M120.76,56.74V61A26.49,26.49,0,0,1,103,79.91,45.07,45.07,0,0,0,85.9,89.64v-44h23.73A11.16,11.16,0,0,1,120.76,56.74Z"/><path class="cls-4" d="M96.27,92.89a32.54,32.54,0,0,0-3.41,2.55A30,30,0,0,1,96.27,92.89Z"/><path class="cls-4" d="M75.3,101.83a22.27,22.27,0,0,0-1.59-2.43A19.67,19.67,0,0,1,75.3,101.83Z"/><path class="cls-4" d="M77,45.59V89.64A44.94,44.94,0,0,0,59.9,79.91,26.45,26.45,0,0,1,42.09,61V56.74A11.16,11.16,0,0,1,53.23,45.59Z"/><path class="cls-4" d="M120.76,56.74V61A26.49,26.49,0,0,1,103,79.91,45.07,45.07,0,0,0,85.9,89.64v-44h23.73A11.16,11.16,0,0,1,120.76,56.74Z"/><path class="cls-4" d="M77,45.59V89.64A44.94,44.94,0,0,0,59.9,79.91,26.45,26.45,0,0,1,42.09,61V56.74A11.16,11.16,0,0,1,53.23,45.59Z"/><path class="cls-4" d="M120.76,56.74V61A26.49,26.49,0,0,1,103,79.91,45.07,45.07,0,0,0,85.9,89.64v-44h23.73A11.16,11.16,0,0,1,120.76,56.74Z"/><path class="cls-4" d="M77,45.59V89.64A44.94,44.94,0,0,0,59.9,79.91,26.45,26.45,0,0,1,42.09,61V56.74A11.16,11.16,0,0,1,53.23,45.59Z"/><path class="cls-4" d="M120.76,56.74V61A26.49,26.49,0,0,1,103,79.91,45.07,45.07,0,0,0,85.9,89.64v-44h23.73A11.16,11.16,0,0,1,120.76,56.74Z"/></svg>