<svg id="Layer_1" data-name="Layer 1" xmlns="http://www.w3.org/2000/svg" xmlns:xlink="http://www.w3.org/1999/xlink" viewBox="0 0 346.21 148.26"><defs><style>.cls-1{fill:url(#linear-gradient);}.cls-2{fill:#fff;}</style><linearGradient id="linear-gradient" y1="74.13" x2="346.21" y2="74.13" gradientUnits="userSpaceOnUse"><stop offset="0" stop-color="#78c6a5"/><stop offset="1" stop-color="#0cf27f"/></linearGradient></defs><title>Esla_vector</title><rect class="cls-1" width="346.21" height="148.26"/><path class="cls-2" d="M83.86,88a34,34,0,0,1,3.41-2.56A31.23,31.23,0,0,0,83.86,88ZM66.3,94.42A18.78,18.78,0,0,0,64.7,92,21.11,21.11,0,0,1,66.3,94.42Z"/><path class="cls-2" d="M102.53,27.34h-60a16.79,16.79,0,0,0-16.8,16.8v60a16.8,16.8,0,0,0,16.8,16.8h60a16.81,16.81,0,0,0,16.81-16.8v-60A16.8,16.8,0,0,0,102.53,27.34ZM68,109.23H44.23A11.12,11.12,0,0,1,33.09,98.09V71.61l.68.69c.21.22.46.46.69.68.48.47,1,.91,1.51,1.35s1.07.87,1.65,1.29c.28.21.57.42.87.62l.68.46c.69.45,1.41.89,2.16,1.31a33.89,33.89,0,0,0,3.19,1.6c.74.34,1.52.64,2.32.94.4.15.81.29,1.23.43a42.76,42.76,0,0,1,8.58,3.9c.67.41,1.31.83,1.91,1.25a28.54,28.54,0,0,1,3.88,3.25A24.59,24.59,0,0,1,64.7,92h0a18.78,18.78,0,0,1,1.6,2.44h0c.22.39.4.76.57,1.13.25.54.45,1.06.62,1.53.1.32.19.62.26.89h0c.07.28.12.54.16.77s0,.24,0,.34Zm0-27A44.86,44.86,0,0,0,50.89,72.5a26.47,26.47,0,0,1-17.8-18.89V49.33A11.15,11.15,0,0,1,44.23,38.18H68Zm43.8,15.86a11.17,11.17,0,0,1-7.37,10.49,10.83,10.83,0,0,1-3.75.65H76.9V99.05c.21-2,1.62-5.8,5.55-9.71.44-.44.91-.87,1.41-1.31a31.23,31.23,0,0,1,3.41-2.56l1-.61c.67-.41,1.39-.81,2.14-1.2s1.54-.77,2.37-1.13,1.71-.72,2.62-1.06L96.79,81c.41-.14.82-.28,1.21-.43.69-.25,1.35-.51,2-.8a6.07,6.07,0,0,0,.69-.31c.62-.26,1.22-.56,1.81-.87s1.38-.74,2-1.13,1.25-.79,1.85-1.2l.87-.62c.57-.42,1.11-.85,1.65-1.29a37.48,37.48,0,0,0,2.87-2.72Zm0-44.47A26.46,26.46,0,0,1,94,72.5,44.86,44.86,0,0,0,76.9,82.23V38.18h23.73a11.14,11.14,0,0,1,11.12,11.15Z"/><path class="cls-2" d="M163.35,53.56a24.49,24.49,0,0,1,17.45,7.09,24.21,24.21,0,0,1,5.14,7.62,23.25,23.25,0,0,1,1.87,9.23c0,.63,0,1.3-.09,2s-.14,1.36-.26,2H152.2a12.78,12.78,0,0,0,4,5.64,10.82,10.82,0,0,0,7.19,2.37,16.19,16.19,0,0,0,6.13-1.22,10.73,10.73,0,0,0,4.57-3.22l10.54,6.46a21.6,21.6,0,0,1-4.09,4.07,26.18,26.18,0,0,1-5.14,3.07,30.56,30.56,0,0,1-5.83,2,28,28,0,0,1-6.18.7,25.75,25.75,0,0,1-9.8-1.87,24.38,24.38,0,0,1-13.23-12.76,22.78,22.78,0,0,1,0-18.58,24.42,24.42,0,0,1,5.4-7.62,25.75,25.75,0,0,1,7.92-5.09A25,25,0,0,1,163.35,53.56Zm0,11.83a10.65,10.65,0,0,0-6.66,2.09,13.64,13.64,0,0,0-4.14,5h21.59a12.68,12.68,0,0,0-4.09-5A10.87,10.87,0,0,0,163.35,65.39Z"/><path class="cls-2" d="M203.82,38.67V99.61h-13V38.67Z"/><path class="cls-2" d="M229.24,71.66c2.15.53,4.36,1.13,6.62,1.83A25.51,25.51,0,0,1,242,76.28a15.63,15.63,0,0,1,4.52,4.31A10.92,10.92,0,0,1,248.31,87a11.27,11.27,0,0,1-2,6.84,15.41,15.41,0,0,1-5,4.44,22.19,22.19,0,0,1-6.75,2.39,38.34,38.34,0,0,1-7.18.7,23.38,23.38,0,0,1-12.06-3.09,26.77,26.77,0,0,1-8.92-8.75l11.32-6A11.66,11.66,0,0,0,222.24,88a11.78,11.78,0,0,0,5.61,1.52,19.51,19.51,0,0,0,5.79-.61c1.19-.41,1.78-1,1.78-1.65s-.39-1.09-1.17-1.53a17.94,17.94,0,0,0-2.7-1.17,24.14,24.14,0,0,0-3-.83c-1-.2-1.69-.33-2.09-.39a60.49,60.49,0,0,1-6.36-1.61,23.43,23.43,0,0,1-5.83-2.7A15.21,15.21,0,0,1,210,74.84a10.62,10.62,0,0,1-1.7-6.14,13.11,13.11,0,0,1,1.61-6.57,15,15,0,0,1,4.23-4.74,18.54,18.54,0,0,1,6-2.88,25,25,0,0,1,6.83-.95,23.72,23.72,0,0,1,11.71,3,27,27,0,0,1,9,8.09l-10.53,6.62a12.16,12.16,0,0,0-4.57-4.44,11.12,11.12,0,0,0-5.18-1.4,10.77,10.77,0,0,0-4.53.79c-1.1.52-1.65,1.19-1.65,2,0,.35.26.68.78,1a13.82,13.82,0,0,0,2,1,22.15,22.15,0,0,0,2.61.87C227.46,71.27,228.37,71.49,229.24,71.66Z"/><path class="cls-2" d="M299.49,55.3V99.61H286.44V96.09a24.37,24.37,0,0,1-6.1,3.81,17.06,17.06,0,0,1-7,1.45,23.8,23.8,0,0,1-17-7,24.65,24.65,0,0,1-5.09-7.62,23,23,0,0,1-1.87-9.22,23.28,23.28,0,0,1,1.91-9.36,24.31,24.31,0,0,1,5.18-7.62,24.59,24.59,0,0,1,7.62-5.09,23.08,23.08,0,0,1,9.23-1.87,17.21,17.21,0,0,1,7,1.43,26.15,26.15,0,0,1,6.1,3.7V55.3ZM274.77,89.51a11.81,11.81,0,0,0,4.66-1A12.73,12.73,0,0,0,283.3,86a11.9,11.9,0,0,0,2.61-3.82,12,12,0,0,0-2.61-13.27,12.73,12.73,0,0,0-3.87-2.56,11.64,11.64,0,0,0-4.66-1,11.81,11.81,0,0,0-4.74,1,12.19,12.19,0,0,0-3.83,2.56,12,12,0,0,0-2.57,3.82,12.11,12.11,0,0,0,0,9.45,11.9,11.9,0,0,0,6.4,6.38A12,12,0,0,0,274.77,89.51Z"/><path class="cls-2" d="M312.72,101.35a7.34,7.34,0,0,1-5.44-2.27,7.87,7.87,0,0,1,0-11,7.34,7.34,0,0,1,5.44-2.27,7.75,7.75,0,1,1,0,15.5Z"/></svg>