<svg id="Layer_1" data-name="Layer 1" xmlns="http://www.w3.org/2000/svg" xmlns:xlink="http://www.w3.org/1999/xlink" viewBox="0 0 163.09 163.09"><defs><style>.cls-1{fill:url(#linear-gradient);}.cls-2{fill:#fff;}</style><linearGradient id="linear-gradient" y1="81.54" x2="163.09" y2="81.54" gradientUnits="userSpaceOnUse"><stop offset="0" stop-color="#78c6a5"/><stop offset="1" stop-color="#0cf27f"/></linearGradient></defs><title>Esla_vector</title><rect class="cls-1" width="163.09" height="163.09"/><path class="cls-2" d="M88.22,93.78a34,34,0,0,1,3.41-2.56A31.23,31.23,0,0,0,88.22,93.78Zm-17.56,6.39a18.78,18.78,0,0,0-1.6-2.44A21.11,21.11,0,0,1,70.66,100.17Z"/><path class="cls-2" d="M106.89,33.09h-60A16.8,16.8,0,0,0,30.1,49.88v60a16.8,16.8,0,0,0,16.8,16.8h60a16.81,16.81,0,0,0,16.81-16.8v-60A16.8,16.8,0,0,0,106.89,33.09ZM72.31,115H48.59a11.12,11.12,0,0,1-11.14-11.15V77.36l.68.69c.21.22.46.46.69.68.48.46,1,.9,1.51,1.34s1.07.87,1.65,1.29c.28.22.57.42.87.63l.68.46c.69.45,1.41.89,2.16,1.31,1,.57,2.06,1.1,3.19,1.6.74.33,1.52.64,2.32.94.4.15.81.28,1.23.43A41.68,41.68,0,0,1,61,90.63c.67.41,1.31.83,1.91,1.25a28.54,28.54,0,0,1,3.88,3.25,24.59,24.59,0,0,1,2.26,2.59h0a18.78,18.78,0,0,1,1.6,2.44h0c.22.39.4.76.57,1.13.25.54.45,1.06.62,1.53.1.32.19.62.26.89h0c.07.28.12.53.16.77s0,.24,0,.34Zm0-27a44.86,44.86,0,0,0-17.06-9.73,26.48,26.48,0,0,1-17.8-18.9V55.07A11.15,11.15,0,0,1,48.59,43.93H72.31Zm43.8,15.85a11.18,11.18,0,0,1-7.37,10.5A10.83,10.83,0,0,1,105,115H81.26V104.8c.21-2,1.62-5.8,5.55-9.71.44-.44.91-.87,1.41-1.31a31.23,31.23,0,0,1,3.41-2.56l1-.61c.67-.41,1.39-.81,2.14-1.2s1.54-.77,2.37-1.14,1.71-.71,2.62-1l1.41-.49c.41-.15.82-.28,1.21-.43.69-.25,1.35-.51,2-.8.24-.09.46-.2.69-.31.62-.26,1.23-.56,1.81-.87s1.38-.75,2-1.13,1.25-.79,1.85-1.2l.87-.63c.57-.42,1.11-.85,1.65-1.29a37.4,37.4,0,0,0,2.87-2.71Zm0-44.47A26.45,26.45,0,0,1,98.32,78.25,44.86,44.86,0,0,0,81.26,88V43.93H105a11.14,11.14,0,0,1,11.12,11.14Z"/></svg>