<svg id="Layer_1" data-name="Layer 1" xmlns="http://www.w3.org/2000/svg" xmlns:xlink="http://www.w3.org/1999/xlink" viewBox="0 0 346.21 148.26"><defs><style>.cls-1{fill:#151619;}.cls-2{fill:#fff;}.cls-3{fill:url(#linear-gradient);}.cls-4{fill:url(#linear-gradient-3);}</style><linearGradient id="linear-gradient" x1="-1065.16" y1="-39.96" x2="-1014.29" y2="-84.6" gradientTransform="translate(1112.38 114.15)" gradientUnits="userSpaceOnUse"><stop offset="0" stop-color="#78c6a5"/><stop offset="1" stop-color="#0cf27f"/></linearGradient><linearGradient id="linear-gradient-3" x1="-1079.29" y1="359.66" x2="-1000.63" y2="359.66" gradientTransform="translate(1112.38 -293.36)" xlink:href="#linear-gradient"/></defs><title>Esla_vector</title><rect class="cls-1" width="346.21" height="148.26"/><path class="cls-1" d="M85.46,86.74c.57-.42,1.18-.84,1.81-1.26C86.64,85.89,86,86.31,85.46,86.74Z"/><path class="cls-1" d="M102.53,27.34h-60a16.8,16.8,0,0,0-16.8,16.8v60a16.81,16.81,0,0,0,16.8,16.8h60a16.81,16.81,0,0,0,16.81-16.8v-60A16.79,16.79,0,0,0,102.53,27.34ZM68,109.24H44.23A11.15,11.15,0,0,1,33.09,98.09V71.61l.68.69c.21.23.46.46.69.69.48.46,1,.9,1.51,1.34s1.07.87,1.65,1.29c.28.21.57.42.87.62l.68.46c.69.45,1.42.89,2.16,1.31a31.64,31.64,0,0,0,3.19,1.6c.74.34,1.52.64,2.32.94.4.15.81.29,1.23.43a42.76,42.76,0,0,1,8.58,3.9c.67.41,1.31.83,1.91,1.25a28.57,28.57,0,0,1,3.88,3.26A24.59,24.59,0,0,1,64.7,92h0c.32.42.61.83.88,1.24s.5.8.72,1.19h0c.22.39.4.76.57,1.13.25.54.45,1.06.62,1.53.1.32.19.62.26.9h0c.07.27.12.53.16.76s0,.24,0,.34Zm0-27A45,45,0,0,0,50.89,72.5a26.45,26.45,0,0,1-17.8-18.89V49.33A11.16,11.16,0,0,1,44.23,38.18H68Zm43.8,15.86a11.17,11.17,0,0,1-7.37,10.49,10.83,10.83,0,0,1-3.75.66H76.9V99.05c.21-2,1.62-5.79,5.56-9.71.44-.44.9-.87,1.4-1.31s1-.87,1.6-1.29,1.18-.85,1.81-1.26c.31-.21.65-.41,1-.62.68-.41,1.39-.81,2.14-1.2s1.54-.76,2.37-1.13,1.71-.72,2.62-1.06L96.79,81,98,80.55c.68-.24,1.34-.51,2-.8.24-.09.46-.19.69-.3.62-.27,1.23-.57,1.81-.87s1.38-.75,2-1.14,1.26-.79,1.85-1.2c.3-.2.58-.41.87-.62.57-.42,1.11-.85,1.65-1.29a35.63,35.63,0,0,0,2.87-2.72Zm0-44.47A26.45,26.45,0,0,1,94,72.5,45.07,45.07,0,0,0,76.9,82.23V38.18h23.73a11.15,11.15,0,0,1,11.12,11.15Z"/><path class="cls-2" d="M111.75,71.61V98.09a11.17,11.17,0,0,1-7.37,10.49,10.83,10.83,0,0,1-3.75.66H76.9V99.05c.21-2,1.62-5.79,5.56-9.71.44-.44.9-.87,1.4-1.31s1-.86,1.6-1.29,1.18-.84,1.81-1.26c.31-.21.65-.41,1-.62.68-.41,1.39-.81,2.14-1.2s1.54-.76,2.37-1.13,1.71-.72,2.62-1.06L96.79,81,98,80.55c.68-.24,1.34-.51,2-.8.24-.09.46-.19.69-.3.62-.27,1.23-.57,1.81-.87s1.38-.75,2-1.14,1.26-.79,1.85-1.2c.3-.2.58-.41.87-.62.57-.42,1.11-.85,1.65-1.29A35.63,35.63,0,0,0,111.75,71.61Z"/><path class="cls-2" d="M68,99.1v10.14H44.23A11.15,11.15,0,0,1,33.09,98.09V71.61l.68.69c.21.23.46.46.69.69.48.46,1,.9,1.51,1.34s1.07.87,1.65,1.29c.28.21.57.42.87.62l.68.46c.69.45,1.42.89,2.16,1.31a31.64,31.64,0,0,0,3.19,1.6c.74.34,1.52.64,2.32.94.4.15.81.29,1.23.43a42.76,42.76,0,0,1,8.58,3.9c.67.41,1.31.83,1.91,1.25a28.57,28.57,0,0,1,3.88,3.26A24.59,24.59,0,0,1,64.7,92h0c.32.42.61.83.88,1.24s.5.8.72,1.19h0c.22.39.4.76.57,1.13.25.54.45,1.06.62,1.53.1.32.19.62.26.9h0c.07.27.12.53.16.76S67.94,99,68,99.1Z"/><path class="cls-1" d="M83.86,88c.5-.43,1-.87,1.6-1.29C84.9,87.17,84.36,87.6,83.86,88Z"/><path class="cls-1" d="M87.27,85.48c-.63.42-1.24.84-1.81,1.26C86,86.31,86.64,85.89,87.27,85.48Z"/><path class="cls-1" d="M66.3,94.42c-.22-.39-.46-.79-.72-1.19C65.85,93.63,66.08,94,66.3,94.42Z"/><path class="cls-1" d="M68,38.18V82.23A44.86,44.86,0,0,0,50.89,72.5a26.48,26.48,0,0,1-17.8-18.9V49.32A11.15,11.15,0,0,1,44.23,38.18Z"/><path class="cls-1" d="M111.75,49.32v4.29A26.47,26.47,0,0,1,94,72.5,44.94,44.94,0,0,0,76.9,82.23V38.18h23.73A11.14,11.14,0,0,1,111.75,49.32Z"/><path class="cls-3" d="M68,38.18V82.23A44.86,44.86,0,0,0,50.89,72.5a26.48,26.48,0,0,1-17.8-18.9V49.32A11.15,11.15,0,0,1,44.23,38.18Z"/><path class="cls-3" d="M111.75,49.32v4.29A26.47,26.47,0,0,1,94,72.5,44.94,44.94,0,0,0,76.9,82.23V38.18h23.73A11.14,11.14,0,0,1,111.75,49.32Z"/><path class="cls-4" d="M83.86,88c.5-.43,1-.87,1.6-1.29C84.9,87.17,84.36,87.6,83.86,88Z"/><path class="cls-4" d="M87.27,85.48c-.63.42-1.24.84-1.81,1.26C86,86.31,86.64,85.89,87.27,85.48Z"/><path class="cls-4" d="M66.3,94.42c-.22-.39-.46-.79-.72-1.19C65.85,93.63,66.08,94,66.3,94.42Z"/><path class="cls-4" d="M68,38.18V82.23A44.86,44.86,0,0,0,50.89,72.5a26.48,26.48,0,0,1-17.8-18.9V49.32A11.15,11.15,0,0,1,44.23,38.18Z"/><path class="cls-4" d="M111.75,49.32v4.29A26.47,26.47,0,0,1,94,72.5,44.94,44.94,0,0,0,76.9,82.23V38.18h23.73A11.14,11.14,0,0,1,111.75,49.32Z"/><path class="cls-4" d="M68,38.18V82.23A44.86,44.86,0,0,0,50.89,72.5a26.48,26.48,0,0,1-17.8-18.9V49.32A11.15,11.15,0,0,1,44.23,38.18Z"/><path class="cls-4" d="M111.75,49.32v4.29A26.47,26.47,0,0,1,94,72.5,44.94,44.94,0,0,0,76.9,82.23V38.18h23.73A11.14,11.14,0,0,1,111.75,49.32Z"/><path class="cls-4" d="M68,38.18V82.23A44.86,44.86,0,0,0,50.89,72.5a26.48,26.48,0,0,1-17.8-18.9V49.32A11.15,11.15,0,0,1,44.23,38.18Z"/><path class="cls-4" d="M111.75,49.32v4.29A26.47,26.47,0,0,1,94,72.5,44.94,44.94,0,0,0,76.9,82.23V38.18h23.73A11.14,11.14,0,0,1,111.75,49.32Z"/><path class="cls-2" d="M163.35,53.55a24.55,24.55,0,0,1,17.45,7.1,24,24,0,0,1,5.14,7.62,23.2,23.2,0,0,1,1.87,9.22q0,1-.09,2c-.06.69-.14,1.36-.26,2H152.2a12.73,12.73,0,0,0,4,5.64,10.77,10.77,0,0,0,7.18,2.37,16.19,16.19,0,0,0,6.13-1.22,10.81,10.81,0,0,0,4.57-3.22l10.54,6.45a22,22,0,0,1-4.09,4.08,26.68,26.68,0,0,1-5.14,3.07,29.86,29.86,0,0,1-5.83,2,27.31,27.31,0,0,1-6.18.71,25.57,25.57,0,0,1-9.8-1.88,24.32,24.32,0,0,1-13.23-12.75,22.76,22.76,0,0,1,.05-18.59,24.19,24.19,0,0,1,5.39-7.61,25.56,25.56,0,0,1,7.92-5.09A25,25,0,0,1,163.35,53.55Zm0,11.84a10.69,10.69,0,0,0-6.66,2.09,13.56,13.56,0,0,0-4.14,5h21.59a12.62,12.62,0,0,0-4.09-5A10.87,10.87,0,0,0,163.35,65.39Z"/><path class="cls-2" d="M203.83,38.67V99.6H190.77V38.67Z"/><path class="cls-2" d="M229.24,71.66q3.22.78,6.62,1.83A25.11,25.11,0,0,1,242,76.27a15.9,15.9,0,0,1,4.52,4.31,11,11,0,0,1,1.79,6.4,11.28,11.28,0,0,1-2,6.83,15.54,15.54,0,0,1-5.05,4.44,22.2,22.2,0,0,1-6.75,2.4,39.2,39.2,0,0,1-7.18.7,23.38,23.38,0,0,1-12.06-3.1,26.64,26.64,0,0,1-8.92-8.74l11.32-6a12.13,12.13,0,0,0,10.18,6,19.85,19.85,0,0,0,5.79-.61c1.19-.41,1.78-1,1.78-1.66s-.39-1.09-1.17-1.52a16.2,16.2,0,0,0-2.7-1.18,25.91,25.91,0,0,0-3-.82c-1-.21-1.69-.34-2.09-.39a60.58,60.58,0,0,1-6.36-1.62A23.22,23.22,0,0,1,214.27,79,15.34,15.34,0,0,1,210,74.84a10.65,10.65,0,0,1-1.7-6.14,13.08,13.08,0,0,1,1.61-6.57,15.18,15.18,0,0,1,4.23-4.75,18.73,18.73,0,0,1,6-2.87,24.66,24.66,0,0,1,6.83-1,23.83,23.83,0,0,1,11.71,3,27.13,27.13,0,0,1,9,8.1l-10.53,6.62a12,12,0,0,0-4.57-4.44,11.12,11.12,0,0,0-5.18-1.4,10.61,10.61,0,0,0-4.53.79c-1.1.52-1.65,1.19-1.65,2,0,.35.26.68.78,1a13.82,13.82,0,0,0,2,1,22.15,22.15,0,0,0,2.61.87C227.46,71.27,228.37,71.49,229.24,71.66Z"/><path class="cls-2" d="M299.49,55.29V99.6H286.44V96.08a24.7,24.7,0,0,1-6.1,3.82,17.22,17.22,0,0,1-7,1.45,23.91,23.91,0,0,1-17-7,24.77,24.77,0,0,1-5.09-7.62,23.08,23.08,0,0,1-1.87-9.23,23.32,23.32,0,0,1,1.91-9.36,24.05,24.05,0,0,1,12.8-12.7,23.09,23.09,0,0,1,9.23-1.88,17.22,17.22,0,0,1,7,1.44,26.15,26.15,0,0,1,6.1,3.7v-3.4ZM274.77,89.51a11.61,11.61,0,0,0,4.66-1A12.55,12.55,0,0,0,283.3,86a12,12,0,0,0,0-17.08,12.55,12.55,0,0,0-3.87-2.56,11.61,11.61,0,0,0-4.66-1,11.81,11.81,0,0,0-4.74,1,11.93,11.93,0,0,0-6.4,6.37,12.13,12.13,0,0,0,0,9.46,11.93,11.93,0,0,0,6.4,6.37A11.81,11.81,0,0,0,274.77,89.51Z"/><path class="cls-2" d="M312.72,101.35a7.34,7.34,0,0,1-5.44-2.27,7.89,7.89,0,0,1,0-11,7.33,7.33,0,0,1,5.44-2.26,7.75,7.75,0,1,1,0,15.5Z"/></svg>