<svg id="Layer_1" data-name="Layer 1" xmlns="http://www.w3.org/2000/svg" xmlns:xlink="http://www.w3.org/1999/xlink" viewBox="0 0 163.09 163.09"><defs><style>.cls-1{fill:#151619;}.cls-2{fill:#fff;}.cls-3{fill:url(#linear-gradient);}.cls-4{fill:url(#linear-gradient-3);}</style><linearGradient id="linear-gradient" x1="-848.82" y1="-407.46" x2="-797.96" y2="-452.09" gradientTransform="translate(905.05 489.06)" gradientUnits="userSpaceOnUse"><stop offset="0" stop-color="#78c6a5"/><stop offset="1" stop-color="#0cf27f"/></linearGradient><linearGradient id="linear-gradient-3" x1="-862.96" y1="-7.83" x2="-784.3" y2="-7.83" gradientTransform="translate(905.05 81.54)" xlink:href="#linear-gradient"/></defs><title>Esla_vector</title><rect class="cls-1" width="163.09" height="163.09"/><path class="cls-1" d="M94.46,94.15c.57-.42,1.18-.84,1.81-1.26C95.64,93.3,95,93.72,94.46,94.15Z"/><path class="cls-1" d="M111.53,34.75h-60a16.8,16.8,0,0,0-16.8,16.8v60a16.81,16.81,0,0,0,16.8,16.8h60a16.81,16.81,0,0,0,16.81-16.8v-60A16.79,16.79,0,0,0,111.53,34.75ZM77,116.65H53.23A11.15,11.15,0,0,1,42.09,105.5V79l.68.69c.21.23.46.46.69.69.48.46,1,.9,1.51,1.34S46,82.61,46.62,83c.28.21.57.42.87.62l.68.46c.69.45,1.42.89,2.16,1.31A31.64,31.64,0,0,0,53.52,87c.74.34,1.52.64,2.32.94.4.15.81.29,1.23.43a42.76,42.76,0,0,1,8.58,3.9c.67.41,1.31.83,1.91,1.25a28.57,28.57,0,0,1,3.88,3.26,24.59,24.59,0,0,1,2.26,2.59h0c.32.42.61.83.88,1.24s.5.8.72,1.19h0c.22.39.4.76.57,1.13.25.54.45,1.06.62,1.53.1.32.19.62.26.9h0c.07.27.12.53.16.76s0,.24,0,.34Zm0-27a45,45,0,0,0-17.06-9.73A26.45,26.45,0,0,1,42.09,61V56.74A11.16,11.16,0,0,1,53.23,45.59H77Zm43.8,15.86A11.17,11.17,0,0,1,113.38,116a10.83,10.83,0,0,1-3.75.66H85.9V106.46c.21-1.95,1.62-5.79,5.56-9.71.44-.44.9-.87,1.4-1.31s1-.87,1.6-1.29,1.18-.85,1.81-1.26c.31-.21.65-.41,1-.62.68-.41,1.39-.81,2.14-1.2s1.54-.76,2.37-1.13,1.71-.72,2.62-1.06l1.41-.49L107,88c.68-.24,1.34-.51,2-.8.24-.09.46-.19.69-.3.62-.27,1.23-.57,1.81-.87s1.38-.75,2-1.14,1.26-.79,1.85-1.2c.3-.2.58-.41.87-.62.57-.42,1.11-.85,1.65-1.29A35.63,35.63,0,0,0,120.75,79Zm0-44.47A26.45,26.45,0,0,1,103,79.91,45.07,45.07,0,0,0,85.9,89.64v-44h23.73a11.15,11.15,0,0,1,11.12,11.15Z"/><path class="cls-2" d="M120.75,79V105.5A11.17,11.17,0,0,1,113.38,116a10.83,10.83,0,0,1-3.75.66H85.9V106.46c.21-1.95,1.62-5.79,5.56-9.71.44-.44.9-.87,1.4-1.31s1-.86,1.6-1.29,1.18-.84,1.81-1.26c.31-.21.65-.41,1-.62.68-.41,1.39-.81,2.14-1.2s1.54-.76,2.37-1.13,1.71-.72,2.62-1.06l1.41-.49L107,88c.68-.24,1.34-.51,2-.8.24-.09.46-.19.69-.3.62-.27,1.23-.57,1.81-.87s1.38-.75,2-1.14,1.26-.79,1.85-1.2c.3-.2.58-.41.87-.62.57-.42,1.11-.85,1.65-1.29A35.63,35.63,0,0,0,120.75,79Z"/><path class="cls-2" d="M77,106.51v10.14H53.23A11.15,11.15,0,0,1,42.09,105.5V79l.68.69c.21.23.46.46.69.69.48.46,1,.9,1.51,1.34S46,82.61,46.62,83c.28.21.57.42.87.62l.68.46c.69.45,1.42.89,2.16,1.31A31.64,31.64,0,0,0,53.52,87c.74.34,1.52.64,2.32.94.4.15.81.29,1.23.43a42.76,42.76,0,0,1,8.58,3.9c.67.41,1.31.83,1.91,1.25a28.57,28.57,0,0,1,3.88,3.26,24.59,24.59,0,0,1,2.26,2.59h0c.32.42.61.83.88,1.24s.5.8.72,1.19h0c.22.39.4.76.57,1.13.25.54.45,1.06.62,1.53.1.32.19.62.26.9h0c.07.27.12.53.16.76S76.94,106.41,77,106.51Z"/><path class="cls-1" d="M92.86,95.44c.5-.43,1-.87,1.6-1.29C93.9,94.58,93.36,95,92.86,95.44Z"/><path class="cls-1" d="M96.27,92.89c-.63.42-1.24.84-1.81,1.26C95,93.72,95.64,93.3,96.27,92.89Z"/><path class="cls-1" d="M75.3,101.83c-.22-.39-.46-.79-.72-1.19C74.85,101,75.08,101.44,75.3,101.83Z"/><path class="cls-1" d="M77,45.59V89.64A44.81,44.81,0,0,0,59.9,79.91,26.5,26.5,0,0,1,42.09,61V56.74A11.15,11.15,0,0,1,53.23,45.59Z"/><path class="cls-1" d="M120.76,56.74V61A26.48,26.48,0,0,1,103,79.91,44.94,44.94,0,0,0,85.9,89.64v-44h23.73A11.15,11.15,0,0,1,120.76,56.74Z"/><path class="cls-3" d="M77,45.59V89.64A44.81,44.81,0,0,0,59.9,79.91,26.5,26.5,0,0,1,42.09,61V56.74A11.15,11.15,0,0,1,53.23,45.59Z"/><path class="cls-3" d="M120.76,56.74V61A26.48,26.48,0,0,1,103,79.91,44.94,44.94,0,0,0,85.9,89.64v-44h23.73A11.15,11.15,0,0,1,120.76,56.74Z"/><path class="cls-4" d="M92.86,95.44c.5-.43,1-.87,1.6-1.29C93.9,94.58,93.36,95,92.86,95.44Z"/><path class="cls-4" d="M96.27,92.89c-.63.42-1.24.84-1.81,1.26C95,93.72,95.64,93.3,96.27,92.89Z"/><path class="cls-4" d="M75.3,101.83c-.22-.39-.46-.79-.72-1.19C74.85,101,75.08,101.44,75.3,101.83Z"/><path class="cls-4" d="M77,45.59V89.64A44.81,44.81,0,0,0,59.9,79.91,26.5,26.5,0,0,1,42.09,61V56.74A11.15,11.15,0,0,1,53.23,45.59Z"/><path class="cls-4" d="M120.76,56.74V61A26.48,26.48,0,0,1,103,79.91,44.94,44.94,0,0,0,85.9,89.64v-44h23.73A11.15,11.15,0,0,1,120.76,56.74Z"/><path class="cls-4" d="M77,45.59V89.64A44.81,44.81,0,0,0,59.9,79.91,26.5,26.5,0,0,1,42.09,61V56.74A11.15,11.15,0,0,1,53.23,45.59Z"/><path class="cls-4" d="M120.76,56.74V61A26.48,26.48,0,0,1,103,79.91,44.94,44.94,0,0,0,85.9,89.64v-44h23.73A11.15,11.15,0,0,1,120.76,56.74Z"/><path class="cls-4" d="M77,45.59V89.64A44.81,44.81,0,0,0,59.9,79.91,26.5,26.5,0,0,1,42.09,61V56.74A11.15,11.15,0,0,1,53.23,45.59Z"/><path class="cls-4" d="M120.76,56.74V61A26.48,26.48,0,0,1,103,79.91,44.94,44.94,0,0,0,85.9,89.64v-44h23.73A11.15,11.15,0,0,1,120.76,56.74Z"/></svg>