<svg data-name="Layer 1" xmlns="http://www.w3.org/2000/svg" width="1131" height="812.206" viewBox="0 0 1131 812.206"><path fill="#75c7a4" opacity=".3" d="M689.328 51.267h80.802v30.092h-80.802zM823.626 0h80.802v30.092h-80.802zm5.572 93.061H910v30.092h-80.802zm-258.564 34.55h80.802v30.092h-80.802zM545 251.321h80.802v30.092H545zm122.038-2.787h80.802v30.092h-80.802z"/><path fill="none" stroke="#3f3d56" stroke-miterlimit="10" d="M823.626 14.856l-53.496 50.76 59.068 42.491m-139.87-42.491l-78.294 61.995m-25.633 123.686l25.633-93.595 96.405 90.832"/><path fill="#75c7a4" opacity=".3" d="M144.328 82.267h80.802v30.092h-80.802zM278.626 31h80.802v30.092h-80.802zm5.572 93.061H365v30.092h-80.802zm-258.564 34.55h80.802v30.092H25.634zM0 282.321h80.802v30.092H0zm122.038-2.787h80.802v30.092h-80.802z"/><path fill="none" stroke="#3f3d56" stroke-miterlimit="10" d="M278.626 45.856l-53.496 50.76 59.068 42.491m-139.87-42.491l-78.294 61.995M40.401 282.297l25.633-93.595 96.405 90.832M365 139.107h91.634"/><path fill="#75c7a4" d="M415.5 123.706h95v30h-95z"/><path fill="none" stroke="#3f3d56" stroke-miterlimit="10" d="M510.623 138.706h60.011m-155.589 0l-55.618-92.85"/><ellipse cx="691" cy="714.206" rx="440" ry="98" fill="#f2f2f2"/><path fill="#47465a" d="M894.984 391.611l-42.906 214.971h-9.288l-1.022-1.588-2.959-4.604 37.155-200.818 5.64-2.362 13.38-5.599z"/><path opacity=".1" d="M881.604 397.21l-39.836 207.784-2.959-4.604 37.155-200.818 5.64-2.362z"/><path fill="#47465a" d="M959.564 684.432l-11.031 3.556-2.681.867-3.539-7.962-60.709-276.933 6.312-1.415 13.261-2.973 58.387 284.86z"/><path opacity=".1" d="M948.533 687.988l-2.681.867-3.539-7.962-60.709-276.933 6.312-1.415 60.617 285.443z"/><path fill="#47465a" d="M433.636 391.611l-9.731 278.666-11.152 2.477-.791.177-3.097-5.75 6.193-272.917 5.958-.849 12.62-1.804z"/><path opacity=".1" d="M421.016 393.415l-8.263 279.339-.791.177-3.097-5.75 6.193-272.917 5.958-.849z"/><path fill="#47465a" d="M491.581 768.917l-11.536 1.99-1.292.221-3.538-7.519-56.176-364.037 1.619-.491 8.555-2.605 62.368 372.441z"/><path opacity=".1" d="M480.045 770.907l-1.292.221-3.538-7.519-56.176-364.037 1.619-.491 59.387 371.826z"/><path d="M735.746 369.052l42.951 54.882a13.928 13.928 0 0012.589 5.25l176.318-20.65A13.928 13.928 0 00979.91 394.7v-40.687z" fill="#7a799c"/><path d="M880.388 377.898h11.942v17.237a4.438 4.438 0 01-4.437 4.437h-3.068a4.438 4.438 0 01-4.438-4.437v-17.237z" fill="#47465a"/><path d="M419.039 403.996l42.951 54.882a13.928 13.928 0 0012.589 5.25l176.317-20.65a13.928 13.928 0 0012.308-13.834v-40.687z" fill="#7a799c"/><path d="M563.68 412.842h11.943v17.237a4.438 4.438 0 01-4.437 4.437h-3.068a4.438 4.438 0 01-4.438-4.437v-17.237z" fill="#47465a"/><path d="M468.385 431.791l524.46-61.09a7.713 7.713 0 002.577-14.549l-93.817-47.182a108.587 108.587 0 00-59.803-11.017l-465.942 47.51a8.918 8.918 0 00-5.458 15.095l54.259 55.668a52.673 52.673 0 0043.724 15.565zm582.159-69.37l-5.61-3.1s-6.057 4.458-10.99 23.24 9.22.203 9.22.203l6.193-12.828zm-60.017 172.062s-5.75 26.982-8.404 34.501c-1.3 3.68-7.582 7.047-14.544 9.62a97.379 97.379 0 01-19.073 4.977c-7.52.885-103.947-14.154-150.834-24.328-31.587-6.852-35.67-14.712-34.97-19.109a6.38 6.38 0 011.795-3.45s46.445-31.405 62.811-46.444 48.656-3.097 84.042 3.096 79.177 41.137 79.177 41.137z" fill="#47465a"/><path d="M1044.934 359.32s21.674 14.155-51.31 43.349c0 0-39.67 22.366-34.506 114.503a25.27 25.27 0 003.673 11.702c7.53 12.385 23.667 43.737-3.227 47.63v7.077s48.656-24.328 53.964-45.117 23.001-136.238 31.848-146.853 14.597-27.425-.442-32.29z" fill="#47465a"/><path d="M967.58 578.605a97.379 97.379 0 01-19.074 4.976c-7.52.885-103.947-14.154-150.834-24.328-31.587-6.852-35.67-14.712-34.97-19.109 20.762 7.1 88.182 29.632 112.378 31.494 28.75 2.212 83.68 8.36 87.842 4.18 1.6-1.61 3.242.089 4.657 2.787z" opacity=".1"/><path d="M714.957 762.724l42.02-191.97s7.52-20.348 24.771-19.463l15.924 7.962s-26.54-6.193-32.29 14.155-42.463 189.316-42.463 189.316zm100.851-87.581l16.808-117.217h7.52l-17.251 117.217h-7.077zm161.007 114.563l-15.924-183.124s0-15.481 7.962-23.001 33.665-28.97 33.665-28.97 6.587-1.55 11.895 13.489 42.021 165.43 42.021 165.43l-7.077 3.097-45.56-173.393-31.405 29.636s-6.193 11.058-3.096 21.232 14.596 175.604 14.596 175.604z" fill="#47465a"/><path fill="#47465a" d="M927.717 579.158l39.809 11.5 8.847-8.404-23.001-3.096h-25.655z"/><path d="M573.813 256.304l6.455 96.824 141.102-13.712-5.614-94.65a9.52 9.52 0 00-10.301-8.922l-122.942 10.341a9.52 9.52 0 00-8.7 10.12z" fill="#7a799c"/><path fill="#7a799c" d="M768.7 367.282l-140.661 15.345-5.308.579-41.136-26.539v-5.751l139.775-12.588 47.33 28.954z"/><path opacity=".1" d="M628.039 382.627l-5.308.579-41.136-26.539v-5.149l46.444 31.109z"/><path fill="#9493b6" d="M583.364 255.373l4.866 86.254 123.852-11.5-4.424-84.043-124.294 9.289z"/><path opacity=".1" d="M657.233 365.513l15.039 10.174 45.56-4.424-15.482-9.731-45.117 3.981z"/><path fill="#9493b6" d="M595.749 353.128l19.02 14.154 121.641-11.5-21.674-14.155-118.987 11.501z"/><path fill="#ff6584" d="M811.605 222.42h89.793v89.793h-89.793z"/><path opacity=".1" d="M811.605 222.42h89.793v89.793h-89.793z"/><path d="M842.529 263.974s12.667 34.306 0 40.64 45.39 0 45.39 0l16.36-13.195s-36.944-10.556-31.666-34.834-30.084 7.389-30.084 7.389z" fill="#fbbebe"/><path d="M842.529 263.974s12.667 34.306 0 40.64 45.39 0 45.39 0l16.36-13.195s-36.944-10.556-31.666-34.834-30.084 7.389-30.084 7.389z" opacity=".1"/><path d="M738.556 608.089s47.5 67.028 39.583 85.5-3.694 30.084-19.528 36.418-20.055 17.945-6.333 17.417 31.667-4.223 34.306-8.973 8.972-27.444 17.945-30.611 25.861-15.306 13.722-30.084-42.725-69.21-40.363-74.717-39.332 5.05-39.332 5.05z" fill="#fbbebe"/><path d="M837.779 475.615s-98.168 6.333-123.501 30.084 22.166 112.418 27.444 113.473 46.445-3.166 44.862-14.778-29.556-59.111-29.556-59.111 36.417-13.195 56.473-16.362 42.223-17.944 42.223-17.944z" fill="#9493b6"/><path d="M792.917 460.837s1.584 58.584 16.362 60.695 0-44.861 0-44.861l-.528-17.945z" fill="#fbbebe"/><path d="M837.779 307.252s-27.445-7.917-32.723 13.195-6.86 93.945-6.86 93.945l-9.5 58.056s17.416-5.277 21.11-2.639l22.167-27.972z" fill="#75c7a4"/><path d="M837.779 307.252s-27.445-7.917-32.723 13.195-6.86 93.945-6.86 93.945l-9.5 58.056s17.416-5.277 21.11-2.639l22.167-27.972z" opacity=".1"/><path d="M875.28 619.329s18.444 36.26 29.528 35.733 21.639-7.39 26.917 14.25-1.056 15.833 5.277 28.5 7.39 34.834-4.75 40.112-23.222 5.805-23.75 0 10.556-5.806-2.111-26.39-39.584-58.056-50.667-61.75 19.555-30.455 19.555-30.455z" fill="#fbbebe"/><path d="M923.28 453.976s38 63.334 13.195 81.806-98.696 53.834-98.696 53.834 39.584 26.917 41.695 35.89-19 33.25-26.39 33.778-29.027-24.278-52.25-30.612-37.472-51.722-12.139-68.611 49.084-44.862 49.084-44.862l-7.385-40.634z" fill="#9493b6"/><path d="M890.34 242.767c0 22.445-22.991 40.999-45.436 40.999a40.64 40.64 0 110-81.279c22.445 0 45.436 17.836 45.436 40.28z" fill="#fbbebe"/><path d="M855.196 301.446s36.417-15.833 36.417-17.944 21.111 4.75 25.861 8.972 7.39 3.695 10.556 12.14-15.833 87.083-15.833 87.083 10.555 60.696 16.36 66.501-46.972 14.25-46.972 14.25-34.834 6.334-40.64 8.973-16.36 6.333-14.25 0 11.084-11.084-4.222-19c0 0 5.278-25.862 0-37.473s-29.556-53.834-10.028-84.446 28.5-41.695 28.5-41.695 6.862 5.806 14.25 2.64z" fill="#75c7a4"/><path d="M866.807 445.531s-41.167 18.26-53.57 19.95-49.876 11.19-29.292 19.634 51.723-4.222 51.723-4.222l43.806-18.473z" fill="#fbbebe"/><path d="M911.13 299.827s15.201-7.353 19.423 18.508 19 107.668 0 119.807-62.806 31.667-62.806 31.667-25.861-17.416-13.722-23.75 41.167-24.278 45.39-30.611 8.487-77.027 1.098-88.639 10.616-26.982 10.616-26.982z" opacity=".1"/><path d="M910.085 293.53s21.112-1.056 25.334 24.805 19 107.668 0 119.807-62.806 31.667-62.806 31.667-25.862-17.416-13.723-23.75 41.167-24.278 45.39-30.611-3.167-72.307-10.556-83.918 16.361-38 16.361-38z" fill="#75c7a4"/><path d="M834.894 174.715c-6.48.882-13.43 3.252-16.69 8.92-1.595 2.774-2.11 6.028-3.34 8.982-3.391 8.153-11.628 13.021-17.574 19.548-7.75 8.507-11.599 21.326-7.028 31.887 1.77 4.09 4.644 7.593 6.824 11.48 6.08 10.843 6.405 23.865 6.578 36.296l.34 24.44c.052 3.733.094 7.54-1.03 11.1s-3.633 6.892-7.192 8.016a18.64 18.64 0 0021.708-7.412 19.05 19.05 0 01-5.823 16.9c9.676-2.28 17.79-9.317 22.902-17.843s7.483-18.442 8.545-28.326c.562-5.228.76-10.633-.892-15.625-1.163-3.515-3.192-6.667-5.118-9.83-4.965-8.154-9.437-16.826-11.037-26.238s.006-19.738 6.118-27.072a24.454 24.454 0 0119.315-8.856 21.503 21.503 0 0117.928 10.975c1.412 2.658 3.421 6.26 6.282 5.326a15.523 15.523 0 001.55-.76c3.19-1.453 6.814 1.412 8.22 4.622 4.438 10.127-3.737 21.182-4.582 32.205-.786 10.255 4.93 19.927 11.765 27.612a90.717 90.717 0 0044.353 27.25 12.45 12.45 0 01-6.434-3.996 84.47 84.47 0 0020.756-1.74c-7.426-5.597-14.904-11.24-21.104-18.171s-11.11-15.316-12.448-24.518c-1.794-12.35 2.806-25.724-2.453-37.041-4.808-10.347-16.732-16.129-21.087-26.674-4.423-10.712-7.29-20.018-19.002-24.68-12.782-5.09-26.54-8.657-40.35-6.777z" fill="#ff6584"/></svg>