<svg data-name="Layer 1" xmlns="http://www.w3.org/2000/svg" xmlns:xlink="http://www.w3.org/1999/xlink" width="1135.7" height="856.85" viewBox="0 0 1135.7 856.85"><defs><linearGradient id="a" x1="345.7" y1="823.95" x2="345.7" y2="606.19" gradientTransform="translate(636.4)" gradientUnits="userSpaceOnUse"><stop offset="0" stop-color="gray" stop-opacity=".25"/><stop offset=".54" stop-color="gray" stop-opacity=".12"/><stop offset="1" stop-color="gray" stop-opacity=".1"/></linearGradient><linearGradient id="b" x1="-254.27" y1="469.69" x2="-254.27" y2="232.12" gradientTransform="rotate(-2.2 1080.659 -27397.33)" xlink:href="#a"/></defs><path d="M584.53 172.83c-71.4 11.92-142.91 5.5-211.75-3.38s-137.52-20.22-209.07-18.02c-46 1.43-97.17 10.47-129 38.21-30.62 26.7-35 63.19-34.71 96.18.22 24.83 2.55 50.54 19.36 70.49 11.67 13.86 29.51 23.91 43 36.72 47 44.58 33.67 113.64 3.91 172.13-14 27.43-31.11 54.37-40.5 82.49s-10.32 58.45 7.38 81.78c17.54 23.08 51.09 36.39 86 43.51 70.89 14.47 149.57 7 225.67-3.38 168.43-23.13 335.03-60.54 501.03-97.84 61.47-13.81 123.21-27.69 182.35-48 32.84-11.26 66.25-25.43 87.28-47.83 26.69-28.45 26.93-67.72.56-91.55-44.19-39.91-143.19-32.45-177.56-77.91-18.94-25-11.23-58.61 3.24-88.17 31-63.4 91.75-125.65 83-189.36-6-43.76-48.38-80.39-104.68-90.52-59-10.62-134.41 7.11-167.78 50.61-34.41 44.78-104.69 73.32-167.73 83.84z" fill="#75c7a4" opacity=".1"/><path d="M1044.67 222.95s-14.07-5.72-58.81 14.81-50.33 17.92-61.92 14.78-18-3.88-30.46-21c0 0-8.75-47.48-17.23-54.83s-44.5 4.19-44.5 4.19-43.19 9.9-51.42-47.82c0 0 5.84-43.5-2.11-56.85 0 0 16 6.92 42.54-4.26s47.69 12 47.69 12 6.68 17.29 6 27.6 3.53 14.19 16.17 9.21c0 0 6.2-8.83-2.58-23.43s-15.06-25.46-12.61-36.79 9.5-27 32.17-34.91 53.44-9.37 68.22-15.52S994.17-.03 994.17-.03s-9.09 9.11 12.32 47.73 7.77 55.38 7.77 55.38-11.4 27.15-61.7 24.95c0 0-48.47 1.77-22.05 22.32 0 0 16.93-3.44 42.23-11.49s43.57 25.16 48.1 48.26 23.83 35.83 23.83 35.83z" fill="#75c7a4"/><path d="M979.51 29.29l.27-.07c1.94 7.37-19.72 37-38.24 60.52l-.22-.17c26.13-33.21 39.69-54.62 38.19-60.28z" fill="#444053"/><path d="M941.71 89.09l.11.3c-14.79 18.8-33.4 41.25-48.29 57.87-1.42 1.58-2.83 3.25-4.18 4.94l-.43-.34c1.36-1.7 2.78-3.37 4.2-5 14.89-16.58 33.8-38.98 48.59-57.77z" fill="#444053"/><path d="M889.28 151.43l.3.51c-27.1 33.83-28.89 86.36-29 86.81l-5.71-6.6c.1-.48 7.13-46.67 34.41-80.72z" fill="#444053"/><path d="M1013.25 204.6s-32-16.61-56.86-10.65-81-21.07-81-21.07-23.8-9.67-28.59-20.69c0 0-16.33-17.27-17.26-26.21s-16.83-31.39-27.2-32.26m206.28 126.87s-16.09-10.84-14.22-23.48m-10.47 37.48s-23-8.35-25.32-41.11m-11.76 49.59s-22-18.24-14.69-50.12m-29.98 41.21s-14.65-30.73-1.61-50.73m113.05.92s-16.64 5.28-13.07 14m-7.01-44.21s-22.26 7.07-22.79 38.57m-8.27-45.84s-20.27 25-18.78 47.76m-16.71-37.94s-20.14 19.24-17.57 29.94m5.43-36.74s-18.88 3.38-21.52-2.81m-3.02-19.98s9.54 12.63 12 9.8m82.54-17.79s-47.58 3.45-58.35-10.89m-46.2-44.79s22.33 47.93 38.55 54m-15.12-76.81s13.71 44.08 30.7 57.84" fill="none" stroke="#444053" stroke-miterlimit="10"/><path d="M1004.85 82.72s-36.19 15.54-57.92-.18m-10.97-51.32s8.27 32.41 19.41 40.21m44.06-25s-20.34 7.7-27.93 1.8" fill="none" stroke="#444053" stroke-miterlimit="10" stroke-width=".75"/><path d="M872.9 137.69s-.06 28.25-7.7 30.25m-55.18 6.35s30.54 2.61 44.63-13.15m10.36-56.83s-7.39 28.66-27.77 36.37m-45.54 3.43s21.62 7.51 40.21-11.63m9.06-52.8s-2 24.34-15.27 35.72m-33.18-8.37s17.94.12 22.15-5.73" fill="none" stroke="#444053" stroke-miterlimit="10"/><ellipse cx="675.84" cy="808.62" rx="353.51" ry="16.83" fill="#75c7a4" opacity=".1"/><path d="M184.61 820.71s-36.11-2.18-31.85 23.12c0 0-.84 4.47 3.21 6.5 0 0 .06-1.87 3.7-1.24a16.25 16.25 0 003.92.19 8.16 8.16 0 004.8-2s10.15-4.19 14.09-20.78c0 0 2.92-3.61 2.81-4.54l-6.1 2.6s2.09 4.39.45 8.05c0 0-.2-7.89-1.37-7.71-.24 0-3.17 1.53-3.17 1.53s3.59 7.65.88 13.22c0 0 1-9.44-2-12.67l-4.29 2.5s4.16 7.95 1.36 14.38c0 0 .72-9.89-2.25-13.75l-3.89 3s3.93 7.79 1.54 13.14c0 0-.32-11.52-2.38-12.39 0 0-3.4 3-3.92 4.23 0 0 2.69 5.66 1 8.64 0 0-1-7.67-1.86-7.71 0 0-3.39 5.09-3.74 8.57a18.44 18.44 0 012.92-9.06 10.17 10.17 0 00-5.19 2.69s.53-3.6 6-3.91c0 0 2.8-3.86 3.55-4.09 0 0-5.47-.46-8.78 1 0 0 2.92-3.39 9.78-1.85l3.84-3.13s-7.2-1-10.25.1c0 0 3.51-3 11.28-.81l4.18-2.5s-6.13-1.32-9.79-.85c0 0 3.86-2.08 11 .18l3-1.34s-4.49-.89-5.81-1-1.39-.51-1.39-.51a15.6 15.6 0 018.45.94s6.37-2.34 6.27-2.74z" fill="#75c7a4"/><ellipse cx="159.74" cy="852.53" rx="25.55" ry="4.32" fill="#75c7a4" opacity=".1"/><path d="M121.35 822.06s-20.35-1.23-17.95 13a3.48 3.48 0 001.81 3.67s0-1.06 2.09-.7a9.45 9.45 0 002.21.11 4.59 4.59 0 002.7-1.12s5.72-2.36 7.95-11.71c0 0 1.64-2 1.58-2.57l-3.44 1.47a6.13 6.13 0 01.25 4.54s-.11-4.45-.77-4.34c-.13 0-1.78.85-1.78.85s2 4.32.49 7.46c0 0 .58-5.32-1.12-7.14l-2.42 1.41s2.36 4.46.76 8.09c0 0 .41-5.58-1.27-7.75l-2.19 1.71s2.22 4.39.87 7.41c0 0-.18-6.49-1.34-7a13.16 13.16 0 00-2.21 2.39s1.51 3.19.57 4.87c0 0-.57-4.33-1-4.34 0 0-1.91 2.86-2.11 4.83a10.49 10.49 0 011.65-5.11 5.81 5.81 0 00-2.93 1.51s.3-2 3.4-2.2a13.7 13.7 0 012-2.31 12.72 12.72 0 00-4.95.57s1.64-1.91 5.52-1l2.16-1.76s-4.06-.56-5.78 0c0 0 2-1.69 6.36-.46l2.36-1.4a21.24 21.24 0 00-5.52-.48s2.17-1.17 6.21.1l1.68-.76s-2.53-.5-3.28-.57-.78-.29-.78-.29a8.85 8.85 0 014.76.53s3.53-1.29 3.46-1.51z" fill="#75c7a4"/><ellipse cx="107.34" cy="840" rx="14.41" ry="2.44" fill="#75c7a4" opacity=".1"/><path d="M160.1 791.82s-24.57-1.48-21.68 15.74a4.2 4.2 0 002.19 4.42s0-1.27 2.52-.84a11.3 11.3 0 002.67.13 5.56 5.56 0 003.26-1.35s6.91-2.85 9.6-14.14c0 0 2-2.46 1.9-3.1l-4.14 1.75s1.41 3 .3 5.48c0 0-.13-5.37-.93-5.24-.16 0-2.16 1-2.16 1s2.44 5.21.6 9c0 0 .7-6.42-1.36-8.62l-2.92 1.71s2.85 5.38.92 9.77c0 0 .5-6.73-1.53-9.36l-2.64 2.07s2.67 5.3 1 8.94c0 0-.21-7.84-1.62-8.43a16.35 16.35 0 00-2.67 2.88s1.84 3.85.7 5.88c0 0-.7-5.22-1.27-5.25 0 0-2.3 3.46-2.54 5.84a12.65 12.65 0 012-6.17 6.91 6.91 0 00-3.53 1.83s.36-2.45 4.1-2.66c0 0 1.91-2.63 2.42-2.79 0 0-3.72-.31-6 .69 0 0 2-2.31 6.66-1.26l2.61-2.13s-4.9-.67-7 .07c0 0 2.39-2 7.67-.55l2.92-1.7a26.13 26.13 0 00-6.67-.57s2.63-1.42 7.5.12l2-.91s-3.06-.61-3.95-.7-1-.34-1-.34a10.6 10.6 0 015.75.64s4.4-1.58 4.32-1.85z" fill="#75c7a4"/><ellipse cx="143.18" cy="813.48" rx="17.39" ry="2.94" fill="#75c7a4" opacity=".1"/><path d="M668.59 784.06v7.82H437.33v-6.36a76 76 0 005.23-140.37h224.46a76.13 76.13 0 00-42 50.4 76 76 0 0029.41 80.47 76.11 76.11 0 0014.16 8.04z" fill="#d2d4de"/><path d="M667.02 645.15a76.13 76.13 0 00-42 50.4H484.58a76.13 76.13 0 00-42-50.4z" opacity=".1"/><path d="M172.53 605.32v43.89c0 24.25 17.74 43.9 39.63 43.9h680.38c21.89 0 39.63-19.65 39.63-43.9v-43.89z" fill="#d2d4de"/><path d="M668.59 784.06v7.82H437.33v-6.36a75.74 75.74 0 0017.84-9.5h199.24a76.11 76.11 0 0014.18 8.04z" opacity=".1"/><rect x="360.91" y="778.46" width="384.09" height="23.17" rx="9.5" ry="9.5" fill="#d2d4de"/><path d="M932.17 124.29a39.63 39.63 0 00-39.63-39.63H212.16a39.63 39.63 0 00-39.63 39.63v489.56h759.64z" fill="#30374e"/><path d="M911.45 141.97v420.67a19.51 19.51 0 01-19.51 19.51H212.77a19.5 19.5 0 01-19.51-19.51V141.97a19.51 19.51 0 0119.51-19.54h679.17a19.52 19.52 0 0119.51 19.54z" fill="#dfe3ef"/><circle cx="552.35" cy="103.56" r="9.15" fill="#fff"/><circle cx="552.35" cy="651.04" r="22.56" fill="#fff"/><path d="M911.44 141.97H193.26a19.5 19.5 0 0119.51-19.54h679.16a19.5 19.5 0 0119.51 19.54z" fill="#fff"/><circle cx="212.77" cy="132.21" r="4.88" fill="#dfe3ef"/><circle cx="227.4" cy="132.21" r="4.88" fill="#dfe3ef"/><circle cx="242.03" cy="132.21" r="4.88" fill="#dfe3ef"/><path fill="#fff" d="M260.88 196H840.5v338.72H260.88z"/><path d="M1034.42 674.83c.21-.57-1.38-3.77-1.38-3.93s-1.63-1.94-1.63-2.93-2.17-3.15-2.17-3.15-2.9-1.2-3.21-3.82-3.48-2.67-3.49-2.67 0-.24 0-.6a8.47 8.47 0 00-.38-3.07 3.12 3.12 0 00-1.8-1.52 6.76 6.76 0 00-1-2.67 3 3 0 01-.74-2.83c.32-1-.42-3.51-2-3.88s-3.27-.94-3.27-.94l-.42.07-.21-.07a10.31 10.31 0 01-1.11.14 1.4 1.4 0 01-.9-.3c-.53-.57-4.8-1.67-5.59-1.67a13.25 13.25 0 01-3.06-1l-2.27-1.73a14.81 14.81 0 01-2-2.74 11.19 11.19 0 01-.48-1.38 12.47 12.47 0 002-2.7l.15-.31a1.27 1.27 0 00.34 0l.14-.06a2.22 2.22 0 001.12-1.34 2.19 2.19 0 00.1-.34v-.12a2 2 0 000-.24.59.59 0 000-.13 2 2 0 000-.24v-.43c.05-.37.09-.74.17-1.11a21.08 21.08 0 011.78-3.94q.14-.28.24-.57c.08-.21.15-.43.21-.64a1.46 1.46 0 000-.2c0-.15.08-.31.11-.47s0-.14 0-.21c0-.22.06-.44.08-.66a8 8 0 00-.54-3.68c-.39-1-1-1.87-1.38-2.85-.61-1.49-.77-3.18-1.51-4.6a5.49 5.49 0 00-6.57-2.68c-1.15.43-2.14 1.26-3.31 1.63-1.56.5-3.22.12-4.84-.1s-3.4-.24-4.69.81c-1.5 1.21-1.91 3.49-3.31 4.83-.59.56-1.32.91-1.94 1.43a3.15 3.15 0 00-1 1.33v.11a1 1 0 000 .14.88.88 0 000 .16v.11a2.61 2.61 0 000 .28 2.38 2.38 0 00.05.26v.07a1.42 1.42 0 00.07.22l.09.24.06.12a.3.3 0 000 .1 6.48 6.48 0 01.49 1.22 1.37 1.37 0 010 .8 2.33 2.33 0 01-.59.77 11.06 11.06 0 00-2.38 3.81c-.06.16-.11.33-.17.49h.07a2.52 2.52 0 00.46.1h.27a4.26 4.26 0 001.07-.08l.27-.06a6.31 6.31 0 001.07-.4v.51a12.45 12.45 0 006.92 11.14v.34a2.7 2.7 0 010 .28l-.14-.13s-1-.47-1.85.89a6 6 0 01-2.59 2s-9.6 1.52-10 2.78l-4.48.26s-1.58.21-1.74 3.51-1 3.61-1 3.61-1.85 3.25-1.69 4.93a2.73 2.73 0 01-1.43 2.51l-.21 3a2 2 0 00-2.21 1.78 7.21 7.21 0 01-1.32 3s-2.9 2.41-3.06 4.45l-1.8 1.1s-4.16-.94-5.11-2.62l-.3-.27a14.23 14.23 0 00-1.74-1.54 1.29 1.29 0 01.08.84l-.31-.34L941 666s-6.2-7.12-10.15-7.62a2.49 2.49 0 00-1.78 1.72c-.5 1.7-1 4.52.28 5.91l6.25 6.66.16.12 1.36 1.74c-.23.55-.43 1.08-.59 1.57 0 .11-.07.21-.1.31v.1l-.09.29c0 .06 0 .12-.05.17v.1c-.15.53-.24.93-.29 1.16l-.35-.11.34.15a.45.45 0 000 .11l.32.14c1.85.81 11.07 4.85 11.55 5.47a6.67 6.67 0 007.17 1 7.56 7.56 0 003.85-4.24A44.77 44.77 0 00962 676c.1-.62 2.48-1.36 2.48-1.36s.21 7-1 9.59-3.48 13.92-3.48 13.92a1.71 1.71 0 01.45 0l-.13.66a1.57 1.57 0 01.56 0c-.17 1.3-1.14 7.3-1.14 7.3a15.39 15.39 0 01-.84 3.67c-.53.94-.59 5.86-.59 5.86l-.84 3.57s.11.24.32.61a9 9 0 002.43 3.13 6.16 6.16 0 01-.43 1.63 5.78 5.78 0 00-.42 2.52 31.64 31.64 0 00-.79 5.19 19.52 19.52 0 01-.58 4l-1 9.12s-.63 7.9-.32 10a19.09 19.09 0 01-.21 5.08s.63 6.24.48 6.92-1 3.62-.48 5.24.21 6.08.21 6.08.32 5.87.69 7.75a13.26 13.26 0 01-.11 4.3 34.75 34.75 0 01-.53 4c-.15 0-1.53 2.78 1.27 5.51s1.06 2.3 1.06 2.3-2.22-1.1-2 1.15.6 1.59.63 1.53l-.52 1.72.37.05c-.1.12-.2.25-.31.37a8.15 8.15 0 01-1.06 1.1 2.3 2.3 0 00-.69 1.52 41.26 41.26 0 01-7.54 6.39 22.42 22.42 0 00-4.29 2.88c-.65.71-.54 1.29.81 1.73a20.45 20.45 0 0011.44.21 13.35 13.35 0 005.6-3.61 8.07 8.07 0 014.48-.74c2.22.42 6.65-2.46 6.65-2.46l-.08-.74-.24-2.14a1.7 1.7 0 01-.37-1.31 7 7 0 00-.18-1.88c0-.21-.08-.42-.12-.61l.41-.08s-.53-2.67.42-3.19.68-7.39.68-7.39a8.4 8.4 0 00-1.84-1.83c-.63-.27-.06-3.52 0-3.93s1-8.55 1-8.55a11 11 0 01.11-3.66c.42-1.1-.53-5.34-.53-5.34a1 1 0 01.26-1.16c.58-.63.37-6.23.37-6.23s-.05-2.83-.05-3.57a12.93 12.93 0 011.21-4.29c.58-.89.22-3.67.22-3.67v-.79a40.89 40.89 0 011-4.54c.69-2.2 1.48-6.08 1.48-6.08l4.91-12.79v-.15a20.05 20.05 0 012.27 8.07 46.08 46.08 0 01.42 5.92 69.66 69.66 0 00.48 7.17s.68 8.49.68 8.86.85 6.91 1.38 7.91-.53 4-.85 4.35.1 8 .1 8-.79 6.08-.95 7.34-.79 6.08-.26 8 .32 2.14.32 2.14 1.9 1.94.79 2.1a2.9 2.9 0 00-2.11 3.82 49.81 49.81 0 002.32 5.61l.88-.18v.62l.06 3.12a18.48 18.48 0 01.16 3.67c-.15.5-.37 2.85-.47 4.07 0 .45-.06.75-.06.75s0 2.78 5.86 1.94 6.91-3.14 6.91-3.14v-.29c.09-.53.28-1.66.43-2.28.21-.84-1.68-4.61-1.68-4.61s-.32-2.57-.85-3.15a2.7 2.7 0 01-.42-1.1c0-.21-.09-.43-.13-.64l.39.07s-.31-1.84.9-2.41a1.74 1.74 0 00.74-2.31 17.63 17.63 0 01.47-3.46 1.72 1.72 0 01.42-1.67c.75-.74 1.32-5.87 1.32-5.87l.11-19.81a19.05 19.05 0 00-.05-4.92c-.43-1.42-.85-4.14-.27-4.88s.06-4.13.06-4.13 0-7.18.79-9 .53-13.05.53-13.05l.21-7.39s1.72-1.62 1.31-10.13c1.84-.11 3.91-.18 4.23.07.58.47 4.32 2.89 6.54 1.37a31.72 31.72 0 002.63-2.05l-.93-15.71c.58.88.94 1.46.94 1.46 0-2.2 6.22-9.33 6.22-9.33s5.8-7.49 7.07-8.38 3.75-5.6 3.75-5.6a22.5 22.5 0 011.26-2.62c.89-.91-1.01-3.42-.79-4zm-13.62 5.5c-1.58.16-4.9 3.78-5 4.56a3.16 3.16 0 01-.7 1.41c0-.32 0-.64-.07-1-.38-4.63-.78-10.27-.6-10.81a31.41 31.41 0 00.21-5.19l.06-.08c1.06 3.29 4.37 7.16 4.37 7.16s.58 1.68 1.26 1.73.47 2.22.47 2.22z" transform="translate(-32.15 -21.57)" fill="url(#a)"/><path d="M904.06 657.57s1.93-10.09 8.12-10.14l4.52 9.3-3 2.08s-6.57.21-9.64-1.24z" fill="#65617d"/><path d="M916.7 656.73l-3 2.08a35.47 35.47 0 01-7.9-.66 9.89 9.89 0 01-1.72-.58v-.17a21.91 21.91 0 011.17-3.71c.19-.45.4-.92.64-1.38a9.32 9.32 0 013.92-4.3 5.19 5.19 0 012.06-.54h.28l.09.2 1.53 3.15z" opacity=".1"/><path d="M968.07 698.64s6.5-.62 7.07-.15 4.27 2.86 6.45 1.35.73-6.76.73-7-.21-7.64-.21-7.64l-3.9-5.25-4.89-9.21-10-1 .26 14.61v7.48z" fill="#65617d"/><path d="M968.07 698.64s6.5-.62 7.07-.15 4.27 2.86 6.45 1.35.73-6.76.73-7-.21-7.64-.21-7.64l-3.9-5.25-4.89-9.21-10-1 .26 14.61v7.48z" opacity=".1"/><path d="M910.85 647.17s-.51 6.34-4.47 6.44c0 0-1.12-.67-2.62-1.8-3.48-2.6-9-7.59-7.46-12.24 2.18-6.65 12.79 5.62 12.79 5.62l.82.91z" fill="#fbbebe"/><path d="M910.85 647.17s-.51 6.34-4.47 6.44c0 0-1.12-.67-2.62-1.8l-.34-.43a5.15 5.15 0 002.16.58 2.9 2.9 0 002.83-1.78 21.58 21.58 0 001.1-2.52 8.09 8.09 0 00.4-1.56z" opacity=".1"/><path d="M909.16 658.66l-.89-1.15-3-3.85-1.53-2a5.26 5.26 0 002.17.59 2.92 2.92 0 002.82-1.79 22.31 22.31 0 001.1-2.51c.49-1.41.48-2.13.31-2.37a14.75 14.75 0 011.71 1.55l.29.27.1.21 1.51 3v.13c.17.99.68 7.06-4.59 7.92z" fill="#e7effd"/><path d="M940.31 792.5s-4.37 2.86-6.56 2.44a7.82 7.82 0 00-4.42.73 13.14 13.14 0 01-5.51 3.59c-3.53 1.19-8.47.72-11.28-.21-1.33-.44-1.44-1-.8-1.72a22.18 22.18 0 014.23-2.86 40.71 40.71 0 007.44-6.34 2.27 2.27 0 01.67-1.51 8 8 0 001-1.09c.56-.66 1.08-1.35 1.08-1.35l12.85.41s.22.93.39 1.88a6.91 6.91 0 01.18 1.87 1.69 1.69 0 00.36 1.3l.23 2.12zm26.88 3.58c-.16.63-.34 1.74-.43 2.27v.28s-1 2.29-6.81 3.12-5.77-1.92-5.77-1.92 0-.3.06-.74a38.1 38.1 0 01.46-4 18.94 18.94 0 00-.16-3.64l-.06-3.1v-2.16l9.56-1a19.63 19.63 0 00.31 2.13 2.87 2.87 0 00.42 1.09c.52.57.83 3.12.83 3.12s1.8 3.72 1.59 4.55z" fill="#65617d"/><path d="M939.06 784.59s.22.93.39 1.88c-1.39.25-7.45 1.3-9 .57a23.38 23.38 0 00-5.41-1.3l.06-.21c.56-.66 1.08-1.35 1.08-1.35zm25.21 2.71c-2.42-.42-7.74.58-9.83 1v-2.16l9.56-1a19.63 19.63 0 00.27 2.16z" opacity=".1"/><path d="M969.68 708.43l-.2 7.33s.26 11.18-.52 13-.78 8.89-.78 8.89.52 3.38-.06 4.11-.15 3.43.26 4.83a18.81 18.81 0 01.05 4.89l-.1 19.66s-.57 5.09-1.3 5.82a1.68 1.68 0 00-.41 1.66 17.29 17.29 0 00-.47 3.44 1.72 1.72 0 01-.73 2.28c-1.2.58-.89 2.4-.89 2.4-2.85-.68-11 1.14-11 1.14a47.77 47.77 0 01-2.29-5.57 2.87 2.87 0 012.08-3.79c1.09-.16-.78-2.08-.78-2.08s.21-.26-.32-2.13.11-6.66.26-7.91l.94-7.27s-.42-7.65-.1-8 1.35-3.33.83-4.31-1.35-7.49-1.35-7.86-.68-8.79-.68-8.79-.62-5.87-.47-7.12a45.67 45.67 0 00-.41-5.87 20 20 0 00-2.24-8l-.05.15-4.84 12.69s-.78 3.85-1.45 6a39.89 39.89 0 00-1 4.52v.78s.37 2.75-.2 3.64a12.68 12.68 0 00-1.2 4.26c0 .73.05 3.54.05 3.54s.21 5.56-.36 6.18a1 1 0 00-.26 1.15s.93 4.21.52 5.3a10.92 10.92 0 00-.11 3.64s-.83 8.06-.93 8.48-.68 3.64-.05 3.9a8.34 8.34 0 011.81 1.82s.27 6.81-.67 7.33-.42 3.17-.42 3.17-7.54 1.46-9.25.62a23.94 23.94 0 00-5.41-1.3l.52-1.71c0 .06-.38.62-.62-1.51s1.92-1.15 1.92-1.15 1.72.42-1-2.28-1.4-5.46-1.25-5.46a34.21 34.21 0 00.52-4 13.41 13.41 0 00.11-4.27c-.37-1.87-.68-7.7-.68-7.7s.26-4.41-.21-6 .31-4.52.47-5.2-.47-6.86-.47-6.86a19.27 19.27 0 00.21-5c-.31-2.14.31-10 .31-10l.94-9a19.45 19.45 0 00.57-4 32.57 32.57 0 01.78-5.14 5.78 5.78 0 01.41-2.5 18.66 18.66 0 00.73-4.47l5-11.44 2.44-10.09 33-.31s.12.88.32 2.47.48 3.94.79 6.84c.29 2.64.61 5.75.91 9.2.86 11.02-1.22 12.96-1.22 12.96z" fill="#3f3d56"/><path d="M966.62 617.43l-7.7 8.22s-9.88-4-8.84-5.3c.4-.53.34-2.18.11-4-.37-2.88-1.15-6.19-1.15-6.19s17.26-2.81 15.81.1a4.77 4.77 0 00-.11 3.45 12.67 12.67 0 001.88 3.72z" fill="#fbbebe"/><path d="M964.85 610.25c-.53 1.06-.79 1.17-.46 2.31-2.25 2.42-5.12 5.07-8.69 5.07a12.25 12.25 0 01-5.51-1.29c-.37-2.88-1.15-6.19-1.15-6.19s17.26-2.81 15.81.1z" opacity=".1"/><path d="M968.07 604.94a12.38 12.38 0 11-24.75 0v-.17a12.38 12.38 0 0124.75.17z" fill="#fbbebe"/><path d="M969.85 686.59c-1.63 0-7.09.06-13.19.15h-2.15c-7.23.11-14.36-1.3-17.22-1-6.08.57 2.18-5.62 2.18-5.62a50.77 50.77 0 0013.86 1.4l1.75-.09c5.53-.31 11.09-.83 14-1.7.19 1.62.47 3.95.77 6.86z" opacity=".1"/><path d="M969.85 686.27c-1.63 0-7.09.06-13.19.16h-2.15c-7.23.12-14.36-1.29-17.22-1-6.08.57 2.18-5.62 2.18-5.62a50.77 50.77 0 0013.86 1.4l1.75-.09c5.53-.31 11.09-.83 14-1.7.19 1.61.47 3.95.77 6.85z" fill="#e3a79f"/><path d="M952.37 620.86l-9.52 4.47-7.43 57.1s4.37-2 6.86-.73 10.19.11 10.19.11 5.62-.32 6.45.31 10.61-2.6 10.61-2.6 1.76-4 .41-4.58.42-6.76.42-6.76l-.83-41.18-1.67-5.3-4.47-2.7-4.54 3.62-2.19.32z" opacity=".1"/><path d="M952.37 620.23l-9.52 4.47-7.38 57.1s4.37-2 6.86-.73 10.19.1 10.19.1 5.62-.31 6.45.31 10.61-2.6 10.61-2.6 1.76-4 .41-4.57.42-6.76.42-6.76l-.83-41.18-1.67-5.31-4.47-2.7-4.59 3.64-2.19.31z" fill="#e7effd"/><path d="M952.21 622.88s2.76 3.28 2.71 4l-.16 2.28-2.08 4.22s-1.14 5.25-1.14 6.34-1.82 10.55-1.82 10.55l-2.19 14.56-2.75 19.09 2.8 4.83 3.33-2.81 4.42-34 .94-6.71s1-12.06 1-13.31a41.73 41.73 0 00-.58-4.52s.68-3.12 3.49-3.85-.21-.16-.21-.16l-1.61-1.3-1.41.57s-3.91-1.23-4.74.22z" opacity=".1"/><path d="M951.9 622.57s2.76 3.28 2.7 4-.15 2.29-.15 2.29l-2.08 4.21s-1.15 5.26-1.15 6.35-1.82 10.55-1.82 10.55l-2.18 14.56-2.76 19.08 2.81 4.84 3.33-2.81 4.42-34 .94-6.71s1-12.06 1-13.31a42.71 42.71 0 00-.57-4.53s.68-3.12 3.49-3.84-.21-.16-.21-.16l-1.61-1.3-1.41.57s-3.92-1.24-4.75.21z" fill="#3f3d56"/><path d="M950.08 617.11s-.42.32-.52 2.4a41.36 41.36 0 01-1.56 6.75s5.41-3.74 8.11-3.32z" opacity=".1"/><path d="M950.08 616.49s-.42.31-.52 2.39a41.28 41.28 0 01-1.56 6.76s5.41-3.74 8.11-3.33z" fill="#e7effd"/><path d="M964.85 615.43l-8.53 7.49s7.18 4.26 8.11 5.3 1.87-10.19 1.87-10.19z" opacity=".1"/><path d="M965.16 614.83l-8.53 7.48s7.18 4.27 8.11 5.31 1.88-10.19 1.88-10.19z" fill="#e7effd"/><path d="M950.39 617.11s-.93-.46-1.82.89a5.84 5.84 0 01-2.55 2s-9.46 1.51-9.82 2.76l-4.42.26s-1.56.21-1.72 3.48-1 3.59-1 3.59-1.82 3.22-1.66 4.89a2.71 2.71 0 01-1.4 2.49l6.5 16.9s.2 7-1 9.52-3.43 13.83-3.43 13.83.93-.21.88.41-1.14 7.44-1.14 7.44a15.13 15.13 0 01-.84 3.64c-.52.94-.57 5.82-.57 5.82l-.83 3.54s2 4.42 5 3.8 8.48-12.43 8.48-12.43l3.48-12.74 2.7-12.58.78-8.53 1.25-18.88 1.82-12.48s2.04-6.73 1.31-7.62z" opacity=".1"/><path d="M950.08 616.49s-.94-.47-1.82.88a5.81 5.81 0 01-2.55 2s-9.46 1.51-9.82 2.75l-4.42.26s-1.56.21-1.72 3.49-1 3.59-1 3.59-1.82 3.22-1.66 4.88a2.74 2.74 0 01-1.41 2.5l6.5 16.9s.21 7-1 9.51-3.44 13.84-3.44 13.84.94-.21.89.41-1.15 7.44-1.15 7.44a15 15 0 01-.83 3.64c-.52.93-.57 5.82-.57 5.82l-.83 3.54s2 4.42 5 3.79 8.48-12.43 8.48-12.43l3.48-12.73 2.7-12.59.78-8.53 1.25-18.87 1.82-12.48s2.09-6.73 1.32-7.61z" fill="#65617d"/><path d="M916.7 656.73l-3 2.08a35.47 35.47 0 01-7.9-.66l-1.68-.75-.34-.14.35.11a6.87 6.87 0 004.16.14c4.27-1.43 3.8-8.48 3.63-10.07v-.31a2.22 2.22 0 00.19.27l.19.2 1.51 3v.13z" opacity=".1"/><path d="M927.15 636.43l-1.46.42-.2 3a2 2 0 00-2.19 1.77 7.2 7.2 0 01-1.3 3s-2.86 2.39-3 4.41l-1.77 1.1s-4.11-.94-5-2.6c0 0 1.87 13.41-8.12 10.14 0 0 11.18 4.88 11.7 5.56a6.55 6.55 0 007.07 1 7.55 7.55 0 003.8-4.21s3-4.22 3.12-4.84 2.44-1.35 2.44-1.35l4.48-10.82z" fill="#65617d"/><path d="M963.65 621.69l1.51-6.86a8.19 8.19 0 001.35 2.75l2.24 1.72a12.92 12.92 0 003 1c.78 0 5 1.09 5.51 1.66s2.6.16 2.6.16 1.72.57 3.23.93 2.23 2.86 1.92 3.85a3 3 0 00.73 2.81 6.75 6.75 0 01.94 2.65 3 3 0 011.76 1.51 10.53 10.53 0 01.37 3.64l-7.74 10.92a31.9 31.9 0 01-.21 5.14c-.31.94 1.09 16.85 1.09 16.85l1.62 27.35a30.49 30.49 0 01-2.6 2c-.47.21-.94-9.67-.94-10s-12-18-12-18a16.19 16.19 0 01-1.61-3.17c0-.57-1.51-5.82-1.51-5.82l-2.29-10.14z" opacity=".1"/><path d="M989.46 636.95v.6l-7.76 10.88a31.68 31.68 0 01-.2 5.14c-.18.55.21 6.14.58 10.74.26 3.32.51 6.11.51 6.11l.68 11.6.93 15.75a29 29 0 01-2.6 2c-.47.21-.94-9.67-.94-10s-12-18-12-18a16.19 16.19 0 01-1.61-3.17c0-.57-1.51-5.82-1.51-5.82l-2.28-10.14 1-31 .88-6.86a15 15 0 002 2.75l2.23 1.72a13 13 0 003 1c.78 0 5 1.09 5.51 1.66s2.6.16 2.6.16 1.71.57 3.22.93 2.24 2.86 1.93 3.85a3 3 0 00.72 2.81 6.59 6.59 0 01.94 2.65 3 3 0 011.77 1.51 8.53 8.53 0 01.4 3.13z" fill="#65617d"/><path d="M925.9 775.49c.26 0 11.18.42 11 2.19s-11-2.19-11-2.19zm2.45 2.94s7.33 1.19 5.4 2.29-5.4-2.29-5.4-2.29zm27.24-4.08s12.17 1 10.35 2.39-6.14 1.56-6.34 1.61a56.07 56.07 0 01-4.01-4zm-1.45 5.36s6.76 1.14 7 2.44-7-2.44-7-2.44zm3.71-31.28s6.19 1.46 6.55 2.45zm-23.84 4.45s-3.22.93-.1 2.8.1-2.8.1-2.8zm14.3-49.97c.37 0 6-1.87 8-1a13.24 13.24 0 004.42.83zm.73 5.92l-.05.52-4.84 12.69s-.78 3.85-1.45 6a39.89 39.89 0 00-1 4.52l4.29-26.61z" opacity=".1"/><path d="M956.59 686.43h-2.07l-1.18-5.24 1.75-.09z" fill="#3f3d56"/><path d="M981.12 680.08l-1.29 1.07-4.32 3.56s-11.7 6.24-14.93.31c-2.84-5.22 10.43-9 13.62-9.76l.68-.17z" fill="#fbbebe"/><path d="M931.15 628.97s2.29 1 2.81 2.49-2.81-2.49-2.81-2.49zm-7.07 15.6s-3.33 4.05-2 5.61 2-5.61 2-5.61zm59.49-13.31s-3.12.31-3.23 3zm-28.91 42.63c.31-.31 7.48-10.92 9.15-10zm13.41-68.95a12.4 12.4 0 01-1.46 5.85h-.09c-.79-.17-1.2-1.08-1.8-1.65a2.42 2.42 0 00-2.8-.39 2.82 2.82 0 00-1.38 2.66c-.4-1.66-.27-3.43-.66-5.1s-1.55-3.36-3.15-3.39c-.68 0-1.48.26-2-.26-.3-.31-.36-.8-.59-1.17-1.13-1.85-4.6-.91-6 0a36.81 36.81 0 01-4.82 3.27 12.38 12.38 0 0124.75.17z" opacity=".1"/><path d="M954.16 601.15c.23.38.29.87.59 1.18.5.51 1.3.25 2 .26 1.59 0 2.75 1.72 3.14 3.39s.26 3.44.66 5.1a2.83 2.83 0 011.38-2.67 2.43 2.43 0 012.8.4c.6.57 1 1.48 1.8 1.65s1.54-.59 1.82-1.42a24.13 24.13 0 00.45-2.59c.35-1.62 1.41-2.95 2-4.49a8.19 8.19 0 00-.06-5.81c-.39-1-1-1.85-1.36-2.83-.6-1.48-.76-3.15-1.49-4.56a5.37 5.37 0 00-6.47-2.66c-1.13.42-2.11 1.24-3.26 1.61-1.54.5-3.18.12-4.77-.1s-3.35-.24-4.63.81c-1.47 1.2-1.87 3.46-3.26 4.79-.58.55-1.3.91-1.91 1.42a2.6 2.6 0 00-1.07 2.11c.09 1.08 1.14 2.06.75 3.05a2.37 2.37 0 01-.57.76 10.87 10.87 0 00-2.52 4.29c2.78.87 5.79-2.2 8-3.65 1.38-.95 4.85-1.88 5.98-.04z" fill="#3f3d56"/><path d="M981.12 680.08l-1.29 1.07c-1.14-1.9-5.83-5.7-5.83-5.7l.2-.19.68-.17z" opacity=".1"/><path d="M982.37 678.16s-.46 1.15-.95 2.16-1 1.91-1 1.17c-.06-1.46-6.09-6.35-6.09-6.35l.82-.8 1-.92z" fill="#e7effd"/><path d="M982.58 670.43l.68 11.6c-1.61-2.51-6-9-8.9-8.74l6.92-7.95a10.36 10.36 0 00.79-1c.26 3.33.51 6.09.51 6.09z" opacity=".1"/><path d="M982.37 678.16s-.46 1.15-.95 2.16c-1.81-2.49-4.3-5.43-6.29-6l1-.92z" opacity=".1"/><path d="M987.57 636.09l1.87 1.46s3.12 0 3.43 2.65 3.18 3.8 3.18 3.8 2.13 2.13 2.13 3.12 1.61 2.75 1.61 2.91 1.56 3.32 1.35 3.9 1.66 3.06 1.09 4a24 24 0 00-1.25 2.6s-2.44 4.68-3.69 5.56-7 8.32-7 8.32-6.14 7.07-6.14 9.26c0 0-6-10-9.52-9.72l6.92-8s1.2-1.3 1.25-2.08 3.33-4.37 4.89-4.52c0 0 .26-2.14-.42-2.19s-1.25-1.71-1.25-1.71-4.57-5.41-4.63-8.84 6.18-10.52 6.18-10.52z" fill="#65617d"/><path d="M990.33 641.03s-4.37 3.23-3.44 4.27 3.44-4.27 3.44-4.27zm.2 13.31s8.11-2.6 9 0zM940.31 792.5s-4.37 2.86-6.56 2.44a7.82 7.82 0 00-4.42.73 13.14 13.14 0 01-5.51 3.59c-3.53 1.19-8.47.72-11.28-.21-1.33-.44-1.44-1-.8-1.72 3.06.61 9.88 1.82 11.72.94a49.34 49.34 0 005.82-3.64s4.47-.63 5.1-.63a54.78 54.78 0 005.84-2.24zm26.45 5.85v.28s-1 2.29-6.81 3.12-5.77-1.92-5.77-1.92 0-.3.06-.74c1.78.69 5.77 1.46 12.52-.74zm-33.45-157.92s0 11.85-1 13 1-13 1-13zm46.88 3.8l1.5 4.24s.6-4.16-1.5-4.24zm-36.77-45.45c.38-1-.62-1.93-.75-3a2 2 0 00-.16.94c.06.79.65 1.52.8 2.25a1.39 1.39 0 00.11-.19zm17.26 11.2c-.38-1.64-.27-3.38-.64-5s-1.56-3.35-3.15-3.38c-.69 0-1.49.25-2-.26-.3-.31-.36-.8-.59-1.18-1.14-1.84-4.6-.91-6 0-2.13 1.42-5.05 4.38-7.78 3.71a9.94 9.94 0 00-.35 1c2.78.87 5.79-2.2 8-3.65 1.42-1 4.89-1.88 6 0 .23.38.29.87.59 1.18.5.51 1.3.25 2 .26 1.59 0 2.75 1.72 3.14 3.39s.26 3.44.66 5.1a2.74 2.74 0 01.12-1.17zm7.82-1.95c-.29.82-1 1.58-1.83 1.41s-1.19-1.08-1.79-1.65a2.45 2.45 0 00-2.81-.39 2.85 2.85 0 00-1.38 2.52 2.77 2.77 0 011.23-1.51 2.43 2.43 0 012.8.4c.6.57 1 1.48 1.8 1.65s1.54-.59 1.82-1.42a7.41 7.41 0 00.29-1.49c-.04.16-.08.32-.13.48zm2.44-7.09c-.58 1.55-1.64 2.88-2 4.5a8.33 8.33 0 00-.16 1c.36-1.62 1.41-2.94 2-4.48a8 8 0 00.48-2.16 8.34 8.34 0 01-.32 1.14z" opacity=".1"/><path fill="#dfe3ef" d="M315.35 228.01h74v76.72h-74zm95 0h74v76.72h-74z"/><path fill="#75c7a4" opacity=".2" d="M505.35 228.01h74v76.72h-74zm95 0h74v76.72h-74zm95 0h74v76.72h-74z"/><path fill="#75c7a4" opacity=".1" d="M704.238 244.107l59.014-44.648 46.289 61.183-59.014 44.647z"/><path d="M352.35 235.97a12.36 12.36 0 1012.36 12.35 12.35 12.35 0 00-12.36-12.35zm8.5 15.68c-.48-.16-1.4-.21-1.75-.62-.17-.21-.06-1-.06-1a3.69 3.69 0 001.84-.36c.23-.14.13-.16 0-.36-.65-1.09-.36-2.47-.39-3.66a3 3 0 00-1.19-2.64 3.76 3.76 0 00-1.86-.41 4.14 4.14 0 00-1.5.24c-2.52 1-1 4.35-1.9 6.26-.15.33-.36.44 0 .63a4.64 4.64 0 001.72.37v.83c-.07.29-.7.49-.94.56a7.3 7.3 0 00-1 .34.24.24 0 000 .45 4.35 4.35 0 01.69.17 6.5 6.5 0 012.73 1.48 4.07 4.07 0 011.19 2.65.74.74 0 01-.33.69l-.34.21a.16.16 0 01-.25-.14 4 4 0 00-2.72-3.87c-.81-.28-1.67-.3-2.47-.58-.25-.08-.73-.19-.83-.46a3 3 0 01-.11-.88v-.68c0-.22.38-.46.46-.6a4.55 4.55 0 00.41-1.86c.52.14.58-.81.67-1.11s.3-1.24-.15-1.4a2.42 2.42 0 00.25-.87 5.28 5.28 0 00-.07-2.34 3.69 3.69 0 00-3.52-2.46 3.77 3.77 0 00-3.77 2.25 4.92 4.92 0 00-.17 2.35 2.88 2.88 0 00.28 1.07c-.38.17-.27 1-.2 1.27s.18 1.39.72 1.24a8.81 8.81 0 00.23 1.44 2.06 2.06 0 00.49.83c.1.12.16.13.15.28a6.1 6.1 0 01-.11 1.42c-.12.45-1.11.64-1.51.72a8.62 8.62 0 00-2.46.69 10.71 10.71 0 019.09-16.17 10.75 10.75 0 017.59 3.06 10.63 10.63 0 013.21 7.63 10.8 10.8 0 01-.86 4.23 2.75 2.75 0 00-1.33-.9z" fill="#fff"/><path d="M353.48 292.65v-13.67l6.3 6.3 1.57-1.63-9-9-9 9 1.58 1.57 6.3-6.24v13.67zm95 0v-13.67l6.3 6.3 1.57-1.63-9-9-9 9 1.57 1.57 6.31-6.24v13.67z" fill="#75c7a4" opacity=".5"/><path d="M447.7 245.93a.27.27 0 00-.43 0l-5.13 6.81a.26.26 0 00.18.43l9 .78a.26.26 0 00.25-.39l-3.86-7.6zm5.85 3.62a.27.27 0 00-.43 0l-1.38 1.4a.24.24 0 000 .3l1.42 2.76a.26.26 0 00.2.13l2.51.21a.26.26 0 00.25-.39l-2.54-4.38zm.61-2.21a1.33 1.33 0 001.28-1.07 1.32 1.32 0 10-1.28 1.07z" fill="#fff"/><path d="M458.46 242.04l-3.67-.32-.34-3.74a1.52 1.52 0 00-1.65-1.37l-16.57 1.5a1.51 1.51 0 00-1.37 1.64l1.49 16.54a1.51 1.51 0 001.65 1.36l.87-.07-.08.93a1.5 1.5 0 001.38 1.63l16.58 1.45a1.52 1.52 0 001.64-1.38l1.46-16.54a1.5 1.5 0 00-1.38-1.63zm-20.51 9.56a.39.39 0 01-.41-.34l-1-11.16a.37.37 0 01.34-.41l15.57-1.4a.39.39 0 01.41.34l.27 2.95-11.25-1a1.51 1.51 0 00-1.64 1.37l-.83 9.5-1.46.14zm20.21-7.57l-1 11.16a.38.38 0 01-.41.34l-1-.09-14.54-1.26a.38.38 0 01-.35-.41l.21-2.45.77-8.7a.37.37 0 01.4-.35l11.05 1 1.65.15 2.88.25a.37.37 0 01.34.36z" fill="#fff"/><path fill="#dfe3ef" d="M315.35 380.14h169v126h-169z"/><path d="M419.24 418.84a59.35 59.35 0 00-78.72 56.08 4.21 4.21 0 01-8.42 0 67.78 67.78 0 0189.61-64.14" fill="#75c7a4"/><path d="M421.71 410.78a67.87 67.87 0 0145.89 64.14 4.21 4.21 0 11-8.42 0 59.44 59.44 0 00-39.94-56.08" fill="#fff"/><path d="M406.09 444.96h-.07a7.37 7.37 0 00-6.17 3.38 7.37 7.37 0 00-6.17-3.38h-.07a7.34 7.34 0 00-7.28 7.34 15.79 15.79 0 003.11 8.63c3.91 5.35 10.41 10 10.41 10s6.5-4.68 10.41-10a15.79 15.79 0 003.11-8.63 7.34 7.34 0 00-7.28-7.34z" fill="#75c7a4"/><path fill="#dfe3ef" d="M530.96 327.47h256.39v190.67H530.96z"/><path fill="#fff" d="M557.35 470.95h10.5v35.19h-10.5zm20-43.56h10.5v78.75h-10.5z"/><path fill="#dfe3ef" d="M597.35 388.14h10.5v118h-10.5z"/><path fill="#fff" d="M617.35 360.14h10.5v146h-10.5z"/><path fill="#75c7a4" d="M597.35 360.14h10.5v146h-10.5zm40 65.75h10.5v80.25h-10.5z"/><path fill="#fff" d="M657.35 405.14h10.5v101h-10.5zm20-31.5h10.5v132.5h-10.5z"/><path fill="#75c7a4" opacity=".2" d="M697.35 447.14h10.5v59h-10.5zm20-27.25h10.5v86.25h-10.5zm20-31.75h10.5v118h-10.5zm20 0h10.5v118h-10.5z"/><path fill="#65617d" d="M816.01 309.05l10.28-5.78 4.82 2.89 96.34 463.72-5.77 1.1-12.04-10.45-93.63-451.48z"/><path opacity=".1" d="M826.29 303.27l95.39 467.71 5.77-1.1-96.34-463.72-4.82-2.89z"/><path fill="#65617d" d="M755.38 328.62l73.32 7.02v5.67l-72.93-6.35-.39-6.34zm7.77 69.08h77.75v8.3h-78.75l1-8.3zm7.13 72.43l78.49-3.12 9.82 3.12v5.32l-69.74 3.67h-17.93l-.64-8.99z"/><path opacity=".1" d="M789.85 474.45l68.74-4.32v5.32l-69.74 3.67 1-4.67z"/><path opacity=".1" d="M770.28 470.13l19.57 4.32-1 4.67h-17.93l-.64-8.99z"/><path fill="#65617d" d="M777.39 548.74l86.66-8.04 9.55 2.49v5.55l-77.41 8.13-18.8 1.67v-9.8z"/><path opacity=".1" d="M795.86 552.2l69.13-6.95 8.61-2.06v5.55l-77.41 8.13-.33-4.67z"/><path opacity=".1" d="M776.23 553.22l19.63-1.02.33 4.67-18.8 1.67-1.16-5.32z"/><path fill="#65617d" d="M781.51 626.92l97.73-12.98 8.38 3.33v6.34l-84.3 12.68h-19.81l-2-9.37z"/><path opacity=".1" d="M803.32 632.28l84.3-15.01v6.34l-84.3 12.68v-4.01zm-20.64.11l20.64-.11v4.01h-19.81l-.83-3.9z"/><path fill="#65617d" d="M787.28 707.42l107.2-19.99 9.49 5.58v4.41l-94.06 22.82-19.39 1.47-3.24-14.29z"/><path opacity=".1" d="M809.91 715.7l94.06-22.69v4.41l-94.06 22.82v-4.54zm-20.52 1.03l20.52-1.03v4.54l-19.39 1.47-1.13-4.98z"/><path fill="#65617d" d="M762.21 297.49l-8.67 1.93 31.32 498.64 9.15 3.37h7.23l-39.03-503.94z"/><path opacity=".1" d="M757.98 298.43l36.03 503h7.23l-39.03-503.94-4.23.94z"/><path fill="#fff" d="M713.291 240.972l59.013-44.647 46.29 61.182-59.014 44.648z"/><path fill="#dfe3ef" d="M713.291 240.972l59.013-44.647 46.29 61.182-59.014 44.648z"/><path d="M783.32 270.35l-8.24-10.92 8.82 1.22.27-2.25-12.6-1.75-1.72 12.63 2.2.31 1.26-8.78 8.25 10.9z" fill="#75c7a4" opacity=".5"/><path d="M763.85 246.52a11.59 11.59 0 01-18.45-11 .93.93 0 011.06-.78.94.94 0 01.78 1.07 9.73 9.73 0 0015.48 9.27 9.73 9.73 0 00-11-16l2.19 2.89a.94.94 0 01-1.49 1.13l-2.78-3.67a.94.94 0 01.18-1.31 11.6 11.6 0 0114 18.49z" fill="#fff"/><path d="M749.9 235.72l7.1-.17a1.75 1.75 0 11.09 3.49 1.69 1.69 0 01-.56-.08l-6.79-2.1a.58.58 0 01-.38-.73.59.59 0 01.54-.41z" fill="#fff"/><path d="M872.18 493.32c-.74-2.68-1.22-5-1.22-5a10.54 10.54 0 00-1.37-5.11v-.74l-.21-5.44a18.6 18.6 0 011.27-2.9c.91-1.75-.31-8-.31-8s-4-8.7-3.3-14.34-8.42-24.6-8.42-24.6a24.25 24.25 0 01.57-5.54 4.26 4.26 0 00.06-1.16.66.66 0 000-.14c-.27-3.69-3.46-10.51-3.46-10.51l-.11-13.22s1.56-7.86-1.88-18.19c-1.21-3.61-2-6.5-2.52-8.74-.06-.25-.11-.5-.16-.73 6.22-1.2 11-2.18 11-2.18s-4.22-15.06-6.78-17.62-4.84-10.85-4.84-10.85-1.69-10.69.25-13.91 2-8.64 2-8.64 4.58-3.6 5.11-5.14a25.15 25.15 0 001.31-6.81c-.07-1.8-.72-3.4-.56-4.35s-1.55-4.51-.83-6.25a4.5 4.5 0 00.25-1.66v-.05a23.3 23.3 0 00-.58-4.44 12.71 12.71 0 00-4.76-2.32l-.12-.4-.31-1.06a4.33 4.33 0 00-.47-.25v-.39l-.1-1.54.61-3.5c1.21-6.09-6.87-6.68-6.87-6.68A4.25 4.25 0 00843 269c-1.64-.51.08 9.08.86 9.67a36.53 36.53 0 013.37 4.85l.14.24a3.45 3.45 0 00-.35.4l.39 2.08.06.32a8.36 8.36 0 00-1.2 2.24 4.7 4.7 0 011.31 3.37 10.8 10.8 0 00.64 4.16c-.09-.09-1.17-1.18-2.19-.86s-3.88 1.29-3.88 1.29-2.15.46-1.93.93-1.37 2.62-1.37 2.62l-6-5.27c-.06-.17-.13-.33-.19-.5a13.81 13.81 0 01-.59-2.38 13.87 13.87 0 001.83-.67 4 4 0 001.57-1.09 6.25 6.25 0 00.83-2.53 37.29 37.29 0 012-4.89 15.66 15.66 0 00.83-8.67 5.76 5.76 0 00-1-2.49c-1-1.26-2.74-1.73-4-2.72s-2.15-2.55-3.64-3.27a6.94 6.94 0 00-4.42-.21 23.79 23.79 0 00-8.17 3.38 4.2 4.2 0 01-2.71 1 3.7 3.7 0 01-2-1.38v-.08l-.06-.08a10.13 10.13 0 00-.74 4.38q0 .34.06.69a1.94 1.94 0 000 .24 1.47 1.47 0 010 .21 1.71 1.71 0 010 .31 2.25 2.25 0 01-.52.8 5 5 0 00-.44.66 2.17 2.17 0 01.07-.24 3.48 3.48 0 00-.54 1.86 1.89 1.89 0 00.49 1.29 6.34 6.34 0 001 .72 10.43 10.43 0 00-.1 1.94 11.22 11.22 0 005.83 9.37c.08.16.15.32.22.49a13.92 13.92 0 011.3 6.28c0 .16 0 .31-.06.47l-.2.25s-9.57.46-11.91-1.5-5.5 5.21-5.5 5.21-3.41.8-4.12.16-4.72.09-4.72.09a8.67 8.67 0 00-6.07-2 17.77 17.77 0 00-4.49-2.27h-.12a5 5 0 00-2.17-.19s-4.86-3.71-6.32-5.75-8.29-9.54-8.33-9.57v-.37l-.12-1.13a3.43 3.43 0 01-.59.07l-.14-.38a20.74 20.74 0 00-1.52-3.14s0-1.43.35-1.8-.39-5.58-.39-5.58-4.62-9.76-8.14-2.2c0 0-7 5.07-.76 10.42 0 0 2.45 1.07 2.83 2 .25.6 1.13 2.24 1.72 3.33l.27.49-.07.06.13.93v.36c-1.11.69-1.85 1.36-1.65 1.84a10.55 10.55 0 01.79 2.53s8.75 10.13 10 14.56c0 0 22.89 12.44 30.29 13.11l-1 6.69s-.24 4-.09 5.43-.58 7.92-.58 7.92-.91 9.55-1.94 10.92-.61 7.07-.61 7.07a47.93 47.93 0 01-1.16 8.13 20.68 20.68 0 000 8.09s-3.4 8.69 5.31 2.55c0 0 4.38-.44 9.42-.81v2.6c.12 4.9.35 11.65.77 16.75.74 9 4.18 26.77 4.18 26.77l.34 9a13 13 0 00-.16 2.58 16.69 16.69 0 002.76 8.89l.92 6s1.77 3.88 1.89 6.23a3.48 3.48 0 01-.05.58 3.71 3.71 0 000 .92c0 2.72 1.9 9.16 1.9 9.16s.35 6.55 1.35 6.89-1 3.82-1.53 4.83v-.18l-.11.2a4.81 4.81 0 00-.25 1.67 2.4 2.4 0 001.18 2.26c1.91 1.07 2.95 2 1.38 2.42a17 17 0 00-1.71.43c0-.07-.07-.15-.09-.21a1 1 0 00-.61 1.17 5 5 0 00.67 2.2 23.91 23.91 0 002.85 4.74l.75-.11a3.76 3.76 0 01-.41.83 3.09 3.09 0 01-1.07 1 3.62 3.62 0 01-1.32.52 3.75 3.75 0 00-2.73 1.46c-.93 1.3-1.48 3.05.51 4.49l7.12 2.15s12.07.98 11.37-1.69-1.23-5-1.23-5a10.85 10.85 0 00-1.16-4.77 6.36 6.36 0 00-.46-.69l.43-.06s.65-6 1.78-7.21c.27-.27.32-.48.25-.63.11-.33-.21-.51-.61-.6 0 .08-.05.15-.07.24a6 6 0 00-1.18-.09s-.51-3.12.72-4.31a1.2 1.2 0 00.21-.94 5.07 5.07 0 00-.18-1.27.25.25 0 000 .07 46.5 46.5 0 00-3.11-7.25s-.2-2.85.54-4-.7-15.48-.7-15.48 0-6.95-1-10.15.81-7.07.81-7.07v-.2s-.06-.43-.16-1.09v.07c-.27-1.83-.77-5.14-1.11-6.67-.47-2.17-.38-12.64-.38-12.64l1.59-4.53 3.44 7.57 3.73 10.13a8.77 8.77 0 011.86 4.3v.32a5.35 5.35 0 000 .69 6.15 6.15 0 001.16 3.62s1.07 4.81 2.49 6a5.49 5.49 0 011.51 3.56s1.94 7 2.77 8.17c.71 1 .85 3.88.88 4.75v.26s.32 2.5.4 4.62v.69A7.84 7.84 0 01851 460a.36.36 0 000 .1v-.36a17.82 17.82 0 00-.33 4.4c.05 2.53.55 5.51 2.15 7.21 2.77 2.94 4.42 2.49 4.42 2.49s-1.13 3.85-2.67 4.67a.61.61 0 00-.16.12 2.25 2.25 0 010-.22 1.82 1.82 0 00-.41 1.43 10.14 10.14 0 002.16 5.56 3.14 3.14 0 001.36.72l-.24.16a4 4 0 01-.53.28 2.85 2.85 0 01-.8.24 3.77 3.77 0 00-2.73 1.46c-.92 1.3-1.47 3.05.52 4.49l7.11 2.15s12.08 1.1 11.33-1.58z" transform="translate(-32.15 -21.57)" fill="url(#b)"/><path d="M794.09 478.01l-6.89-2.16c-1.93-1.44-1.4-3.19-.5-4.49a3.63 3.63 0 012.64-1.46 3.16 3.16 0 001.28-.51 3 3 0 001-1 5 5 0 00.67-2.66s7.38-2.47 9.5-.36a5.22 5.22 0 011 1.29 11 11 0 011.13 4.76s.48 2.36 1.2 5-11.03 1.59-11.03 1.59zm33.13-4.58l-6.89-2.16c-1.93-1.45-1.4-3.2-.51-4.49a3.57 3.57 0 012.64-1.46 2.28 2.28 0 00.77-.24 4.27 4.27 0 00.51-.27c1.86-1.12 1.72-3.69 1.72-3.69s7.37-2.47 9.5-.36a5.25 5.25 0 01.75.94 10.88 10.88 0 011.34 5.12s.47 2.36 1.19 5-11.02 1.61-11.02 1.61z" fill="#2d293d"/><path d="M801.85 465.35a5.22 5.22 0 011 1.29l-11.13 1.73a5 5 0 00.67-2.66s7.32-2.47 9.46-.36zm33.86-3.69l.08 2.09c-1.63 2.94-10.06 2.63-12.56 1.29a4.27 4.27 0 00.51-.27c1.86-1.12 1.72-3.69 1.72-3.69s7.37-2.47 9.5-.36a5.25 5.25 0 01.75.94z" opacity=".1"/><path d="M836.69 452.59a19 19 0 00-1.22 2.9l.29 7.5c-1.78 3.21-11.7 2.55-13.1.89s-3-6.07-1.5-6.89 2.58-4.67 2.58-4.67-1.6.45-4.28-2.5-2.18-9.71-1.77-11.35-.27-7-.27-7-.05-3.8-.86-5-2.69-8.17-2.69-8.17a5.6 5.6 0 00-1.47-3.56c-1.38-1.18-2.42-6-2.42-6a6.28 6.28 0 01-1.11-4c.2-2.39-1.8-4.88-1.8-4.88l-3.63-10.14-3.33-7.58-1.54 4.53s-.08 10.47.39 12.64 1.26 7.95 1.26 7.95-1.76 3.87-.78 7.07 1 10.14 1 10.14 1.41 14.32.69 15.48-.51 4-.51 4 4.22 8.21 3 9.4-.69 4.31-.69 4.31 2.66-.11 1.56 1.08-1.72 7.2-1.72 7.2l-11.44 1.77a24.3 24.3 0 01-2.76-4.74c-1.65-3.46.17-3.15 1.68-3.59s.51-1.35-1.34-2.42-.9-3.68-.9-3.68 2.58-4.76 1.61-5.1-1.31-6.9-1.31-6.9-2.2-7.71-1.8-9.82-1.8-7.07-1.8-7.07l-.89-6a16.46 16.46 0 01-2.53-11.22l-.35-9.22s-3.35-17.76-4.08-26.77c-.46-5.77-.7-13.66-.81-18.59-.06-2.76-.08-4.59-.08-4.59l40.88-5.88a33.71 33.71 0 001 6.07c.5 2.24 1.27 5.13 2.44 8.74 3.35 10.34 1.84 18.2 1.84 18.2l.13 13.22s4 8.7 3.31 11.76a25.6 25.6 0 00-.55 5.54s8.82 19 8.18 24.62 3.21 14.34 3.21 14.34 1.17 6.23.28 7.98z" fill="#575988"/><path d="M811.32 403.99l12.43-2.14s-6.8 7.49-12.43 2.14z" opacity=".05"/><path d="M821.47 389.71s.6 4.4-2 6.17c-.04 0 4.77-.95 2-6.17zm-1.3-14.03s-10.12 9-13.94 8.43 13.94-8.43 13.94-8.43zm-24.18 32.95s-7.86 2.11-8 5.3 8-5.3 8-5.3z" opacity=".1"/><path d="M799.26 448.18s-11.13 2.52-7.89 3.82a54.29 54.29 0 008.5 2.24s3.62.05-.61-6.06zm-10.07 6.17a2.21 2.21 0 01-1.09-1.59l-.11.21s-.94 2.6.91 3.67l.6.37c.33-.08.69-.14 1-.24 1.54-.44.54-1.34-1.31-2.42zm14.41-1.32c.3-.29.26-1 0-2a5.36 5.36 0 00-.53 2.77 2.26 2.26 0 01.53-.77zm-3.54-47.2a13 13 0 00-.63 3.53 14.09 14.09 0 01.78-2.44s-.06-.42-.15-1.09zm25.47-5.97a4.82 4.82 0 00.07-1.05c-.12.72-.19 1.38-.24 2 .05-.38.11-.64.17-.95zm-24.44 39.76a6.35 6.35 0 00.2-2.12 7.29 7.29 0 00-.45 2.68 2.63 2.63 0 01.25-.56zm3.04 17.81a37.07 37.07 0 00-1.08 5.89l-11.44 1.77a24.3 24.3 0 01-2.76-4.74c-.15-.31-.26-.58-.36-.83-.67.34-.92 1.07.07 3.12a23.6 23.6 0 002.76 4.75l11.43-1.78s.63-6 1.72-7.2c.54-.57.17-.84-.34-.98zm-15.84-16.46s.35 6.55 1.32 6.89c.44-1.11.72-2.15.29-2.3-1-.35-1.31-6.9-1.31-6.9s-2.2-7.71-1.81-9.82-1.79-7.07-1.79-7.07l-.9-6a16.44 16.44 0 01-2.52-11.23l-.36-9.21s-3.35-17.76-4.07-26.77c-.47-5.77-.7-13.66-.81-18.59 0-.89 0-1.68-.05-2.34h-.33s0 1.83.08 4.6c.11 4.92.35 12.81.81 18.58.73 9 4.08 26.77 4.08 26.77l.35 9.22a16.46 16.46 0 002.58 11.31l.89 6s2.19 5 1.8 7.07 1.75 9.79 1.75 9.79zm34.66 20.36a11.19 11.19 0 01-2-4.45c-1.14 1.11.37 5.17 1.7 6.74s11.31 2.33 13.09-.88l-.07-1.81c-2.46 2.64-11.4 1.97-12.72.4zm14.03-11.29a17.81 17.81 0 00-1.22 2.9l.05 1.33a20.86 20.86 0 01.88-1.94 5.84 5.84 0 00.32-2.37zm-13.8 2.03a18.55 18.55 0 00.85-2.3s-1.6.45-4.29-2.5c-1.95-2.14-2.21-6.31-2-9-.42 1.63-.92 8.41 1.76 11.35 1.71 1.87 2.99 2.35 3.68 2.45zm-5.77-20.88a50.54 50.54 0 01.41 5.62c0-.37.11-.67.16-.89.42-1.63-.27-7-.27-7s-.06-3.8-.86-5-2.7-8.17-2.7-8.17a5.59 5.59 0 00-1.47-3.56c-1.37-1.18-2.41-6-2.41-6a6.17 6.17 0 01-1.11-4c.19-2.39-1.81-4.88-1.81-4.88l-3.62-10.14-3.34-7.58-1.54 4.45v1.45l1.25-3.68 3.34 7.58 3.62 10.13s2 2.49 1.81 4.88a6.21 6.21 0 001.1 4s1 4.81 2.42 6a5.57 5.57 0 011.47 3.55s1.89 7 2.69 8.18.86 5.06.86 5.06z" opacity=".05"/><path d="M818.66 256.09l-.58 3.49.1 1.55.08 1.13-3.95.56-.48-.8a35.24 35.24 0 00-3.26-4.86c-.76-.59-2.44-10.18-.85-9.67a4.17 4.17 0 012.29 1.91s7.84.6 6.65 6.69z" fill="#ffcdd3"/><path d="M818.26 262.26l-3.95.56-.48-.8a3.49 3.49 0 014.35-.89z" opacity=".1"/><path d="M819.33 264.1l-5.18 1.42-.14-.78-.38-2.08a3.61 3.61 0 015-.89l.3 1.06z" fill="#dce6f2"/><path d="M734.36 259.71l-5.46 3.21-.55-1c-.57-1.09-1.43-2.74-1.67-3.33-.37-.91-2.74-2-2.74-2-6.06-5.36.72-10.42.72-10.42 3.4-7.55 7.89 2.21 7.89 2.21s.77 5.21.38 5.58-.34 1.8-.34 1.8a20.81 20.81 0 011.47 3.14c.2.53.3.81.3.81z" fill="#ffcdd3"/><path d="M734.36 259.71l-5.46 3.21-.55-1c.76-.69 3.47-3.06 4.39-3a7.49 7.49 0 001.32 0c.2.51.3.79.3.79z" opacity=".1"/><path d="M734.99 261.43l-6.14 3.28-.17-1.35-.13-.92s3.52-3.26 4.59-3.18a5.5 5.5 0 001.64-.07l.12 1.13z" fill="#dce6f2"/><path d="M804.35 279.71s-27.22 4.14-22.18 2.28c3.52-1.29 4.84-3.61 5-6.13a14.37 14.37 0 00-1.26-6.29 26.85 26.85 0 00-2.63-4.84s20.46-12.3 16.68-1.69a16.85 16.85 0 00-1 5 14.06 14.06 0 00.73 5 15 15 0 004.66 6.67z" fill="#ffcdd3"/><path d="M800 263.04a16.85 16.85 0 00-1 5c-1.9 1.73-4.07 1.7-6.84 1.81-2.13.08-4.47.69-6.21-.28a26.85 26.85 0 00-2.63-4.84s20.46-12.3 16.68-1.69z" opacity=".1"/><circle cx="791.39" cy="259.28" r="11.31" fill="#ffcdd3"/><path d="M804.35 279.71s-27.22 4.14-22.18 2.28c3.52-1.29 4.84-3.61 5-6.13 1.31-1.52 4-2.69 5.74-3.33a8.21 8.21 0 014.95-.27 7 7 0 011.83.77 15 15 0 004.66 6.68zm14.98-15.61l-5.18 1.42-.14-.78a4.62 4.62 0 015-1.91zm-84.34-2.67l-6.14 3.28-.17-1.35a46.47 46.47 0 016.22-3zm82.86 86.76c-10.53 2.08-25.51 4.84-27.93 4.2-2-.53-8.34-.22-13.85.18-.06-2.76-.08-4.59-.08-4.59l40.86-5.86a33.71 33.71 0 001 6.07z" opacity=".1"/><path d="M828.28 345.3s-34.64 7.33-38.43 6.33-23 1-23 1c-8.42 6.13-5.14-2.56-5.14-2.56a21.14 21.14 0 010-8.09 49.25 49.25 0 001.14-8.15s-.41-5.69.58-7.06 1.86-10.92 1.86-10.92.7-6.5.56-7.92.07-5.43.07-5.43l1-6.69c-7.16-.68-29.33-13.15-29.33-13.15-1.22-4.42-9.7-14.56-9.7-14.56a10.72 10.72 0 00-.76-2.54c-.63-1.5 7.8-4.87 7.8-4.87s6.67 7.55 8.08 9.59 6.12 5.75 6.12 5.75a4.56 4.56 0 012.1.2.45.45 0 01.11 0 16.91 16.91 0 014.35 2.28 8.24 8.24 0 015.87 2s3.88-.72 4.57-.08 4-.15 4-.15 3.05-7.16 5.32-5.2 11.53 1.51 11.53 1.51c1.17-1.69 4.13-3 6-3.67a8.22 8.22 0 014.95-.27 6.4 6.4 0 012 .87l5.83 5.29s1.54-2.15 1.33-2.62 1.87-.92 1.87-.92 2.72-1 3.75-1.29 2 .77 2.13.86a11 11 0 01-.64-4.15 4.75 4.75 0 00-1.27-3.38c3-8.3 10.78-1.75 10.78-1.75s1 4.44.33 6.18 1 5.29.81 6.24.48 2.55.55 4.36a25.92 25.92 0 01-1.26 6.8c-.51 1.55-4.94 5.14-4.94 5.14s-.07 5.43-2 8.64-.23 13.9-.23 13.9 2.23 8.29 4.7 10.86 6.61 17.62 6.61 17.62z" fill="#656691"/><path d="M775.05 284.74s-1.17-3.09-2.13-3.34a22.45 22.45 0 01-2.8-1.13l.57-1.19s3.6.84 4.21 1.86.15 3.8.15 3.8zm-19.36-6.2c-.16 1-8.58 2.14-8.58 2.14l4.11-4.45h.11a16.91 16.91 0 014.36 2.31z" opacity=".1"/><circle cx="730.72" cy="266.44" r=".76" fill="#575988"/><circle cx="731.75" cy="267.92" r=".76" fill="#575988"/><circle cx="732.76" cy="269.29" r=".76" fill="#575988"/><circle cx="733.81" cy="270.77" r=".76" fill="#575988"/><circle cx="823.36" cy="267.24" r=".62" fill="#575988"/><circle cx="823.51" cy="268.64" r=".62" fill="#575988"/><circle cx="823.65" cy="270.03" r=".62" fill="#575988"/><path d="M776.09 310.49c-.1-.11 22.36 26.11 38.39 9.84 0 0-26.14 4.58-38.39-9.84zm-11.77 14.53s12.83-.14 14.32 3.49l.14 3.84a2.43 2.43 0 01-2.38.09c-1.32-.65-9.22-4.29-11.88-2.29z" opacity=".1"/><path d="M764.56 325.01s12.27-.14 13.69 3.33l.14 3.66a2.35 2.35 0 01-2.28.08c-1.26-.61-8.82-4.08-11.36-2.18z" fill="#656691"/><path d="M770.25 296.92a41.14 41.14 0 005.3 8.34 33.42 33.42 0 008.07 7.21s-13.09-13.79-13.37-15.55zm-4.77-14.73s2.5 9.15 8.13 12.07zm-3.24 1.06c-.06-.17-1.62 7.37 7.54 11.16 0 .02-3.87-1.15-7.54-11.16zm55.72-8.34c-.14 0 4.56 2.75 5.85 4 .04.05-3.15-4.3-5.85-4z" opacity=".1"/><path d="M788.72 269.65a2.45 2.45 0 00.94 1.49 2.47 2.47 0 001.08.2c3.45.08 7.05.09 10.18-1.36a3.87 3.87 0 001.52-1.09 6.38 6.38 0 00.81-2.53 35.55 35.55 0 011.9-4.89 16.18 16.18 0 00.79-8.66 5.92 5.92 0 00-1-2.49c-1-1.27-2.65-1.74-3.9-2.73s-2.09-2.55-3.53-3.28a6.59 6.59 0 00-4.28-.21 22.55 22.55 0 00-7.85 3.29 3.94 3.94 0 01-2.62 1 3.66 3.66 0 01-2-1.42 10.44 10.44 0 00-.65 4.95 2.36 2.36 0 010 .75 2.25 2.25 0 01-.5.8c-.81 1-1.28 2.6-.4 3.57.38.42 1 .64 1.33 1.06.66.77.49 1.92.52 2.94a1.48 1.48 0 00.28 1 1.45 1.45 0 001.41.28 4 4 0 011.48-.2 2.52 2.52 0 011.33.95 17.57 17.57 0 013.16 6.58z" fill="#2d293d"/><path d="M802.78 268.01a3.86 3.86 0 01-1.51 1.09c-3.14 1.45-6.73 1.43-10.19 1.35a2.3 2.3 0 01-1.07-.2 2.35 2.35 0 01-.94-1.49 17.72 17.72 0 00-3.14-6.58 2.45 2.45 0 00-1.33-.94 3.79 3.79 0 00-1.48.2 1.49 1.49 0 01-1.41-.28 1.54 1.54 0 01-.29-1c0-1 .15-2.17-.52-2.94-.37-.43-.94-.64-1.33-1.07a2.22 2.22 0 01-.3-2.26 2.61 2.61 0 000 3c.39.42 1 .63 1.33 1.06.67.77.5 1.92.52 2.94a1.54 1.54 0 00.29 1 1.44 1.44 0 001.41.28 4 4 0 011.48-.2 2.52 2.52 0 011.33.95 17.6 17.6 0 013.14 6.57 2.4 2.4 0 00.94 1.5 2.43 2.43 0 001.07.2c3.46.08 7 .09 10.19-1.36a3.77 3.77 0 001.51-1.09 3 3 0 00.46-.93zm-22.63-15.58a1.55 1.55 0 00.32-.59 2 2 0 000-.74 10.57 10.57 0 01.37-4.11l-.06-.07a10.45 10.45 0 00-.66 4.95 2.63 2.63 0 01.03.56zm6.82 24.15s14.2 1.33 15.38-.85m11.85-6.05s7.85-.3 9.69 2.58" opacity=".1"/><path fill="#fff" d="M828.813 618.841l74 .117-.12 76.72-74-.117z"/><path fill="#fff" d="M828.813 618.841l74 .117-.12 76.72-74-.117z"/><path d="M866.79 684.65v-13.66l6.29 6.31 1.58-1.63-9-9-9 9 1.57 1.57 6.31-6.23v13.67z" fill="#75c7a4" opacity=".5"/><path d="M853.41 638.37h12.27v-12.26h-.88a11.41 11.41 0 00-11.42 11.41c0 .27.01.58.03.85z" fill="#dfe3ef"/><path d="M857.65 646.43a11.42 11.42 0 109.78-18.53v12.23h-12.26a11.38 11.38 0 002.48 6.3z" fill="#dfe3ef"/><path d="M213.79 103.28c-6.45 13.32-17 28.49-28.93 22.69s-20.84-30.36-14.39-43.68 21.38-19.43 33.38-13.63 16.4 21.29 9.94 34.62z" fill="#75c7a4"/><path d="M188.26 134.43s-2.33-.38-1.44-2.31a3.17 3.17 0 01.28-.49 5.49 5.49 0 00.76-1.79 5.79 5.79 0 00.13-.68 9.1 9.1 0 00-.11-3.1l6.35-.42s-2.47 2.11-2.18 3.2a.68.68 0 00.29.39 1.39 1.39 0 00.42.18 4 4 0 01.48.14c1.67.58 1 1.43 1 1.43-.25 2.7-5.98 3.45-5.98 3.45z" fill="#75c7a4"/><path d="M192.34 129.2l-4.48.61a5.79 5.79 0 00.13-.68c1.13 0 2.92-.21 4.06-.32a.68.68 0 00.29.39z" fill="#444053"/><path d="M188.26 134.43s-2.33-.38-1.44-2.31a7 7 0 002.75.11 6.11 6.11 0 003.67-2.68c1.67.58 1 1.43 1 1.43-.25 2.7-5.98 3.45-5.98 3.45z" fill="#75c7a4"/><path d="M188.26 134.43s-2.33-.38-1.44-2.31a7 7 0 002.75.11 6.11 6.11 0 003.67-2.68c1.67.58 1 1.43 1 1.43-.25 2.7-5.98 3.45-5.98 3.45z" opacity=".1"/><path d="M191.65 70.03s-7.1-.85-9.11 3.87a5.88 5.88 0 012.55.15 3.62 3.62 0 001.66.32 9.52 9.52 0 014.9-4.34z" fill="#fff" opacity=".1"/><path d="M177.55 166.67a18.3 18.3 0 01-4 3.32c-.41.26-.84.52-1.28.76-11.31 6.22-31.3 6.33-40.67-1.93-8.75-7.71-11.77-19.27-8.37-28.72.17-.46.35-.91.55-1.37a21.79 21.79 0 013.63-5.69c7.11-8.06 19-9.7 29.19-4.84a25.83 25.83 0 012.63 1.43c.41.24.82.51 1.22.78a29.38 29.38 0 013 2.31c.52.46 1 .93 1.57 1.41l.13.12a78.17 78.17 0 018.87 9.44c.82 1.05 1.6 2.11 2.29 3.19.49.74 1 1.49 1.38 2.24a19.7 19.7 0 012.94 10c0 .32 0 .64-.07 1v.15a11.09 11.09 0 01-1.1 3.67 12.92 12.92 0 01-1.91 2.73z" fill="#75c7a4"/><path d="M177.55 166.67a18.3 18.3 0 01-4 3.32c-.41.26-.84.52-1.28.76-11.31 6.22-31.3 6.33-40.67-1.93-8.75-7.71-11.77-19.27-8.37-28.72.17-.46.35-.91.55-1.37a21.79 21.79 0 013.63-5.69c7.11-8.06 19-9.7 29.19-4.84a25.83 25.83 0 012.63 1.43c.41.24.82.51 1.22.78a29.38 29.38 0 013 2.31c.52.46 1 .93 1.57 1.41l.13.12a78.17 78.17 0 018.87 9.44c.82 1.05 1.6 2.11 2.29 3.19.49.74 1 1.49 1.38 2.24a19.7 19.7 0 012.94 10c0 .32 0 .64-.07 1v.15a11.09 11.09 0 01-1.1 3.67 12.92 12.92 0 01-1.91 2.73z" opacity=".1"/><path d="M183.98 166.43a3 3 0 01-.4-.4 5.45 5.45 0 00-1.52-1.21 5.25 5.25 0 00-.63-.31 8.26 8.26 0 00-2-.6 7.17 7.17 0 00-1-.12l.9-4.3v-.06l.39-1.87a12 12 0 00.9 1.57c.46.7 1 1.38 1.6 1.39a.73.73 0 00.44-.18 1.23 1.23 0 00.29-.36c.1-.16.18-.3.27-.43 1-1.44 1.63-.53 1.63-.53 1.14.41 1.61 1.76 1.78 3.13q0 .3.06.6a15.78 15.78 0 01-.1 2.91s-.99 2.14-2.61.77z" fill="#75c7a4"/><path d="M182.06 164.81a5.25 5.25 0 00-.63-.31c.22-.93.49-2.34.68-3.43 0-.08 0-.15.05-.23s0-.23.06-.33a.73.73 0 00.44-.18l-.09.68v.27z" fill="#444053"/><path d="M183.98 166.43a7.27 7.27 0 00.84-2.63 5.61 5.61 0 00-.19-1.65c-.05-.17-.09-.32-.15-.48a4.93 4.93 0 00-1.26-2.12c1-1.44 1.63-.53 1.63-.53 1.14.41 1.61 1.76 1.78 3.13q0 .3.06.6a15.78 15.78 0 01-.1 2.91s-.99 2.14-2.61.77z" fill="#75c7a4"/><path d="M183.98 166.43a7.27 7.27 0 00.84-2.63 5.61 5.61 0 00-.19-1.65c-.05-.17-.09-.32-.15-.48a4.93 4.93 0 00-1.26-2.12c1-1.44 1.63-.53 1.63-.53 1.14.41 1.61 1.76 1.78 3.13q0 .3.06.6a15.78 15.78 0 01-.1 2.91s-.99 2.14-2.61.77z" opacity=".1"/><path d="M125.48 145.14s-2.72 6.61 1.29 9.82a5.72 5.72 0 01.83-2.42 3.56 3.56 0 00.75-1.52 9.48 9.48 0 01-2.87-5.88z" fill="#fff" opacity=".1"/><path d="M227.27 125.3c-5.4 3.47-11.63 6.83-17.55 8.61-4.55 1.39-8.91 1.82-12.56.66a11.35 11.35 0 01-4.26-2.45 12.68 12.68 0 01-2.15-2.56c-4.23-6.61-4.15-18.23-.8-28.3 2.33-7 6.22-13.2 11.33-16.47 12.46-8 28.38-5.41 35.56 5.78s2.89 26.74-9.57 34.73z" fill="#75c7a4"/><path d="M227.27 125.3c-5.4 3.47-11.63 6.83-17.55 8.61-4.55 1.39-8.91 1.82-12.56.66a11.35 11.35 0 01-4.26-2.45 12.68 12.68 0 01-2.15-2.56c-4.23-6.61-4.15-18.23-.8-28.3 2.33-7 6.22-13.2 11.33-16.47 12.46-8 28.38-5.41 35.56 5.78s2.89 26.74-9.57 34.73z" opacity=".1"/><path d="M196.11 138.67c-1.6 2.23-6.86-.15-6.86-.15s-1.79-1.55 0-2.72a3.87 3.87 0 01.5-.27 5.94 5.94 0 001.59-1.13c.16-.17.32-.34.46-.52a8.94 8.94 0 001.13-1.76 7.14 7.14 0 00.39-.94l5.64 3a12.79 12.79 0 00-1.77.43c-.81.26-1.61.65-1.76 1.16a.63.63 0 000 .48 1.19 1.19 0 00.27.37 4.94 4.94 0 01.33.37c1.13 1.33.08 1.68.08 1.68z" fill="#75c7a4"/><path d="M195.44 136.21l-4.13-1.78c.16-.17.32-.34.46-.52 1 .55 2.6 1.35 3.63 1.85a.63.63 0 00.04.45z" fill="#444053"/><path d="M196.11 138.67c-1.6 2.23-6.86-.15-6.86-.15s-1.79-1.55 0-2.72a7.25 7.25 0 002.3 1.53 6.05 6.05 0 004.52-.38c1.09 1.37.04 1.72.04 1.72z" fill="#75c7a4"/><path d="M196.11 138.67c-1.6 2.23-6.86-.15-6.86-.15s-1.79-1.55 0-2.72a7.25 7.25 0 002.3 1.53 6.05 6.05 0 004.52-.38c1.09 1.37.04 1.72.04 1.72z" opacity=".1"/><path d="M225.74 85.43s-5.61-4.44-9.79-1.46a5.76 5.76 0 012.09 1.46 3.63 3.63 0 001.26 1.14 9.49 9.49 0 016.44-1.14z" fill="#fff" opacity=".1"/><g opacity=".1"><path d="M114.63 120.79a5.62 5.62 0 00-.82 2.41c-4-3.19-1.29-9.81-1.29-9.81a9.55 9.55 0 002.86 5.89 3.56 3.56 0 01-.75 1.51zm50.83 11.24l1.3-6.22a13 13 0 00.9 1.56 11.23 11.23 0 01-1.2 4.78 9.36 9.36 0 00-1-.12zm-.32 2.22c-.17.22-.36.45-.55.67a18.36 18.36 0 01-4 3.32c-.4.27-.83.52-1.27.76-9.7 5.34-25.78 6.18-36.08 1.1a22 22 0 014.18-7.06c7.11-8.06 19-9.7 29.19-4.84a29.43 29.43 0 016.83 4.52c.56.5 1.14 1 1.7 1.53z"/><path d="M171.02 134.67a2.52 2.52 0 01-.4-.4 5.79 5.79 0 00-1.52-1.21c-.2-.11-.42-.22-.63-.31a8.65 8.65 0 00-2-.6 9.36 9.36 0 00-1-.12l1.3-6.22a13 13 0 00.9 1.56c.46.7 1.05 1.38 1.6 1.39a.68.68 0 00.44-.18 1.11 1.11 0 00.29-.36l.26-.42c1-1.44 1.64-.54 1.64-.54 2.57.93 1.74 6.64 1.74 6.64s-1.01 2.15-2.62.77z"/><path d="M169.1 133.06c-.2-.11-.42-.22-.63-.31.26-1.1.58-2.87.79-4a.68.68 0 00.44-.18zm1.92 1.61a7.28 7.28 0 00.84-2.62 6.11 6.11 0 00-1.61-4.25c1-1.44 1.64-.54 1.64-.54 2.57.93 1.74 6.64 1.74 6.64s-1 2.15-2.61.77z"/><path d="M171.02 134.67a7.28 7.28 0 00.84-2.62 6.11 6.11 0 00-1.61-4.25c1-1.44 1.64-.54 1.64-.54 2.57.93 1.74 6.64 1.74 6.64s-1 2.15-2.61.77zm-57.17-11.47c-4-3.19-1.29-9.81-1.29-9.81a9.55 9.55 0 002.86 5.89 3.56 3.56 0 01-.75 1.51 5.62 5.62 0 00-.82 2.41z" opacity=".1"/></g><path d="M165.41 133.69l-.4.44a18.35 18.35 0 01-3.6 2.88l-.38.24c-.29.18-.59.35-.89.52-9.79 5.38-26.07 6.19-36.35 1a20.33 20.33 0 01-4.32-2.88c-11.11-9.79-13-25.81-4.2-35.79 7.12-8.06 19-9.7 29.2-4.83.32.15.63.3.95.47a29.75 29.75 0 015.88 4 82.48 82.48 0 0110.57 11c.65.83 1.27 1.67 1.84 2.51.16.22.3.46.45.68.28.41.54.83.79 1.25s.39.67.58 1a19.59 19.59 0 012.95 10 11.23 11.23 0 01-1.2 4.78 12.51 12.51 0 01-1.87 2.73z" fill="#75c7a4"/><path d="M171.85 133.43a2.52 2.52 0 01-.4-.4 5.59 5.59 0 00-1.52-1.21 5.25 5.25 0 00-.63-.31 8.65 8.65 0 00-2-.6 9.36 9.36 0 00-1-.12l1.3-6.22a13 13 0 00.9 1.56c.46.7 1.05 1.38 1.6 1.39a.73.73 0 00.44-.18 1.23 1.23 0 00.29-.36c.09-.16.18-.3.26-.42 1-1.45 1.64-.54 1.64-.54 2.57.93 1.74 6.64 1.74 6.64s-1.02 2.16-2.62.77z" fill="#75c7a4"/><path d="M169.92 131.83a5.25 5.25 0 00-.63-.31c.26-1.1.58-2.87.79-4a.73.73 0 00.44-.18z" fill="#444053"/><path d="M171.85 133.43a7.28 7.28 0 00.84-2.62 6.11 6.11 0 00-1.61-4.25c1-1.45 1.64-.54 1.64-.54 2.57.93 1.74 6.64 1.74 6.64s-1.01 2.16-2.61.77z" fill="#75c7a4"/><path d="M171.85 133.43a7.28 7.28 0 00.84-2.62 6.11 6.11 0 00-1.61-4.25c1-1.45 1.64-.54 1.64-.54 2.57.93 1.74 6.64 1.74 6.64s-1.01 2.16-2.61.77z" opacity=".1"/><path d="M113.34 112.16s-2.73 6.61 1.29 9.82a5.8 5.8 0 01.82-2.42 3.68 3.68 0 00.76-1.52 9.48 9.48 0 01-2.87-5.88z" fill="#fff" opacity=".1"/><g opacity=".1"><path d="M154.25 67.55a3.5 3.5 0 01-1.68.24 5.76 5.76 0 00-2.45.68c.37-5.12 7.38-6.6 7.38-6.6a9.54 9.54 0 00-3.25 5.68zm9.91 46.35c.49.74.95 1.49 1.37 2.25a22.87 22.87 0 01-2.78-1.2c-7.18-3.63-14.3-11.39-18.28-19.72a29.38 29.38 0 016.83 4.51 82.48 82.48 0 0110.57 11c.82 1.02 1.59 2.08 2.29 3.16zm12.9 1.38a11.43 11.43 0 01-4.62 1.72 7.28 7.28 0 00-.47-.9l5.88-2.45a12.69 12.69 0 00-.79 1.63z"/><path d="M175.04 123.89s-2.33.39-2.11-1.71a3.07 3.07 0 01.11-.56 5.84 5.84 0 00.14-1.94 5.21 5.21 0 00-.1-.69 8.17 8.17 0 00-.64-2 7.28 7.28 0 00-.47-.9l5.88-2.45a12.69 12.69 0 00-.79 1.63c-.32.79-.54 1.65-.24 2.11a.72.72 0 00.4.26 1.23 1.23 0 00.45 0h.5c1.77 0 1.37 1 1.37 1 .69 2.72-4.5 5.25-4.5 5.25z"/><path d="M177.22 117.65l-4 2a5.21 5.21 0 00-.1-.69c1.06-.41 2.7-1.14 3.74-1.6a.72.72 0 00.36.29zm-2.18 6.24s-2.33.39-2.11-1.71a7.44 7.44 0 002.64-.79 6.09 6.09 0 002.6-3.72c1.77 0 1.37 1 1.37 1 .69 2.69-4.5 5.22-4.5 5.22z"/><path d="M175.04 123.89s-2.33.39-2.11-1.71a7.44 7.44 0 002.64-.79 6.09 6.09 0 002.6-3.72c1.77 0 1.37 1 1.37 1 .69 2.69-4.5 5.22-4.5 5.22zm-20.79-56.34a3.5 3.5 0 01-1.68.24 5.76 5.76 0 00-2.45.68c.37-5.12 7.38-6.6 7.38-6.6a9.54 9.54 0 00-3.25 5.68z" opacity=".1"/></g><path d="M177.47 114.67a11.41 11.41 0 01-4.62 1.76 12.43 12.43 0 01-3.34 0 17.35 17.35 0 01-4.56-1.24c-.6-.24-1.19-.51-1.78-.81l-.12-.06c-6.83-3.49-13.59-10.71-17.63-18.58-2.75-5.36-4.24-11-3.62-16 1.82-14.69 14-25.28 27.18-23.65s22.42 14.86 20.6 29.55a82.36 82.36 0 01-3.1 14.93c-.13.43-.27.85-.42 1.27-1.94 5.59-4.7 10.33-8.59 12.83z" fill="#75c7a4"/><path d="M177.47 114.67a11.41 11.41 0 01-4.62 1.76 12.43 12.43 0 01-3.34 0 17.35 17.35 0 01-4.56-1.24c-.6-.24-1.19-.51-1.78-.81l-.12-.06c-6.83-3.49-13.59-10.71-17.63-18.58-2.75-5.36-4.24-11-3.62-16 1.82-14.69 14-25.28 27.18-23.65s22.42 14.86 20.6 29.55a82.36 82.36 0 01-3.1 14.93c-.13.43-.27.85-.42 1.27-1.94 5.59-4.7 10.33-8.59 12.83z" opacity=".1"/><path d="M175.45 123.28s-2.33.39-2.11-1.72a3.24 3.24 0 01.11-.56 5.78 5.78 0 00.14-1.93 5.36 5.36 0 00-.1-.7 8.32 8.32 0 00-.64-2 7.28 7.28 0 00-.47-.9l5.88-2.45a13.24 13.24 0 00-.79 1.64c-.32.78-.54 1.65-.24 2.1a.73.73 0 00.4.27 1.26 1.26 0 00.45 0h.5c1.77 0 1.37 1 1.37 1 .69 2.72-4.5 5.25-4.5 5.25z" fill="#75c7a4"/><path d="M177.63 117.04l-4 2a5.36 5.36 0 00-.1-.7c1.06-.41 2.7-1.14 3.74-1.6a.73.73 0 00.36.3z" fill="#444053"/><path d="M175.45 123.28s-2.33.39-2.11-1.72a7 7 0 002.64-.79 6.06 6.06 0 002.6-3.72c1.77 0 1.37 1 1.37 1 .69 2.7-4.5 5.23-4.5 5.23z" fill="#75c7a4"/><path d="M175.45 123.28s-2.33.39-2.11-1.72a7 7 0 002.64-.79 6.06 6.06 0 002.6-3.72c1.77 0 1.37 1 1.37 1 .69 2.7-4.5 5.23-4.5 5.23z" opacity=".1"/><path d="M157.9 61.25s-7 1.49-7.37 6.61a5.62 5.62 0 012.46-.68 3.64 3.64 0 001.67-.24 9.57 9.57 0 013.24-5.69z" fill="#fff" opacity=".1"/><path d="M251.08 174.64c-8.69 10.06-24.82 10.37-36 .69-5.44-4.7-11.06-10.44-14.39-16.25a19.61 19.61 0 01-3-10 11.41 11.41 0 011.13-4.79 13.1 13.1 0 011.85-2.79 22.92 22.92 0 018.9-5.87c11.52-4.57 28.54-4.08 37 3.26 11.16 9.69 13.2 25.69 4.51 35.75z" fill="#75c7a4"/><path d="M198.53 150.66a12.13 12.13 0 00-.91-1.57c-.48-.7-1.07-1.37-1.61-1.37a.63.63 0 00-.45.18 1.62 1.62 0 00-.29.36 4.06 4.06 0 01-.26.43c-1 1.46-1.63.56-1.63.56-2.58-.91-1.8-6.63-1.8-6.63s1-2.16 2.6-.8a3.06 3.06 0 01.41.4 5.59 5.59 0 001.53 1.2 6.09 6.09 0 00.63.3 9.09 9.09 0 002 .58 8.22 8.22 0 001 .11z" fill="#75c7a4"/><path d="M196.01 147.72a.63.63 0 00-.45.18l.56-4.48a6.09 6.09 0 00.63.3c-.25 1.11-.55 2.88-.74 4z" fill="#444053"/><path d="M195.01 148.69c-1 1.46-1.63.56-1.63.56-2.58-.91-1.8-6.63-1.8-6.63s1-2.16 2.6-.8a7.09 7.09 0 00-.8 2.63 6.08 6.08 0 001.63 4.24z" fill="#75c7a4"/><path d="M195.01 148.69c-1 1.46-1.63.56-1.63.56-2.58-.91-1.8-6.63-1.8-6.63s1-2.16 2.6-.8a7.09 7.09 0 00-.8 2.63 6.08 6.08 0 001.63 4.24z" opacity=".1"/><path d="M252.85 162.53s2.66-6.65-1.38-9.81a5.78 5.78 0 01-.81 2.43 3.6 3.6 0 00-.74 1.52 9.48 9.48 0 012.93 5.86z" fill="#fff" opacity=".1"/><path d="M200.66 159.08a19.61 19.61 0 01-3-10c-.48-.7-1.07-1.37-1.61-1.37a.63.63 0 00-.45.18 1.62 1.62 0 00-.29.36 4.06 4.06 0 01-.26.43c-1 1.46-1.63.56-1.63.56-2.58-.91-1.8-6.63-1.8-6.63s1-2.16 2.6-.8a3.06 3.06 0 01.41.4 5.59 5.59 0 001.53 1.2 6.09 6.09 0 00.63.3 9.09 9.09 0 002 .58 13.1 13.1 0 011.85-2.79 22.92 22.92 0 018.9-5.87c-1.4 8.87-4.01 18.2-8.88 23.45zm-14.03 3.06a15.72 15.72 0 01-2.15-.48c-.64-.18-1.27-.4-1.91-.65l-.41-.17c-.53-.23-1.08-.49-1.61-.76s-.81-.43-1.22-.66c-7.61-4.39-15-13.21-18.3-22.17a29.3 29.3 0 01-1.79-7.62 20.47 20.47 0 01.06-4.15 29.34 29.34 0 013.75-11.2c.22-.36.43-.71.66-1.06 5-7.71 13.41-12.37 22.35-11.44-1.94 5.61-4.7 10.39-8.59 12.89-.32.78-.54 1.65-.24 2.1a.73.73 0 00.4.27 1.26 1.26 0 00.45 0h.5c1.77 0 1.37 1 1.37 1 .69 2.65-4.5 5.18-4.5 5.18s-2.33.39-2.11-1.72a3.24 3.24 0 01.11-.56 5.78 5.78 0 00.14-1.93 5.36 5.36 0 00-.1-.7 8.32 8.32 0 00-.64-2 12.43 12.43 0 01-3.34 0 17.35 17.35 0 01-4.56-1.24c.21.33.39.67.58 1a19.59 19.59 0 012.95 10c.46.7 1.05 1.38 1.6 1.39a.73.73 0 00.44-.18 1.23 1.23 0 00.29-.36c.09-.16.18-.3.26-.42 1-1.45 1.64-.54 1.64-.54 2.57.93 1.74 6.64 1.74 6.64s-1 2.15-2.61.77a2.52 2.52 0 01-.4-.4 5.59 5.59 0 00-1.52-1.21 5.25 5.25 0 00-.63-.31 8.65 8.65 0 00-2-.6 12.51 12.51 0 01-1.87 2.77l-.4.44.13.12a78.17 78.17 0 018.87 9.44c.82 1.05 1.6 2.11 2.29 3.19.49.74 1 1.49 1.38 2.24a19.7 19.7 0 012.94 10c.46.7 1 1.38 1.6 1.39a.73.73 0 00.44-.18 1.23 1.23 0 00.29-.36c.1-.16.18-.3.27-.43 1-1.44 1.63-.53 1.63-.53 1.13.49 1.6 1.83 1.77 3.2z" opacity=".1"/><g opacity=".1"><path d="M175.24 112.12a3.6 3.6 0 01-1.68.23 5.83 5.83 0 00-2.46.68c.38-5.11 7.38-6.59 7.38-6.59a9.49 9.49 0 00-3.24 5.68zm34.91 18.64c-.12 1-.27 2.09-.43 3.15-4.55 1.39-8.91 1.82-12.56.66-.81.26-1.61.65-1.76 1.16a.63.63 0 000 .48 1.19 1.19 0 00.27.37 4.94 4.94 0 01.33.37c1.12 1.37.07 1.72.07 1.72-1.6 2.23-6.86-.15-6.86-.15s-1.79-1.55 0-2.72a3.87 3.87 0 01.5-.27 5.94 5.94 0 001.59-1.13c.16-.17.32-.34.46-.52a8.94 8.94 0 001.13-1.76 12.68 12.68 0 01-2.15-2.56c-4.23-6.61-4.15-18.23-.8-28.3 12.99 1.85 22.01 14.96 20.21 29.5zm-12.11 29.08a11.38 11.38 0 01-4.61 1.72 7.28 7.28 0 00-.47-.9l5.88-2.44a13 13 0 00-.8 1.62z"/><path d="M196.03 168.43s-2.34.39-2.11-1.72a3.16 3.16 0 01.1-.56 5.53 5.53 0 00.14-1.93 5.36 5.36 0 00-.09-.7 9 9 0 00-.64-2 7.28 7.28 0 00-.47-.9l5.88-2.44a13 13 0 00-.8 1.62c-.31.79-.53 1.66-.23 2.11a.63.63 0 00.39.27 1.13 1.13 0 00.46 0h.5c1.77 0 1.37 1 1.37 1 .68 2.75-4.5 5.25-4.5 5.25z"/><path d="M198.2 162.22l-4 2q0-.34-.09-.69c1.05-.41 2.7-1.14 3.74-1.6a.63.63 0 00.35.29zm-2.18 6.21s-2.33.39-2.11-1.72a6.94 6.94 0 002.64-.79 6.08 6.08 0 002.61-3.72c1.77 0 1.37 1 1.37 1 .68 2.73-4.51 5.23-4.51 5.23z"/><path d="M196.02 168.43s-2.33.39-2.11-1.72a6.94 6.94 0 002.64-.79 6.08 6.08 0 002.61-3.72c1.77 0 1.37 1 1.37 1 .68 2.73-4.51 5.23-4.51 5.23zm-20.78-56.31a3.6 3.6 0 01-1.68.23 5.83 5.83 0 00-2.46.68c.38-5.11 7.38-6.59 7.38-6.59a9.49 9.49 0 00-3.24 5.68z" opacity=".1"/></g><path d="M208.72 131.59c-1.81 14.69-6.87 32.44-20.07 30.84s-29.52-22-27.71-36.72 14-25.28 27.18-23.65 22.42 14.83 20.6 29.53z" fill="#75c7a4"/><path d="M194.59 169.28s-2.34.39-2.11-1.72a4.78 4.78 0 01.1-.56 5.54 5.54 0 00.15-1.93c0-.24-.06-.47-.1-.69a9.08 9.08 0 00-1.11-2.9l5.88-2.44s-1.66 2.79-1 3.73a.66.66 0 00.4.27 1.06 1.06 0 00.45 0h.5c1.77 0 1.37 1 1.37 1 .66 2.71-4.53 5.24-4.53 5.24z" fill="#75c7a4"/><path d="M196.77 163.04l-4 2c0-.24-.06-.47-.1-.69 1.06-.42 2.7-1.14 3.74-1.61a.66.66 0 00.36.3z" fill="#444053"/><path d="M194.59 169.28s-2.34.39-2.11-1.72a7.2 7.2 0 002.64-.78 6.11 6.11 0 002.6-3.73c1.77 0 1.37 1 1.37 1 .69 2.7-4.5 5.23-4.5 5.23z" fill="#75c7a4"/><path d="M194.59 169.28s-2.34.39-2.11-1.72a7.2 7.2 0 002.64-.78 6.11 6.11 0 002.6-3.73c1.77 0 1.37 1 1.37 1 .69 2.7-4.5 5.23-4.5 5.23z" opacity=".1"/><path d="M177.04 107.26s-7 1.48-7.38 6.6a5.69 5.69 0 012.47-.68 3.48 3.48 0 001.67-.24 9.46 9.46 0 013.24-5.68z" fill="#fff" opacity=".1"/><path d="M194.23 164.36a4.27 4.27 0 00-3.79 5.25c.88 2.94 4.5 3.88 6.86 5.85s3.49 5.12 3.78 8.19a20.06 20.06 0 01-5.77 15.87c-2.12 2.1-4.68 3.7-6.78 5.82a34.63 34.63 0 00-5.84 8.92 20.76 20.76 0 00-2.59 7.49c-.35 4.22 1.77 8.24 4.3 11.63s5.56 6.43 7.52 10.18a21.36 21.36 0 011.22 16.76 2 2 0 01-.71 1.13.79.79 0 01-1.15-.25" fill="none" stroke="#444053" stroke-miterlimit="10"/><path d="M181.93 163.62a2 2 0 00-.08 2.55 3.15 3.15 0 002.44 1.13c1.13 0 2.39-.35 3.32.3a2.91 2.91 0 011 2.18 11.14 11.14 0 00.25 2.45 4.75 4.75 0 001.08 1.75 5.41 5.41 0 002 1.46c1.66.65 3.6.07 5.3.61 2.26.71 3.47 3.13 4.15 5.4a15.55 15.55 0 01.49 8.38 28.92 28.92 0 01-2.27 5.13 11.59 11.59 0 00-1.48 5.37 4.92 4.92 0 002.82 4.49" fill="none" stroke="#444053" stroke-miterlimit="10"/><path d="M268.85 263.66l-1.88 1.13 2.54 9.2s.84.48 2.05 1.28c2.24 1.47 5.74 4 7.59 6.73 2.87 4.14 15.64 15.76 14 10.92s-2.36-3.93-2.36-3.93 2.8-7.31-4.1-10.6c-5.24-2.5-12.84-9.7-16.19-13-.99-1.07-1.65-1.73-1.65-1.73z" fill="#efb7b9"/><path d="M306.92 288.27a16.43 16.43 0 012.87 3.69 5.51 5.51 0 01.4 4.53c-.34.81-.92 1.5-1.27 2.3-1.67 3.86 2.67 8.08 1.85 12.21-.5 2.55-2.8 4.27-4.78 6s-3.93 4-3.4 6.58a14 14 0 001.6 3.33 3.61 3.61 0 01.2 3.53c-1.16 1.79-4.56 1.49-5 3.57-.44 1.86 2.12 3.77 1.1 5.37a2.32 2.32 0 01-2.52.7 18.48 18.48 0 00-2.69-.73 3.31 3.31 0 00-3.13 4.91c.53.95 1.55 1.76 1.43 2.83a2.23 2.23 0 01-1.23 1.58 4.65 4.65 0 01-6.17-1.84c-.84-1.63-.6-3.59-.49-5.42s0-3.89-1.31-5.18a8.51 8.51 0 00-2.22-1.35 23.34 23.34 0 01-6.14-4.43c-1.58-1.59-3-3.61-2.86-5.84.15-2.53 2.26-4.71 2.09-7.23s-2.71-4.39-4.86-5.93-4.4-3.91-3.7-6.46c.76-2.75 4.32-3.56 6.08-5.8a7.68 7.68 0 001.32-2.94c.47-1.86.59-3.79 1-5.65a8 8 0 012.89-4.83c1.9-1.31 4.42-1.22 6.7-.88s4.63.89 6.87.35c1.67-.41 3.18-1.4 4.87-1.7a6.34 6.34 0 015.63 2.05c.8.87.8 1.1 1.92 1.22a4 4 0 012.95 1.46z" fill="#925978"/><path d="M303.85 330.92a8.61 8.61 0 01-2.72 1.38 8.28 8.28 0 012.72-1.38zm-8.78 8.51a3.16 3.16 0 00-1.14.14 3.38 3.38 0 012.61-1 18.14 18.14 0 012.69.73 3.47 3.47 0 001.11.07.54.54 0 01-.05.11 2.35 2.35 0 01-2.52.7 18.6 18.6 0 00-2.7-.75zm-18.67-49.66c-.45 1.87-.57 3.8-1 5.66a7.68 7.68 0 01-1.32 2.94c-1.76 2.24-5.33 3.05-6.08 5.8-.7 2.55 1.54 4.91 3.69 6.45s4.68 3.29 4.86 5.93-1.93 4.71-2.08 7.23c-.14 2.23 1.28 4.26 2.86 5.85a23.4 23.4 0 006.14 4.43 8 8 0 012.21 1.35c1.32 1.28 1.44 3.34 1.32 5.17s-.35 3.79.49 5.43a4.69 4.69 0 005.42 2.16 3.24 3.24 0 01-.72.56 4.65 4.65 0 01-6.17-1.84c-.84-1.64-.6-3.59-.49-5.43s0-3.89-1.32-5.17a8 8 0 00-2.21-1.35 23.57 23.57 0 01-6.14-4.43c-1.58-1.59-3-3.62-2.86-5.85.15-2.52 2.26-4.7 2.09-7.23s-2.71-4.38-4.86-5.93-4.4-3.9-3.7-6.45c.76-2.75 4.32-3.56 6.08-5.8a7.68 7.68 0 001.32-2.94c.47-1.86.59-3.79 1-5.66a8 8 0 012.92-4.82 5.8 5.8 0 011.07-.57 8.32 8.32 0 00-2.52 4.51z" opacity=".1"/><path d="M230.4 314.21l-2.05-2.85s-3.74 5.31 1.68 8.64.37-5.79.37-5.79z" fill="#4c4981"/><path d="M230.4 314.21l-2.05-2.85s-3.74 5.31 1.68 8.64.37-5.79.37-5.79z" opacity=".1"/><path d="M212.64 403.13s-.36 5.34-1.2 10.54c-.6 3.72-1.45 7.38-2.59 8.94-2.73 3.77-2.13 16-2.13 16l-3.4 13.89c.25 2.82-1.69 6.51-2.61 8.07-.27.47-.46.75-.46.75l2.37 4 3.82.95s6.55-2.18 4.59-6.49a6.59 6.59 0 01-.44-2.73c0-5.57 3.69-14.94 3.69-14.94s9-17.16 8.06-20.68a6.53 6.53 0 01-.19-1.16c-.28-3.9 2-10.64 2-10.64zm-58.89-25.65c-6.18 4-16.73 14.61-18.68 17.39-2.42 3.45-8.55 7.37-8.55 7.37l-4.32 2.59a5.65 5.65 0 00-1.49 1.43 10.59 10.59 0 00-.67 1l6.22 7.25s1.71-1.32 3.6-3 4.19-4 4.77-5.49c1.12-2.92 8.07-6.31 8.07-6.31s12.89-7.63 14.37-8.9a25.59 25.59 0 014.63-3.11c.88-.48 1.9-1 3.08-1.51a71 71 0 009.55-5.73l-6-9-11 4.49a7.92 7.92 0 00-3.58 1.53z" fill="#efb7b9"/><path d="M200.71 460.58c-.27.47-.46.75-.46.75l2.37 4 3.82.95s6.55-2.18 4.59-6.49a6.59 6.59 0 01-.44-2.73c-2 .47-2.69 3.27-2.69 3.27s-.26 1.16-3.32 2.24c-2.07.69-3.28-.92-3.87-1.99z" opacity=".1"/><path d="M200.13 460.29c-.9.72-1.25 4-1.38 6.25-.07 1.1-.09 1.95-.09 2.12 0 .51 3.4 1.66 5.52 1.09s10.62 2 10.62 2a24.08 24.08 0 008.59-1.41c2.8-1 2.51-2.23 1.34-3.26a9.67 9.67 0 00-3.07-1.65 7.35 7.35 0 01-3.1-2.52 17.66 17.66 0 00-4-3.82c-1.38-.92-2.93-1.73-3.92-1.56-2.16.35-2.85 3.3-2.85 3.3s-.26 1.15-3.31 2.24-4.27-2.85-4.35-2.78z" fill="#444053"/><path d="M198.75 466.54c-.07 1.1-.09 1.95-.09 2.12 0 .51 3.4 1.66 5.52 1.09s10.62 2 10.62 2a24.08 24.08 0 008.59-1.41c2.8-1 2.51-2.23 1.34-3.26-2.24.72-6.65 2-9.3 1.83-3.16-.14-13.8-1.89-16.68-2.37zm-77.85-60.27h-.19a10.59 10.59 0 00-.67 1l6.22 7.25s1.71-1.32 3.6-3c-.51-3.72-8.37-5.94-8.37-5.94z" opacity=".1"/><path d="M114.43 408.43s.59 8.05 2.34 11c1.32 2.26 2.47 1.88 4.68.73.7-.37 1.51-.81 2.47-1.28 4-1.92 4.07-3.89 4.07-3.89 5.82-5.69-6.87-9.28-6.87-9.28l-.59.73a9 9 0 00-4.15.88 12.1 12.1 0 00-1.95 1.11z" fill="#444053"/><path d="M114.43 408.43s.59 8.05 2.34 11c1.32 2.26 2.47 1.88 4.68.73a8 8 0 01-4.11-5 24.74 24.74 0 01-1-7.86 12.1 12.1 0 00-1.91 1.13z" opacity=".1"/><path d="M268.85 300.06l-10.78 7.91-2.22 1.63 1.56 5.33 1.61 5.5 4.52 4.77s6.08-.76 9.55-3.83a6.49 6.49 0 002.32-4.12 6.24 6.24 0 01.37-1.46 5.31 5.31 0 01.91-1.49 6.1 6.1 0 011.68-1.31c3.1-1.69 7.51-1.18 7.51-1.18s-1.13-13.8-3.37-11.71c-1.45 1.36-5.17 1-7.61.52-1.32-.24-2.27-.5-2.27-.5z" fill="#efb7b9"/><circle cx="288.57" cy="304.36" r="11.38" opacity=".1"/><circle cx="288.93" cy="304.14" r="11.38" fill="#efb7b9"/><path d="M229.49 318.07c-2.09 1.5-4.73 5.33-4.73 5.33l2.77 16.13 15.38 5.68h.06c.88-.76 12-10.33 16.42-8.83 4.59 1.57 13.38-3.61 13.38-3.61s3.72-7.81 4.71-9.49-.81-8.93-.81-8.93c-.31.54-.61 1-.91 1.49a14 14 0 01-2.8 3.19 5.81 5.81 0 01-3.89 1.53 4.27 4.27 0 00-1.13.06c-5.47 1-7-4.46-7.44-6.74-.1-.58-.13-1-.13-1l-2.32-4.9-1.46-3.07s-23.93 12.11-26 12.62a3.27 3.27 0 00-1.1.54z" fill="#444053"/><path d="M275.75 315.79a15.27 15.27 0 01-1 1.37l3 5a16.56 16.56 0 00-.22-3.44z" fill="#925978"/><path d="M274 318.01a11.83 11.83 0 01-1.07 1l-.13.1 3.64 6.07c.34-.68.64-1.26.87-1.65zm-3.53 2.33l4.57 7.64c.28-.58.57-1.15.84-1.7l-3.95-6.58a6.08 6.08 0 01-1.46.64zm-2.91.3l6.1 10.18.83-1.71-5.15-8.58h-.29a4.74 4.74 0 00-1.13.07zm5.18 12.09l-.74.45-7.81-13a4.94 4.94 0 002.2.58l6.75 11.25z" fill="#fff"/><path d="M255.4 305.51l5.11 8.52v-.18c-.11-.59-.14-1-.14-1l-2.32-4.89-1.46-3.07z" fill="#925978"/><path d="M253.03 306.7l16.58 27.64c.53-.24 1-.48 1.44-.69l-16.59-27.67zm-2.37 1.18l16.48 27.49q.78-.29 1.5-.6l-16.55-27.6zm-2.37 1.19l16.26 27.12c.53-.13 1.06-.29 1.58-.46l-16.41-27.37zm-2.37 1.18l15.82 26.38a11.77 11.77 0 001.73-.2l-16.13-26.89zm-2.38 1.18l14.85 24.76a3.34 3.34 0 011 .16 5.06 5.06 0 001.12.24L245 310.72zm-2.38 1.17l14.48 24.16a10 10 0 011.59-.46l-14.64-24.4z" fill="#fff"/><path d="M238.78 313.76l14.44 24.1c.49-.26 1-.49 1.44-.7l-14.45-24.09zm-2.4 1.16l14.56 24.27c.45-.29.91-.56 1.36-.82l-14.45-24.14zm-2.4 1.14l14.76 24.6c.42-.3.87-.6 1.31-.9l-14.62-24.33zm-2.42 1.09l15 25.08 1.28-1-14.85-24.77z" fill="#925978"/><path d="M229.46 318.09l-.29.22 15.33 25.57c.36-.3.79-.64 1.25-1l-15.2-25.35a3.12 3.12 0 00-1.09.56zm-1.09.93c-.38.37-.77.78-1.14 1.2l14.81 24.69.85.32v-.05l.74-.63zm-1.86 2.05c-.4.49-.76 1-1 1.34l12.61 21 2.38.88zm-1.72 2.27l-.05.08.7 4.09 8.68 14.48 2.38.88z" fill="#fff"/><path fill="#925978" d="M225.93 330.38l.75 4.33 3.48 5.81 2.38.88-6.61-11.02zm1.24 7.2l.34 1.96 1.07.4-1.41-2.36z"/><path d="M229.49 318.07c.77 2.43 1.59 4.63 1.59 4.63l5.67 11.81 12.55-5.43a19.45 19.45 0 001.08-6.23c-.18-2.4 1-5.83 7-7.92.35-.12.71-.24 1.1-.35a13.13 13.13 0 002-.75 11.5 11.5 0 006.28-6.68l.08-.25 8.24-5.91a3 3 0 00-.22-.37c-1.32-.24-2.27-.5-2.27-.5l-3.78-.06-10.78 7.91-1.46-3.07s-23.93 12.11-26 12.62a3.27 3.27 0 00-1.08.55z" opacity=".1"/><path d="M249.51 293.09a11.19 11.19 0 01-4.27 6.06c-3.49 2.51-3 3.94-3 3.94l-10.33 6.34s-1.79 2.41-3.56 2 2.51 11 2.51 11l5.67 11.81 12.55-5.43a19.45 19.45 0 001.08-6.23c-.19-2.54 1.09-6.23 8.11-8.26a11.86 11.86 0 008.29-7.44c.05-.16.07-.25.07-.25l8.25-5.91a4.6 4.6 0 00-3.11-2.32 10.93 10.93 0 01-1.33-.28c-1.21-.36-1.78-1-1.77-2.1 0-1.51-.06-8-2.85-8.2s-16.31 5.27-16.31 5.27z" fill="#4c4981"/><path d="M270.44 298.02l-5.24 4.7 1.36 4.06c.05-.16.07-.25.07-.25l8.25-5.91a4.6 4.6 0 00-3.11-2.32 10.93 10.93 0 01-1.33-.28z" fill="#4c4981"/><path d="M270.44 298.02l-5.24 4.7 1.36 4.06c.05-.16.07-.25.07-.25l8.25-5.91a4.6 4.6 0 00-3.11-2.32 10.93 10.93 0 01-1.33-.28zm-1.59-34.36l-1.88 1.13 2.54 9.2s.84.48 2.05 1.28c-.21-1-1.13-5.72-1.41-8.29-.1-.94-.12-1.59 0-1.68s.2 0 .37.07c-1.01-1.05-1.67-1.71-1.67-1.71z" opacity=".1"/><path d="M251.52 259.12s-3.18 13.07-1.74 19.68c0 0 1.2 9.67-.27 14.29l15.75-2.45.56-2.92s-2.82-2-3.28-4.52-1.24-5.24-1.24-5.24a41.81 41.81 0 00-1-7c-.59-1.71 1.85-2 3.7-.82a4.3 4.3 0 01.69.52 2.31 2.31 0 00.59 3.05 6.56 6.56 0 002.2 1 21.6 21.6 0 003.55.63s-1.13-5.6-1.44-8.5c-.11-.94-.13-1.59 0-1.67.55-.33 4.42 3.5 4.42 3.5s.19-4.82-1.91-5.82c0 0-.33 1.38-1.46.88s-13.4-7.3-13.4-7.3-4.64-3.95-5.72 2.69z" fill="#4c4981"/><path d="M262.41 264.43l1.59 5.77a4.3 4.3 0 01.69.52 2.31 2.31 0 00.59 3.05 6.56 6.56 0 002.2 1 22.73 22.73 0 003 .48s-1.13-5.6-1.45-8.49z" opacity=".1"/><path d="M263 264.54l1.69 6.15a2.31 2.31 0 00.59 3.05c1.66 1.25 5.76 1.59 5.76 1.59s-1.13-5.6-1.44-8.5z" fill="#4c4981"/><path d="M263.14 264.43l1.69 6.14a2.33 2.33 0 00.58 3.06c1.67 1.25 5.77 1.58 5.77 1.58s-1.13-5.6-1.45-8.49z" fill="#fff" opacity=".1"/><path d="M224.12 409.59l-11.48-6.46s-.36 5.34-1.2 10.54c3.95 2.5 7.62 4.88 10.71 6.56-.3-3.9 1.97-10.64 1.97-10.64zm-70.37-32.11a35.73 35.73 0 004.76 6.33s1.16 1.61 3.19 3.86c.88-.48 1.9-1 3.08-1.51a71 71 0 009.55-5.73l-6-9-11 4.49a7.92 7.92 0 00-3.58 1.56z" opacity=".1"/><path d="M190.49 340.8c-2.06 3.23-12.08 14-12.08 14a55.09 55.09 0 00-4.52 6.83c-1.76 3.3-7.16 7.41-11.29 11.13s-4.13 1.23-6.57 2.57 4.82 9.1 4.82 9.1 12.29 17 26.22 17.72 34.29 19.11 42.75 20.94 3.21-3 6.81-4.25 5.36-5.21 5.36-5.21-1.32-9.69-.24-11.83 2.34-10.88 2.34-10.88 0-7.73.6-9 .32-10.29-.12-12.9 1.91-6.38 1.91-6.38-.83-1.38.33-4.45-1-12.88-1-12.88c-17.96-10.54-21.05-21.88-21.05-21.88l-2.25.69c-14.24-3.59-29.97 13.45-32.02 16.68z" fill="#444053"/><path d="M222.51 324.09s1.41 15.25 23.32 21.2c-17.98-10.52-21.07-21.86-21.07-21.86zm2.4 26.26s-18.06 29.17-18.52 30.7 19.26-29.89 18.52-30.7zm-1.61-9.14s-13.86 20.79-16.58 21.67c0 0 13.29-20.07 16.58-21.67zm-8.45-4.92s-9.78 7-17.38 6.18zm-2.69-4.5s-9.39 3.91-11.76 3.7zm21.54 26.76l.71 19.29-3.41-5.69 2.7-13.6zm58.02-63.82c-.18 1.07-.76 2.13-.46 3.17a4.33 4.33 0 001.38 1.81c1.43 1.33 2.79 3 3 4.89.26 2.77-1.95 5.31-1.72 8.08a4.65 4.65 0 00.87 2.36 4.7 4.7 0 001.1 1.08 4.61 4.61 0 003.42.75 5.9 5.9 0 004.27-4.09 12.35 12.35 0 00.09-6.13c-1-5.31-3.58-10.18-6.1-15a2.34 2.34 0 00-.81-1c-.88-.51-4.26-.57-5.1.11-1.16.93 1.06 3.38.06 3.97z" opacity=".1"/><path d="M292.09 294.51c-.19 1.07-.76 2.13-.47 3.17a4.28 4.28 0 001.39 1.81c1.42 1.33 2.78 2.95 3 4.89.25 2.77-2 5.31-1.73 8.08a4.75 4.75 0 00.88 2.36 4.47 4.47 0 001.09 1.08 4.64 4.64 0 003.43.75 5.89 5.89 0 004.26-4.09 12.23 12.23 0 00.1-6.13c-1-5.31-3.58-10.18-6.1-15a2.41 2.41 0 00-.81-1c-.88-.51-4.26-.57-5.1.11-1.18.89 1.06 3.38.06 3.97z" fill="#925978"/><path d="M312.17 361.66l-5.69 4.35 2.13 1.51 11.55 8.19s4 8.29 11 6-4-9.39-4.76-9.69-2.17-1.13-2.17-1.13l-10.27-7.85z" fill="#efb7b9"/><path d="M312.17 361.66l-5.69 4.35 2.13 1.51c2.69-1.71 5-3.57 5.37-4.48zm-65.53-36.73l-12.31 8 8.64 12.19c.88-.76 12-10.33 16.42-8.83 4.59 1.57 13.38-3.61 13.38-3.61s3.72-7.81 4.71-9.49-.81-8.93-.81-8.93a6.1 6.1 0 011.68-1.31 8.14 8.14 0 00-1.63.1c-2.43 1.07-3.67 2.76-3.76 5.89v.86c0 .48.05 1 .11 1.53v.25c.6 4.88-1.58 6.94-1.58 6.94a10.77 10.77 0 01-6.11 5c-4.29 1.38-18.74-8.59-18.74-8.59z" opacity=".1"/><path d="M247.08 325.66l-12.31 8 9.72 13.77s4.82-2.64 6.4-4.59 9.62-5.19 9.62-5.19c9.7 3.42 13.86-2.4 13.86-2.4s11.26 17.53 12 17.61 6.84 4.88 6.84 4.88 4.72 6.07 6.1 6.57a8.69 8.69 0 011.5.68 3.07 3.07 0 01.4.26l-4.13 2.4a1 1 0 00.07.15l.05.08a6.67 6.67 0 002.52 2.51c1.87 1 14.08-6.61 13.88-8.32a1.86 1.86 0 00-.37-.88 10.33 10.33 0 00-3.18-2.48l-.32-.18-.12-.06s-7.06-7.08-9.35-8.12-10-13.46-10-13.46-4-5.33-3.48-6.48-2.05-10.83-3.67-11-2.34-2.39-2.34-2.39c1.07-2.25-.05-3-1.31-3.2a7.69 7.69 0 00-2.26 0c-2.64 1.17-3.88 3.07-3.76 6.75 0 .55.06 1.15.14 1.78.6 4.88-1.58 6.94-1.58 6.94a10.77 10.77 0 01-6.11 5c-4.36 1.34-18.81-8.63-18.81-8.63z" fill="#4c4981"/><path d="M313.2 361.19a1.41 1.41 0 01.15.51c.2 1.71-12 9.36-13.88 8.33a6.81 6.81 0 01-2.3-2.15l-.05-.08a1 1 0 01-.07-.15l4.13-2.4a3.07 3.07 0 00-.4-.26l.18-.1a12.35 12.35 0 008.74-6.36z" opacity=".1"/><path d="M301.18 365.25l-4.13 2.4a6.63 6.63 0 002.64 2.74c1.87 1 14.08-6.61 13.88-8.32-.15-1.36-2.54-2.81-3.55-3.36a12.34 12.34 0 01-8.84 6.54z" fill="#4c4981"/><path d="M301.18 365.25l-4.13 2.4a6.63 6.63 0 002.64 2.74c1.87 1 14.08-6.61 13.88-8.32-.15-1.36-2.54-2.81-3.55-3.36a12.34 12.34 0 01-8.84 6.54z" fill="#fff" opacity=".1"/><path d="M273.4 320.57l3 1.29 3-8.07a7.69 7.69 0 00-2.26 0c-2.62 1.2-3.86 3.1-3.74 6.78z" fill="#4c4981"/><path d="M273.53 320.5l3 1.28 3-8.07a7.69 7.69 0 00-2.26 0c-2.62 1.2-3.86 3.1-3.74 6.79zm19.32-26.43c-.19 1.07-.77 2.13-.47 3.17a4.27 4.27 0 001.38 1.81c1.43 1.33 2.79 2.95 3 4.89.25 2.77-2 5.31-1.73 8.08a4.73 4.73 0 00.82 2.41 4.61 4.61 0 001.1 1 4.56 4.56 0 003.42.75 4.2 4.2 0 001.21-.4 4.75 4.75 0 01-1.94.84 4.58 4.58 0 01-4.52-1.82 4.82 4.82 0 01-.88-2.37c-.23-2.77 2-5.31 1.73-8.08-.17-1.94-1.53-3.56-3-4.89a4.22 4.22 0 01-1.39-1.81c-.29-1 .28-2.1.47-3.17 1-.59-1.22-3-.1-4a1.85 1.85 0 01.58-.26c-.68 1.08 1.24 3.29.32 3.85zm-26.16 21.98s-3.9.27-4.37 2.29c0 0 3.74-3.61 3.22-4.55" opacity=".1"/><path d="M332.04 376.43s-10.08-4.83-8.72 1.24 8.72-1.24 8.72-1.24z" fill="#efb7b9"/><path fill="#75c7a4" d="M310.69 341.317l9.551-4.363 49.028 107.333-9.551 4.363z"/><path d="M192.4 164.83c-1.86 4.08-6.39 7.71-5.05 12 .69 2.21 2.8 3.63 4.76 4.86 4.58 2.9 9.25 5.9 12.57 10.18s5.12 10.15 3.2 15.22c-1.31 3.47-4.15 6.15-5.81 9.47a19.85 19.85 0 00-1.09 13.36 46.11 46.11 0 005.49 12.51c.85 1.46 1.85 3 3.44 3.58a11.88 11.88 0 003.63.3c4.23.16 8.05 3 10.31 6.55s3.17 7.85 3.62 12.06c.22 2.12.38 4.37 1.58 6.13 1.68 2.46 4.88 3.27 7.82 3.77a99.06 99.06 0 0023.14 1.19" fill="none" stroke="#444053" stroke-miterlimit="10"/><rect x="248.29" y="269.78" width="13.75" height="9.08" rx="4.54" ry="4.54" fill="#444053"/></svg>