<svg data-name="Layer 1" xmlns="http://www.w3.org/2000/svg" width="934.219" height="782.347" viewBox="0 0 934.219 782.347"><path d="M621.824 520.65c39.873 381.522 192.901 330.194 306.92-209.086 30-141.893-66.595-279.904-209.086-306.92S439.754 71.24 412.738 213.73 606.75 376.406 621.824 520.65zM128.196 640.404c0 48.273-28.697 65.128-64.098 65.128S0 688.677 0 640.404s64.098-109.685 64.098-109.685 64.098 61.412 64.098 109.685z" fill="#f2f2f2"/><path fill="#f2f2f2" d="M61.763 698.148l.657-40.4 27.32-49.981-27.218 43.643.296-18.166 18.829-36.16-18.751 31.353.53-32.672 20.163-28.788-20.079 23.651.332-59.909-2.085 79.308.172-3.271-20.5-31.378L61.6 613.036l-1.91 36.489-.057-.969-23.632-33.02 23.56 36.442-.238 4.563-.043.069.019.374-4.846 92.575h6.475l.777-47.816 23.503-36.353-23.445 32.758z"/><path d="M128.196 640.404c0 48.273-28.697 65.128-64.098 65.128S0 688.677 0 640.404s64.098-109.685 64.098-109.685 64.098 61.412 64.098 109.685z" fill="#f2f2f2"/><path fill="#3f3d56" d="M61.763 698.148l.657-40.4 27.32-49.981-27.218 43.643.296-18.166 18.829-36.16-18.751 31.353.53-32.672 20.163-28.788-20.079 23.651.332-59.909-2.085 79.308.172-3.271-20.5-31.378L61.6 613.036l-1.91 36.489-.057-.969-23.632-33.02 23.56 36.442-.238 4.563-.043.069.019.374-4.846 92.575h6.475l.777-47.816 23.503-36.353-23.445 32.758z"/><ellipse cx="467.196" cy="751.847" rx="464" ry="30.5" fill="#3f3d56"/><ellipse cx="216.196" cy="748.035" rx="116" ry="20.312" opacity=".1"/><ellipse cx="702.196" cy="752.847" rx="116" ry="17.5" opacity=".1"/><path d="M236.039 387.897l34.335 1.32s30.374 14.527 30.374 26.412-35.656-13.206-35.656-13.206l-29.053-1.32z" fill="#ffb9b9"/><path d="M236.039 387.897l34.335 1.32s30.374 14.527 30.374 26.412-35.656-13.206-35.656-13.206l-29.053-1.32z" opacity=".1"/><path d="M237.36 377.332s6.602 15.847 5.282 23.77-51.504 5.283-51.504 5.283l7.924-23.77zm-47.542 286.569l-2.641 35.656 22.45 1.32 3.961-34.335-23.77-2.641z" fill="#ffb9b9"/><path d="M189.818 398.461l-5.283 13.206s-11.885 11.886-9.244 40.939 3.962 30.373 3.962 30.373-10.565 183.563-1.32 184.883 60.747 26.412 66.03-2.64 7.923-146.587 7.923-146.587l-60.748-109.609z" fill="#2f2e41"/><path d="M189.818 398.461l-5.283 13.206s-11.885 11.886-9.244 40.939 3.962 30.373 3.962 30.373-10.565 183.563-1.32 184.883 60.747 26.412 66.03-2.64 7.923-146.587 7.923-146.587l-60.748-109.609z" opacity=".1"/><path fill="#ffb9b9" d="M249.244 642.771l-11.885 17.168 19.809 7.923 17.168-27.732-25.092 2.641z"/><circle cx="237.359" cy="245.273" r="30.374" fill="#ffb9b9"/><path d="M213.588 234.708s-26.411 27.732-34.335 29.053 27.733 23.77 27.733 23.77v-7.923s11.885-11.885 18.488-13.206-11.885-31.694-11.885-31.694z" fill="#ffb9b9"/><path d="M192.459 391.858l-7.924 19.81s-15.847 39.617 6.603 60.747 87.16 87.159 84.518 101.685-41.785 65.874-29.476 72.555 147.01-17.09 148.33-32.937c.495-5.943-4.395-17.457-10.702-29.528a310.742 310.742 0 00-43.623-62.73l-89.62-100.548s-9.244-19.81-6.603-23.771c0 0-10.565-10.565-42.259-2.641zm-6.603 303.737s-6.603 21.13-9.244 22.45-5.282 15.847-2.641 18.488 3.962 14.527 3.962 14.527h2.64l1.321-13.206s27.36 16.518 31.695 18.488c7.263 3.302 39.617 2.641 38.297-3.962s-39.618-27.732-38.297-33.015-2.642-21.129-2.642-21.129z" fill="#2f2e41"/><path d="M261.13 666.542l-26.412-10.565s-6.603 10.565-14.527 10.565-14.082 9.604-13.644 10.084-11.447 16.328-11.447 16.328l2.134 3.838 15.034-9.12 4.213 17.695a67.516 67.516 0 0013.35 27.291c5.18 6.304 11.637 11.652 18.093 10.478 0 0 2.641 0 0-18.488s2.641-38.297 2.641-38.297z" fill="#2f2e41"/><path d="M192.459 262.44s2.641 6.603 5.282 7.924 10.565 6.603 11.886 11.885 7.923 21.13 7.923 21.13 14.527 7.923 13.206 22.45-2.641 26.412 0 27.732 5.283 1.32 3.962 5.283 2.641 7.923 3.962 9.244 3.962-1.32 1.32 2.641-1.32 5.282 0 6.603 2.642 1.32 1.32 3.962-50.182 19.809-52.823 19.809-2.641-2.642-1.32-6.603 6.603-7.924 1.32-9.245-6.603-1.32-6.603-7.923-22.45-46.22-22.45-46.22-9.244-30.374 0-43.58 15.847-22.45 21.13-25.092 11.885 0 11.885 0z" fill="#75c7a4"/><path d="M148.88 324.508l-15.848 43.58-31.694 93.762s-33.015 46.22-10.565 43.58 25.092-43.58 25.092-43.58l30.373-72.633 27.733-55.465z" fill="#ffb9b9"/><path d="M164.727 286.211l-5.283 1.32s-18.488 36.977-14.526 40.939 25.09 14.527 29.053 13.206 9.244-39.618 9.244-39.618z" fill="#75c7a4"/><path d="M166.283 233.742c10.246-4.505 22.644-14.368 34.417-22.507 3.816-2.638 7.532-5.406 11.228-8.207 7.451-5.647 25.382-7.606 40.858 2.317 17.688 11.342 26.32 29.438 21.531 36.906-3.959 6.175-17.101 5.092-31.532-1.876-2.029 13.519-6.667 26.992-11.735 34.895-11.468 17.885-21.116 1.024-39.001-10.444s-45.215-22.533-25.766-31.084z" fill="#2f2e41"/><circle cx="406.196" cy="476.347" r="61" fill="#75c7a4"/><path d="M702.196 158.347v112.708l5-2.708v13l6 16s6 0 6 3-6 8-6 8h-11v53.173l7-16.173h13l9 18s-6 2-6 6 7 12 6 17-5 13-8 16l-13 13h-8v349h58v-606zm-33 262l15-8s4 15 0 18-23 11-23 11l12 12h-19zm-37.37 334.926l4.792 2.632s-6.392 3.159-8.057 2.581-6.78-4.218-6.78-4.218l-4.403 4.744-1.533-4.787zm13.892-6.463s-16.183-10.154-2.072-7.726a109.907 109.907 0 0026.219 1.251l2.072 7.727zm20.425 15.303s-15.016-3.358-3.366-5.258a96.314 96.314 0 0020.917-5.978l3.366 5.257zm4.053-267.766v-6h16v19l-16-13z" fill="#3f3d56"/></svg>